SplineFontDB: 3.0
FontName: CoelacanthSemibd
FullName: CoelacanthSemibd
FamilyName: Coelacanth
Weight: Semibold

StartChar: a
Encoding: 97 97 0
Width: 413
VWidth: 1159
Flags: HMW
LayerCount: 2
Fore
SplineSet
243.392 170.432 m 1
 236.719729492 171.12 231.001241699 171.18946875 224.328 171.12 c 1
 201.919671875 170.687953125 165.311734068 164.094032105 155.256 157.936 c 0
 129.913132813 142.702728277 112.984 126.1090625 112.984 97.616 c 3
 112.984 71.627828125 132.588789063 44.608 161.112 44.608 c 3
 183.750113971 44.608 216.43304136 60.983765625 240.456 74.184 c 1
 239.456 85.1855390625 239.456 100.417726563 239.456 115.44 c 3
 239.456 136.278134375 242.64184375 153.9344 243.392 170.432 c 1
222.432 418.256 m 3
 242.009541016 418.256 310.308583583 371.344130433 320.368 356.504 c 0
 327.70803125 345.7599375 329.368 321.949757813 329.368 308.128 c 3
 329.368 240.527603643 324.368 175.999793342 324.368 110.448 c 3
 324.368 93.199328125 326.852398766 74.5835666209 330.992 65.312 c 0
 338.9548125 47.2144375 350.523664063 46.368 354.864 46.368 c 3
 363.823973273 46.368 381.744160362 52.5405714286 395.184 59.624 c 1
 406.312 27.568 l 1
 362.991630068 11.9008 304.693515625 -10.064 287.64 -10.064 c 3
 276.003320312 -10.064 254.846314062 4.1544984375 242.144 50.872 c 1
 192.919206779 19.519171875 152.149602822 -8.688 98.256 -8.688 c 3
 50.628875 -8.688 36.008 26.75503125 36.008 70.064 c 3
 36.008 95.6249790901 39.4098281378 121.034674374 45.192 134.68 c 0
 50.6255859375 147.451804687 57.5478972702 152.393206009 67.688 157.24 c 0
 136.809232422 190.206453125 179.158267887 191.651101563 245.328 206.24 c 1
 246.016 227.568 247.64 275.88 247.64 275.88 c 3
 247.64 305.624 238.80267281 318.722839151 231.648 327.936 c 0
 222.130015625 340.607882813 189.668882813 363.136 169.184 363.136 c 1
 148.544 363.136 140.984 354.54 140.984 342.156 c 3
 140.984 332.76721875 147.136814631 319.209617187 147.984 314.064 c 1
 62.064 278.76 l 1
 57.315078125 287.393171875 50.88 311.685 50.88 322.66 c 3
 50.88 335.861109375 58.6986476564 348.487975158 78.66 361.32 c 0
 141.485577766 401.342195313 206.804581506 418.256 222.432 418.256 c 3
EndSplineSet
Substitution2: "case-1" A
Substitution2: "pcap-1" a.pcap
Substitution2: "smcp-1" a.smcp
EndChar

StartChar: b
Encoding: 98 98 1
Width: 507
VWidth: 1159
Flags: HMW
LayerCount: 2
Fore
SplineSet
152.6 334.496 m 1
 152.224 247.864 150.912 198.048 150.912 111.416 c 3
 150.912 102.92 155.848 92.488 163.472 84.616 c 0
 191.352 59.488 228.048 44.424 264.368 44.424 c 3
 334.504 44.424 386.456 96.936 386.456 170.64 c 3
 386.456 260.952 337.448 361.2 235.824 361.2 c 3
 201.184 361.2 160.416 341.688 152.6 334.496 c 1
1.752 683.936 m 1
 48.736 691.872 101.928 719.872 163.16 759 c 1
 183.848 741.128 l 1
 175.096 717 166.16 686.688 164.536 667 c 0
 159.848 612.728 152.6 471.52 152.6 372.056 c 1
 186.536 385.744 235.984 410.128 292.24 410.128 c 3
 395.056 410.128 469.496 316.248 469.496 227.056 c 3
 469.496 96.808 345.384 -7.128 207.192 -7.128 c 3
 152.368 -7.128 144.432 12.504 117.048 12.504 c 3
 89.056 12.504 72.496 -3.624 65.184 -10 c 1
 48.432 2.312 l 1
 49.808 6.44 54.12 19.504 57.184 27.88 c 0
 63.184 49 69.496 66.816 70.496 145 c 0
 72.496 288 74.496 367 74.496 510 c 3
 74.496 574.368 72.624 603.88 68.624 621.072 c 0
 61.128 650.256 52.88 654.128 29.576 654.128 c 3
 21.448 654.128 11.384 652.752 4.568 652.752 c 1
 1.752 683.936 l 1
EndSplineSet
Substitution2: "case-1" B
Substitution2: "pcap-1" b.pcap
Substitution2: "smcp-1" b.smcp
EndChar

StartChar: c
Encoding: 99 99 2
Width: 421
VWidth: 1159
Flags: HMW
LayerCount: 2
Fore
SplineSet
325.208 300.52 m 1
 287.781651756 319.717607655 236.566607022 342.704 203.08 342.704 c 3
 148.038512074 342.704 118.48 304.42109681 118.48 233.976 c 3
 118.48 132.793373053 180.672668992 48.736 285.232 48.736 c 3
 319.492930993 48.736 348.482972316 62.084 368.688 75.432 c 1
 385.312 47.248 l 1
 350.826703079 19.8046333177 290.984406331 -10.688 230.128 -10.688 c 3
 181.436781474 -10.688 33.376 2.46207851968 33.376 180.752 c 3
 33.376 307.079428704 151.195775814 413 268.248 413 c 3
 316.248 413 365.248040918 392.564513684 396.248 369.064 c 1
 394.936 333.64 397.368 342.504 325.208 300.52 c 1
EndSplineSet
Substitution2: "case-1" C
Substitution2: "pcap-1" c.pcap
Substitution2: "smcp-1" c.smcp
EndChar

StartChar: d
Encoding: 100 100 3
Width: 511
VWidth: 1159
Flags: HMW
LayerCount: 2
Fore
SplineSet
346.024 43.016 m 1
 304.759377092 20.1476612895 253.862661836 -3.128 196.376 -3.128 c 3
 96.3760212821 -3.128 33.376 79.9836073684 33.376 172 c 3
 33.376 251.466084 82.5301279515 321.087877787 135.936 357.752 c 0
 181.354807676 388.386936307 236.730485209 403.128 266.376 403.128 c 3
 288.044773906 403.128 337.449452188 389.756981622 349.584 388.184 c 1
 349.584 502.421996593 347.52682099 555.612965991 342.592 611.648 c 0
 341.246782944 626.675994119 332.274947368 646.328 314.848 646.328 c 3
 308.071906303 646.328 287.627401611 642.2 279.776 641.824 c 1
 270.84 676.632 l 1
 331.647049505 688.727804878 393.49829703 714.460097561 446.056 753.376 c 1
 465.744 734.568 l 1
 458.1216 720.735856 449.938269083 694.033385306 448.624 683.192 c 0
 425.777897 529.060726915 426.376 353.052978861 426.376 185 c 3
 426.376 137.720491246 428.936 81.56 436.56 44.792 c 1
 438.56 33.4951202823 449.050192 35.104 451.184 35.104 c 1
 465.625470464 37.388 490.253221506 42.424 501.688 44.864 c 1
 508.504 15.056 l 1
 449.162121965 -4.19541003672 378.968076555 -27.632 364.776 -27.632 c 3
 358.813150861 -27.632 351.771376495 -25.1625439361 349.272 -14.064 c 0
 346.365722381 2.82054236122 346.024 39.6583123245 346.024 43.016 c 1
222.072 352.76 m 3
 202.70493456 352.76 174.787483109 341.487480049 157.808 330.504 c 0
 129.997714286 311.1472 110.48 280.43484473 110.48 238.48 c 3
 110.48 147.091417878 168.067765993 53.672 273.784 53.672 c 3
 301.992 53.672 327.072 68.112 344.272 81.872 c 1
 345.584 150.559841429 348.584 222.032328197 348.272 291.648 c 1
 348.272 331.585417721 315.408 335.944 284.416 342.88 c 0
 264.598204654 347.421527574 229.827549747 352.76 222.072 352.76 c 3
EndSplineSet
Substitution2: "case-1" D
Substitution2: "pcap-1" d.pcap
Substitution2: "smcp-1" d.smcp
EndChar

StartChar: e
Encoding: 101 101 4
Width: 409
VWidth: 1159
Flags: HMW
LayerCount: 2
Fore
SplineSet
214.248 413.44 m 3
 279.224701108 413.44 334.363995281 366.089309162 353.56 324.744 c 0
 363.722290553 306.473018944 376.225787879 298.5625 386.432 297.504 c 1
 386.432 273.504 l 1
 304.465748341 259.934657553 204.177543526 239.199173364 125.104 219.78 c 1
 125.104 215.504265838 124.416 210.515734162 124.416 206.24 c 3
 124.416 93.7961 196.113498947 48.424 253.728 48.424 c 3
 296.904818717 48.424 331.019477585 68.1360033549 356.184 88.744 c 1
 379.056 59.248 l 1
 336.672962113 26.7297531613 276.125439396 -9.688 206.496 -9.688 c 3
 92.4370209143 -9.688 33.816 77.8224510388 33.816 180.312 c 3
 33.816 347.201046968 172.626546936 413.44 214.248 413.44 c 3
194.008 362.384 m 3
 154.211764065 362.384 130.4384 308.791184684 126.48 246.156 c 1
 275.64 276.384 l 0
 283.328 277.54 l 1
 273.057140975 316.627968161 233.916847096 362.384 194.008 362.384 c 3
EndSplineSet
Substitution2: "case-1" E
Substitution2: "pcap-1" e.pcap
Substitution2: "smcp-1" e.smcp
EndChar

StartChar: f
Encoding: 102 102 5
Width: 357
VWidth: 1159
Flags: HMW
LayerCount: 2
Fore
SplineSet
371.168 755.688 m 3
 398.36553271 755.688 450.048 746.248 475.672 723.624 c 1
 474.36 692.568 468.496 689.18840625 411.072 647.456 c 1
 377.824804687 663.940484375 342.886222222 691.016 305.568 691.016 c 3
 191.270509629 691.016 213.361598396 595.903731465 205.352 499.56 c 0
 204.235907395 485.231745712 201.416 434.808475248 200.104 395.752 c 1
 249.417907285 398.376 293.990092715 398.376 343.304 401 c 1
 343.304 348.136 l 1
 293.865684211 350.76 248.230315789 352.072 198.792 354.696 c 1
 197.48 326.093014926 197.48 301.803278448 197.48 290.816 c 3
 197.48 211.492150628 199.705593289 137.170787419 205.352 59.616 c 0
 206.654996043 43.0204094179 214.549017117 36.4222620539 232.096 35.184 c 0
 257.240900246 33.872 280.50630137 33.872 305.72 33.184 c 1
 303.032 -6.312 l 1
 256.118 -1.312 189.098 0.688 142.184 0.688 c 3
 109.534943396 0.688 59.4730566038 -2.312 26.824 -6.312 c 1
 25.824 32.496 l 1
 36.252 33.184 49.0058201989 33.8159624713 59.952 35.496 c 0
 94.3199052058 41.6406 98.8136517262 55.7984927922 101.944 86.616 c 0
 107.819472807 136.559914584 111.816 201.556540541 111.816 263.816 c 3
 111.816 283.112566944 110.504 318.924085106 110.504 354.696 c 1
 84.449945946 353.384 59.4380540541 349.448 33.384 348.136 c 1
 33.384 401 l 1
 59.4380540541 399.688 84.449945946 397.064 110.504 395.752 c 1
 110.504 435.89275 110.504 482.209 110.504 494.56 c 3
 110.504 601.92121327 156.306869829 656.305761929 230.24 704.312 c 0
 274.388481136 732.811527635 309.577244444 755.688 371.168 755.688 c 3
EndSplineSet
Substitution2: "salt-1" f.alt
Substitution2: "case-1" F
Substitution2: "pcap-1" f.pcap
Substitution2: "smcp-1" f.smcp
EndChar

StartChar: g
Encoding: 103 103 6
Width: 475
VWidth: 1159
Flags: HMW
LayerCount: 2
Fore
SplineSet
161.48 4.928 m 3
 161.48 -14.524325 190.563926516 -21.64 216.504 -21.64 c 3
 247.504 -21.64 275.099597187 -13.768 305.504 -13.768 c 3
 403.9441008 -13.768 447.504 -74.8645685527 447.504 -127.712 c 3
 447.504 -263.317556977 274.397837857 -333.128 170.504 -333.128 c 3
 65.1612517106 -333.128 17.504 -268.936053668 17.504 -222.68 c 3
 17.504 -137.113705882 99.1690900984 -85.1240588235 112.944 -75.376 c 1
 80.8034 -50.7054916152 64.95782467 -25.1522075718 59.816 5.376 c 1
 90.816 28.8992 148.228402326 50.1297777778 178.192 61.376 c 1
 99.3176170213 76.0116886227 42.504 137.376114916 42.504 226.376 c 3
 42.504 350.701128 169.056757273 412.504 230.504 412.504 c 3
 270.06740404 412.504 307.056304713 399.290526316 340.064 373.88 c 1
 367.398809412 379.256 391.678772867 384.504 423.12 384.504 c 3
 437.652 384.504 456.0592 381.504 461.872 377.504 c 1
 440.752 307.272 l 1
 419.90582442 317.52 396.100196721 326.594352941 379.256 327.2 c 0
 375.816 327.2 372.128 327.2 368 326.512 c 1
 381.613403232 299.813004275 392.504 266.811553282 392.504 236.88 c 3
 392.504 136.942367256 300.2136793 91.5614576614 234.568 60.752 c 0
 166.791670777 28.5407773261 161.48 22.0079424305 161.48 4.928 c 3
192.456 366.2 m 3
 146.530871091 366.2 122.92 322.60724 122.92 267.048 c 3
 122.92 167.916228939 183.104 115.504 241.936 94.872 c 1
 278.228829617 113.155390275 302.904 147.780942072 302.904 206.704 c 3
 302.904 281.455873376 271.45611776 366.2 192.456 366.2 c 3
70.368 -187.256 m 3
 70.368 -245.464047317 161.910209191 -254.024 216.424 -254.024 c 3
 247.339135909 -254.024 394.64 -230.14191647 394.64 -157.888 c 3
 394.64 -117.433836172 356.4480544 -98.12 306.816 -98.12 c 3
 279.227216 -98.12 250.652784 -104.68 223.064 -104.68 c 3
 194.9960768 -104.68 165.8887552 -102.2640104 149.256 -97.432 c 1
 87.8206823475 -123.096025546 70.368 -151.821341957 70.368 -187.256 c 3
EndSplineSet
Substitution2: "case-1" G
Substitution2: "pcap-1" g.pcap
Substitution2: "smcp-1" g.smcp
EndChar

StartChar: h
Encoding: 104 104 7
Width: 531
VWidth: 1159
Flags: HMW
LayerCount: 2
Fore
SplineSet
170.36 329.376 m 1
 168.516 290.028181818 166.048 238.032705962 166.048 189 c 3
 166.048 133.002896954 169.536076302 81.2374624169 172.92 60.864 c 0
 176.254168202 42.6646134321 193.97935275 36.4841113707 203.984 33.872 c 0
 211.618021231 31.9508726831 229.455157895 30.496 238.552 29.808 c 1
 234.864 -7.312 l 1
 193.452324324 -1.33591142355 162.885884191 3.688 117 3.688 c 3
 86.7075 3.688 50.3565 -1.312 20.064 -5.312 c 1
 17.376 28.936 l 1
 26.0471428571 30.5616 30.2045930001 30.4091246206 39.448 33 c 0
 62.2907010061 40.7978387832 73.4548950623 51.3944161859 78.072 84.424 c 0
 84.3265435116 134.234241106 88.256 211.765454546 88.256 274 c 3
 88.256 501.547686525 85.6363906878 591.734839384 84.32 611.96 c 0
 82.9610201875 633.27424992 75.24 651.944 55.328 651.944 c 3
 49.4617142857 651.944 29.9067428571 647.816 20.816 646.816 c 1
 12.816 681.624 l 1
 70.1542193548 692.718027397 136.313703226 721.581369863 183.728 755.248 c 1
 202.728 738 l 1
 196.995428571 724.672 190.926543265 698.852266891 189.352 688.496 c 0
 175.885333333 600.729010814 171.394666667 472.780071857 170.36 361 c 1
 224.534153846 395.83408 300.173538462 417.184 343.104 417.184 c 3
 410.635789474 417.184 449.067841596 372.757792726 451.488 301 c 0
 452.217419062 280.745352538 453.176 234.695238095 453.176 183 c 3
 453.176 128.481488372 452.176 75.8759069767 452.176 59.616 c 0
 452.176 42.4887272727 469.901171071 36.7793029839 479.928 34.496 c 0
 487.488560873 32.6889249227 512.265391304 31.496 521.248 30.12 c 1
 517.184 -7.312 l 1
 476.591925234 1.688 449.530542056 3.688 405.816 3.688 c 3
 373.944 3.688 343.1344 -1.312 315.512 -7.312 c 1
 313.76 28.496 l 1
 324.875555555 29.8096 330.21135418 29.9454492191 339.512 32.56 c 0
 361.297463253 38.8474268994 365.748544238 53.5987390509 370.072 87.856 c 0
 371.754698528 101.265030864 372.76 130.418749774 372.76 142.688 c 3
 372.76 189.977 371.013527712 259.251171592 367.136 280.256 c 0
 358.310405366 328.106854243 340.257302326 360.384 287.376 360.384 c 3
 235.189221737 360.384 198.165732284 345.492 170.36 329.376 c 1
EndSplineSet
Substitution2: "case-1" H
Substitution2: "pcap-1" h.pcap
Substitution2: "smcp-1" h.smcp
EndChar

StartChar: k
Encoding: 107 107 10
Width: 486
VWidth: 1159
UnlinkRmOvrlpSave: 1
Flags: HMW
LayerCount: 2
Fore
SplineSet
160.296 243.864 m 1
 188.443310345 265.006857143 231.364601668 295.063947828 256.328 320.824 c 0
 262.737561945 327.884353865 271.832 341.979555556 271.832 349.384 c 3
 271.832 369.386885449 253.358015803 368.747182663 239.08 370.256 c 1
 241.08 401 l 1
 269.753272727 399 308.351909091 399 338.128 399 c 3
 372.367333333 399 416.982222222 398.376 450.184 403 c 1
 452.184 368.504 l 1
 393.943164179 360.868 341.440106345 330.281597532 305.08 307.144 c 2
 220.928 254.064 l 1
 289.443663552 188.467783251 357.77775388 124.800866995 427.44 58.24 c 1
 441.568 44.176 479.420814238 30.2267894737 484.816 30.808 c 1
 482.128 -6.312 l 1
 446.096680851 -0.312 427.021276596 3.688 382.512 3.688 c 3
 351.494608696 3.688 318.409391304 -3.312 287.392 -5.312 c 1
 284.392 30.496 l 1
 316.090382979 35.106 316.090382979 39.2152 325.776 40.184 c 1
 278.878761403 91.1291428571 208.846187845 164.103358121 159.128 211.888 c 1
 162.92 214.624 l 1
 162.92 147.4196 164.384523058 81.6949538848 170.792 56.496 c 0
 173.416 43.68 184.169589649 39.679530289 191.792 35.496 c 0
 200.408756992 31.0046230815 209.222588235 30.184 221.424 29.496 c 1
 217.048 -7.936 l 1
 180.814736842 -1.59563636364 160.566736842 3.688 115.808 3.688 c 3
 84.1505 3.688 46.1615 -3.312 14.504 -5.312 c 1
 12.504 30.496 l 1
 22.646 31.0592 32.1497274618 32.1275125866 42.008 34.872 c 0
 65.9003159664 43.3953131172 72.2365603724 53.5843512576 76.192 87.856 c 0
 81.8853333333 136.74230303 86.44 212.894981649 86.44 274 c 3
 86.44 526.164545454 83.3608468348 584.307181736 81.192 615.392 c 0
 79.893 633.3888 72.099 649.136 50.016 649.136 c 3
 45.2487804878 649.136 24.1373658536 645.251428571 17.44 644.632 c 1
 9.44 679.752 l 1
 67.2342857143 690.940054795 132.808571429 720.042739726 180.6 754 c 1
 200.912 736.752 l 1
 195.179428571 723.592 188.937225862 698.167626907 187.536 687.872 c 0
 174.564571429 613.705853007 160.296 366.485363029 160.296 243.864 c 1
EndSplineSet
Substitution2: "case-1" K
Substitution2: "pcap-1" k.pcap
Substitution2: "smcp-1" k.smcp
EndChar

StartChar: l
Encoding: 108 108 11
Width: 248
VWidth: 1159
Flags: HMW
LayerCount: 2
Fore
SplineSet
166.864 300 m 3
 166.864 218.936 170.16512471 90.8307272514 177.232 56.808 c 0
 179.83855176 42.9009810711 197.527133381 36.3789555399 205.488 34.872 c 0
 218.368 31.496 234.496 30.808 246 30.12 c 1
 240.688 -7 l 1
 200.909248 -1 154.336941714 4 113.192 4 c 3
 81.2461122822 4 38.7578867924 -1 9.376 -5 c 1
 7.376 30.808 l 1
 17.3556756757 31.2464 31.7604698215 32.8156211203 40.944 36.12 c 0
 59.2573617021 43.2194285714 72.0100150088 55.3486864706 74.888 84.424 c 0
 80.473 134.211636364 83.824 211.765454546 83.824 274 c 3
 83.824 520.49675 82.4548422617 594.487543153 80.512 616.952 c 0
 79.5902486711 630.698355479 72.056 650.696 51.52 650.696 c 3
 45.4253123718 650.696 25.46048 646.724 17.008 646.192 c 1
 10.88 681.312 l 1
 67.9042064516 692.264986301 133.701367742 720.145315069 180.856 754 c 1
 199.856 737.688 l 1
 195.488 725.498714286 188.631382178 696.437424181 187.168 686 c 0
 173.9648 611 166.864 424 166.864 300 c 3
EndSplineSet
Substitution2: "case-1" L
Substitution2: "pcap-1" l.pcap
Substitution2: "smcp-1" l.smcp
EndChar

StartChar: m
Encoding: 109 109 12
Width: 791
VWidth: 1159
Flags: HMW
LayerCount: 2
Fore
SplineSet
706.496 158.192 m 3
 706.496 113.551102804 709.398987067 72.4802039988 710.432 58.68 c 0
 711.992 43.1043850267 727.881113333 37.2915241993 738.176 34.184 c 0
 745.679367918 32.130716828 771.216163265 31.184 779.688 29.184 c 1
 774.376 -7.936 l 1
 736.502666667 1.064 710.282666667 3.064 669.496 3.064 c 3
 636.010893617 3.064 593.596425532 -1.936 564.576 -7.936 c 1
 560.576 27.872 l 1
 570.39625 29.6224 580.039725616 29.6659257805 589.144 32.248 c 0
 602.92395628 36.1563406298 613.190913029 47.0712885343 616.272 69.136 c 0
 619.158323471 86.3792460165 626.08 132.587797014 626.08 158.288 c 3
 626.08 203.651085714 624.775803354 251.84717589 619.144 273.616 c 0
 609.259047257 317.220138673 594.182608696 345.824 537.128 345.824 c 3
 513.887099038 345.824 472.587657143 334.664923078 444.296 319.448 c 1
 445.296 313.587478261 445.296 307.709438877 445.296 300.192 c 3
 445.296 272.102624877 442.736 221.334857143 442.736 180.192 c 3
 442.736 128.38455814 445.810265673 74.6063321512 446.672 58.68 c 0
 447.608 43.7650909091 463.576086607 35.177799129 473.48 32.936 c 0
 480.769483412 31.297359375 494.022857143 30.248 502.24 28.872 c 1
 497.24 -7.936 l 1
 456.702989474 1.064 442.151242105 3.064 398.496 3.064 c 3
 366.967836735 3.064 322.828408163 -1.936 295.504 -7.936 c 1
 291.816 28.184 l 1
 301.955891892 29.56 313.228395426 29.8279064725 323.824 33.184 c 0
 339.008232558 37.9413333333 350.690035016 51.9191675751 354.008 76 c 0
 357.022 95.6508656715 362.32 133.001313433 362.32 158.288 c 3
 362.32 202.8325 358.387863283 264.849978757 354.072 287.872 c 0
 348.817549242 321.280215544 331.27210084 354.264 291.872 354.264 c 3
 251.7344 354.264 215.7296 331.901037226 186.848 313.072 c 1
 183.565333333 228.708124875 176.288 112.358592275 176.288 75.68 c 3
 176.288 45.8792 193.570267084 37.572829537 213.032 33.248 c 0
 220.155951126 31.6648997498 234.365052631 30.2464 241.984 29.496 c 1
 238.296 -7.936 l 1
 200.881297298 -2.56 166.580756757 3.064 122.928 3.064 c 3
 91.2705 3.064 53.2815 -1.936 21.624 -5.936 c 1
 18.936 30.184 l 1
 29.8134285714 32.3088 35.8659756895 32.3840230888 46.624 35.496 c 0
 66.4951262988 41.0527816402 80.7327613183 51.9529869132 86.688 75.376 c 0
 94.5872941177 105.201560976 95.936 164.767020138 95.936 196.192 c 3
 95.936 214.922027164 92.2739715965 279.098565057 86.312 298.328 c 0
 77.9229578574 324.974859898 67.8113835327 326.64 50.568 326.64 c 3
 40.5494545455 326.64 36.5032909091 325.952 29.504 325.952 c 1
 29.064 359.632 l 1
 71.6498064516 367.262 114.235612903 371.622 171.784 416.312 c 1
 192.472 398.816 l 1
 187.576 384.539718309 185.824 363.918422535 185.096 342.504 c 1
 232.499130435 374.609371429 287.48 415 344.36 415 c 3
 398.604645161 415 427.592368664 379.416716418 439.544 344.88 c 1
 477.334315789 368.755076923 532.56631579 401.312 605.24 401.312 c 3
 679.023925234 401.312 709.12 358.369586207 709.12 290.616 c 3
 709.12 250.153111111 706.496 203.559481481 706.496 158.192 c 3
EndSplineSet
Substitution2: "case-1" M
Substitution2: "pcap-1" m.pcap
Substitution2: "smcp-1" m.smcp
EndChar

StartChar: n
Encoding: 110 110 13
Width: 526
VWidth: 1159
Flags: HMW
LayerCount: 2
Fore
SplineSet
85.688 297.704 m 0
 76.5036640625 327.426671875 71.0228671875 330.072 52.128 330.072 c 3
 42.936640625 330.072 39.128 329.384 30.128 329.384 c 1
 28.752 362.128 l 1
 70.9655078125 369.422023437 113.178710937 373.58990625 170.224 416.312 c 1
 190.912 399.752 l 1
 186.735265625 385.412948063 184.064632813 366.702070092 182.288 343.192 c 1
 228.726149635 373.882132813 279.033928604 415.312 339.984 415.312 c 3
 407.965658106 415.312 449.872 375.659648437 449.872 303.064 c 3
 449.872 261.995814448 447.248 217.193745292 447.248 172.392 c 3
 447.248 122.284945313 448.355639896 74.0763549892 450.56 58.992 c 0
 453.184 42.1017833807 469.018954595 35.9856944161 476.808 34.184 c 0
 484.744335937 31.9795546875 504.505492187 31.7455390625 513.44 30.12 c 1
 509.688 -7.624 l 1
 469.018007813 1.1207734375 447.118570313 3.064 403.32 3.064 c 3
 372.563765625 3.064 328.479382813 -1.79406640625 301.824 -7.624 c 1
 299.696 28.808 l 1
 308.528453125 30.308921875 321.045639693 29.9222760592 330.208 32.56 c 0
 345.257695313 36.853125 357.70524837 47.7210143871 360.832 73.504 c 0
 363.026085937 91.9388867188 366.208 131.73996875 366.208 152.984 c 3
 366.208 196.907 363.044907401 263.156867433 360.896 280.76 c 0
 355.587214154 320.007083372 337.700230239 349.328 288.632 349.328 c 3
 246.78546875 349.328 210.86459375 335.589421875 183.104 320.256 c 1
 178.876734375 233.681522177 174.728 113.081564156 174.728 75.992 c 3
 174.728 45.7545087891 189.391138286 39.1649191566 206.48 34.808 c 0
 214.353265625 32.768390625 230.342039063 31.0575390625 238.864 30.12 c 1
 235.488 -7.312 l 1
 195.391734375 -1.65236363636 164.548664063 3.064 121.368 3.064 c 3
 90.2955 3.064 53.0085 -1.58933333333 21.936 -5.312 c 1
 19.872 30.496 l 1
 30.749515625 32.496 36.8971952516 32.4703244468 47.56 35.496 c 0
 67.31934375 40.9489249705 81.2429409143 52.9797327348 86.688 80.992 c 0
 92.5701015625 110.3564375 94.064 166.22121875 94.064 196.192 c 3
 94.064 214.818180099 92.3160279772 276.574196125 85.688 297.704 c 0
EndSplineSet
Substitution2: "case-1" N
Substitution2: "pcap-1" n.pcap
Substitution2: "smcp-1" n.smcp
EndChar

StartChar: o
Encoding: 111 111 14
Width: 505
VWidth: 1159
Flags: W
HStem: -11 43.68<208.675 328.676> 369.32 48.744<172.438 294.599>
VStem: 32 92.224<136.183 288.789> 380.024 92.976<108.821 272.843>
LayerCount: 2
Fore
SplineSet
257 418.064 m 3
 392 418.064 473 311.008747663 473 205.936 c 3
 473 78.3856852745 378.864899911 -11 255.688 -11 c 3
 130.862247795 -11 32 69.8768 32 191.192 c 3
 32 349.498127211 167 418.064 257 418.064 c 3
230.384 369.32 m 3
 165.702623723 369.32 124.224 307.488346737 124.224 235.112 c 3
 124.224 134.07688112 190.479380338 32.68 269.68 32.68 c 3
 339.281509619 32.68 380.024 101.247519366 380.024 174.448 c 3
 380.024 301.350540163 292.33801842 369.32 230.384 369.32 c 3
EndSplineSet
Substitution2: "case-1" O
Substitution2: "pcap-1" o.pcap
Substitution2: "smcp-1" o.smcp
EndChar

StartChar: p
Encoding: 112 112 15
Width: 513
VWidth: 1159
Flags: HMW
LayerCount: 2
Fore
SplineSet
90.872 28.192 m 3
 90.872 142.926630246 85 255.782592 80.376 274.592 c 1
 74.1626666667 303.906172021 57.1796670837 316.336 40.2 316.336 c 3
 31.1288393443 316.336 13.9685647059 310.144 5.688 310.144 c 1
 0 346.448 l 1
 40.0557605204 353.9095296 101.763305279 380.5572352 147.232 422.128 c 1
 163.522 418.960230002 166.416 416.829228438 168.728 361.192 c 1
 208.39576036 382.610158 263.746491892 409.128 309.872 409.128 c 3
 406.871891478 409.128 482.872 307.422313226 482.872 215.688 c 3
 482.872 77.4265524755 362.87198336 -10.936 245.872 -10.936 c 3
 219.763579636 -10.936 194.49756 -4.9364835915 172.6 -0.176 c 1
 172.6 -79.2747163283 172.48016672 -245.22970782 179.16 -280.88 c 0
 181.784 -295.126892387 201.314291151 -300.313278946 211.16 -301.192 c 0
 228.51085208 -302.411110654 249.9484288 -304.504 265.464 -305.816 c 1
 264.776 -342.936 l 1
 219.761576 -341.936 186.728433923 -339.936 139.984 -339.936 c 3
 106.1706424 -339.936 52.0693576 -344.936 18.256 -348.936 c 1
 15.568 -314.128 l 1
 27.14 -313.44 35.9117451691 -311.833836561 47.128 -309.128 c 0
 68.2017432 -303.0864 75.8118300166 -288.517218363 79.064 -260.384 c 0
 85.624 -209.858824 90.872 -120.468392 90.872 28.192 c 3
252.144 354.952 m 3
 207.435100869 354.952 185.796027826 338.574204 167.352 324.696 c 1
 171.224 69.304 l 1
 202.839515895 47.3614731672 238.287432306 35.368 285.232 35.368 c 3
 362.63377408 35.368 403.768 86.051859715 403.768 165.832 c 3
 403.768 263.230465288 343.520194485 354.952 252.144 354.952 c 3
EndSplineSet
Substitution2: "case-1" P
Substitution2: "pcap-1" p.pcap
Substitution2: "smcp-1" p.smcp
EndChar

StartChar: q
Encoding: 113 113 16
Width: 491
VWidth: 1159
Flags: HMW
LayerCount: 2
Fore
SplineSet
345.464 69.248 m 1
 347.394666667 151.326093617 350.152 197.719312214 350.152 278.904 c 3
 350.152 285.678620689 346.426760751 302.415669949 340.152 311.648 c 0
 314.455301305 348.456337681 266.752421053 359.016 225.528 359.016 c 3
 165.888408759 359.016 119.416 295.6472 119.416 225.608 c 3
 119.416 134.211756906 166.027584459 41.8 271.232 41.8 c 3
 317.34767647 41.8 337.772519608 58.8561399046 345.464 69.248 c 1
344.152 24.128 m 1
 314.5125 11.6256 268.706 -7.128 214.816 -7.128 c 3
 109.816 -7.128 29.816 89.9064421053 29.816 181 c 3
 29.816 304.718588236 148.816 409.256 289.816 409.256 c 3
 365.150844444 409.256 366.409244444 384.32 395.32 384.32 c 3
 416.620290727 384.32 427.847157895 406.958 435.192 414.504 c 1
 458.56 399.76 l 1
 456.333090909 394.055578947 452.588564934 381.488787537 449.248 372.752 c 0
 442.154924138 354.653473684 437.679725604 334.454073441 430.816 258.128 c 0
 428.661038214 234.308606947 429.816 133.088878613 429.816 93 c 3
 429.816 -124.334381503 435.374991753 -207.16457756 441.624 -242.704 c 0
 446.974293421 -273.287025234 462.659872216 -290.516926417 475.368 -291.448 c 0
 485.401256747 -292.243173093 507.368 -294.76 514.368 -294.76 c 1
 512.368 -334.504 l 1
 487.048484849 -333.504 449.619636364 -332.504 403.384 -332.504 c 3
 369.772661417 -332.504 294.707338583 -337.504 261.096 -341.504 c 1
 259.408 -307.008 l 1
 270.052965517 -306.086 276.973554875 -305.755604183 287.472 -303.32 c 0
 310.671112245 -297.999714286 334.155116255 -278.269740162 338.904 -249.704 c 0
 343.720564001 -219.90595164 344.152 -86.9367272727 344.152 24.128 c 1
EndSplineSet
Substitution2: "case-1" Q
Substitution2: "pcap-1" q.pcap
Substitution2: "smcp-1" q.smcp
EndChar

StartChar: r
Encoding: 114 114 17
Width: 358
VWidth: 1159
UnlinkRmOvrlpSave: 1
Flags: HMW
LayerCount: 2
Fore
SplineSet
171.544 191.32 m 0
 171.921684211 154.9395 176.185781647 68.3480950997 184.912 56.992 c 0
 198.019784203 41.8883568706 211.483886423 37.382037083 247.84 35.248 c 0
 262.025692692 34.3299289069 278.083 34.56 290.536 33.56 c 1
 289.224 -0.936 l 1
 245.770352941 0.064 165.548235294 3.064 118.752 3.064 c 3
 87.296 3.064 55.84 -1.936 24.384 -5.936 c 1
 23.008 29.872 l 1
 34.866 30.7828571429 47.1087230914 31.0580191134 57.504 35.496 c 0
 67.8805517241 39.808 81.048336182 54.6162621568 83.88 80.992 c 0
 86.504 104.289183099 88.504 189.117902052 88.504 213.32 c 3
 88.504 230.763855421 87.0768119257 264.986892614 84.192 285.712 c 0
 81.1673469388 303.931517033 70.4168049049 324.896 53.264 324.896 c 3
 42.4848878336 324.896 31.32 320.08 22.008 320.08 c 1
 17.256 353.76 l 1
 58.8036363636 360.873454546 118.317818182 392.375896104 165.48 432.008 c 1
 175.133333333 426.2792 182.04 425.7272 182.04 411.072 c 3
 182.04 399.987259259 179.104 367.740740741 177.856 329.448 c 1
 189.803294118 342.312 286.432 411.392 294 416.448 c 1
 314.081018182 416.136 351.496 385.254254546 351.496 353.336 c 3
 351.496 312.664 320.624 287.296 269.456 287.296 c 1
 262.783008264 320.745890909 247.218910466 325.536 235.144 325.536 c 3
 221.6055281 325.536 178.269354932 304.720442305 176.856 285.824 c 0
 172.856 249.66226506 171.35148396 207.883133336 171.544 191.32 c 0
EndSplineSet
Substitution2: "smcp-1" r.smcp
Substitution2: "pcap-1" r.pcap
Substitution2: "case-1" R
EndChar

StartChar: s
Encoding: 115 115 18
Width: 352
VWidth: 1159
Flags: HMW
LayerCount: 2
Fore
SplineSet
53.064 130.304 m 1
 79.882621625 61.2615419034 137.026471875 32.872 178.624 32.872 c 1
 211.18346875 32.872 239.392 49.8241953125 239.392 81.944 c 1
 239.392 130.944021764 191.56628125 155.14525558 159.952 171.944 c 0
 114.582149579 194.850421258 48.376 213.515160773 48.376 285.504 c 1
 48.376 345.262008197 114.901333333 408 193.624 408 c 1
 227.171821711 408 257.669754852 402.312 289.184 396.624 c 1
 289.184 396.624 297.760164063 336.679041667 303.12 297.072 c 1
 287.808 291.136 l 1
 260.161263158 322.914315789 219.825701891 366.256 175.312 366.256 c 1
 147.79334375 366.256 125.92 348.115460937 125.92 320.304 c 1
 125.92 298.813493566 141.983726563 273.935901769 205.984 248.808 c 0
 281.879896739 221.108742187 319.872 167.309195313 319.872 113.304 c 1
 319.872 30.9205861761 221.943148437 -9.936 153.624 -9.936 c 1
 106.824403646 -9.936 69.4054739583 0.2404296875 33.312 13.192 c 1
 36.688 27.192 38.376 41.2044921875 38.376 56.192 c 1
 38.376 70.0958894013 36.1977578125 110.648110599 30.752 124.552 c 1
 53.064 130.304 l 1
EndSplineSet
Substitution2: "case-1" S
Substitution2: "pcap-1" s.pcap
Substitution2: "smcp-1" s.smcp
EndChar

StartChar: t
Encoding: 116 116 19
Width: 341
VWidth: 1159
Flags: HMW
LayerCount: 2
Fore
SplineSet
9.632 365.632 m 1
 62.3507578125 403.244921875 116.917914063 443.242953125 154.04 482.368 c 1
 171.224 478.432 l 1
 166.496101563 451.15109375 167.015898437 428.067320313 164.912 398.688 c 1
 211.674085937 401.312 266.853914063 400 313.616 402.624 c 1
 308.368 348.448 l 1
 261.823460937 348.448 207.832539063 351.072 161.288 352.384 c 1
 156.9175 293.105918793 157.536 232.374780246 157.536 108.248 c 3
 157.536 77.32290625 169.4080625 45.488 222.912 45.488 c 3
 259.773140625 45.488 283.3996875 58.7464375 312.432 71.184 c 1
 312.432 71.184 316.248 60.368 322.808 47.248 c 1
 284.4375 21.6907265625 219.8135 -10 161.248 -10 c 3
 141.248 -10 69.248 -0.174890625 69.248 95.128 c 3
 69.248 193.56809812 73.456 254.600716598 75.56 351.072 c 1
 75.56 351.072 37.4948216712 347.136 13.568 347.136 c 1
 9.632 365.632 l 1
EndSplineSet
Substitution2: "case-1" T
Substitution2: "pcap-1" t.pcap
Substitution2: "smcp-1" t.smcp
EndChar

StartChar: u
Encoding: 117 117 20
Width: 506
VWidth: 1159
Flags: HMW
LayerCount: 2
Fore
SplineSet
272.456 368.688 m 1
 331.892942489 379.055058823 393.572469466 392.532235294 439.552 403.936 c 1
 448.68 387.312 l 1
 431.106144 342.927616 421.064 173.459968 421.064 135.128 c 3
 421.064 108.849445783 424.335523695 84.0232104703 427.064 62.424 c 0
 428.479191017 53.0800679377 432.299950464 45.672 443.872 45.672 c 3
 447.84704 45.672 474.3088 51.424 493.56 56.112 c 1
 497.064 21.68 l 1
 457.090738808 12.9515417576 405.626333075 -1.8419217109 371.592 -15.064 c 0
 365.445741137 -17.5160844555 364.092 -19.504 356.592 -19.504 c 3
 341.520816842 -19.504 342.144816842 2.21772972973 337.088 53.56 c 1
 299.721725772 36.3622857143 229.547172051 -11 176.688 -11 c 3
 138.3015724 -11 100.291231878 5.5759149632 83.752 44.624 c 0
 73.3955 68.9936969697 68.688 94.3381818182 68.688 141.128 c 3
 68.688 193.284923077 71.688 255.795480916 71.688 301.392 c 0
 71.688 310.56 66.4711223876 321.328 53.32 321.328 c 3
 40.512 321.328 22.3199973333 313.072 16.32 311.696 c 1
 7.256 345.192 l 1
 49.9526048719 352.933469767 118.049568385 393.131534555 167.032 422.312 c 1
 183.16 404.128 l 1
 166.377123273 334.223451429 159.664 252.335003428 159.664 175.44 c 3
 159.664 110.602582487 174.313229298 53.984 238.176 53.984 c 3
 271.782093969 53.984 311.00310067 74.5834952727 336.088 88.744 c 1
 337.4 160.061480645 344.272 278.931531397 344.272 286.768 c 3
 344.272 328.6596736 317.161939394 332.944 277.896 334.88 c 1
 272.456 368.688 l 1
EndSplineSet
Substitution2: "case-1" U
Substitution2: "pcap-1" u.pcap
Substitution2: "smcp-1" u.smcp
EndChar

StartChar: v
Encoding: 118 118 21
Width: 418
VWidth: 1159
Flags: HMW
LayerCount: 2
Fore
SplineSet
419 381.504 m 1
 380.936 357.203625 382.703272031 357.316809919 360 312.2 c 0
 330.322758621 252.786096257 305.32578137 192.947706465 273.936 133 c 0
 251.075162113 89.4524552103 222.613333333 38 211.56 -20 c 1
 176.192 -20 l 1
 150.358528 107.894285714 96.2298321711 241.530410539 52.192 340.88 c 0
 47.6696396669 351.082580683 40.7917720589 360.828675263 31.504 363.88 c 0
 23.2361879732 366.869487471 12.1948387097 371.850666667 3 374.128 c 1
 6 405 l 1
 31.0127804878 401 70.1632195122 400 95.176 400 c 3
 128.899269565 400 177.500452174 405 209.24 411 c 1
 214.24 376.504 l 1
 201.325963636 371.677333333 169.848 367.816 169.848 367.816 c 1
 161.515976238 365.788562376 157.912 359.989004174 157.912 349.952 c 3
 157.912 343.539418523 160.953887798 330.691375554 163.344809535 320.84800059 c 0
 174.777030334 260.773695364 209.789269939 178.28331411 231.8 122.152 c 1
 265.10079892 181.496030166 290.902044379 235.071295059 311.596976563 306.272 c 0
 314.269773667 315.309497515 317.632 325.005092744 317.632 335.76 c 3
 317.632 356.752 307.195724138 369.728 262.44 378.504 c 1
 270.44 412 l 1
 300.672380952 405 314.325714286 404 331.88 404 c 3
 357.906315789 404 389.137894737 409 411 415 c 1
 419 381.504 l 1
EndSplineSet
Substitution2: "case-1" V
Substitution2: "pcap-1" v.pcap
Substitution2: "smcp-1" v.smcp
EndChar

StartChar: w
Encoding: 119 119 22
Width: 657
VWidth: 1159
Flags: HMW
LayerCount: 2
Fore
SplineSet
659 381.816 m 1
 615.7412 357.53025 615.199944448 357.851340004 592.448 309.704 c 0
 564.741014205 251.510647772 526.416875949 191.725616438 498.248 133 c 0
 477.221688019 88.891313742 451.201892473 38 440.928 -20 c 1
 406.808 -20 l 1
 387.204481928 80.0418648649 356.012598967 185.036297297 321.312 273.192 c 1
 298.287522388 225.401454545 276.421219381 179.105336596 251.192 130.816 c 0
 228.927034374 88.0328569624 200.632 37.4840784314 191 -20 c 1
 150.632 -20 l 1
 146.752470588 97.8988571428 96.1316096788 245.037179185 53.624 343.688 c 0
 49.4269540404 353.430277925 43.9422814528 361.224354863 32 365.128 c 0
 23.1658390106 367.835993176 12 372.816380952 2 374.44 c 1
 5 405 l 1
 31.3254634146 401 72.5305365854 400 98.856 400 c 3
 131.938 400 168.912 401.844 200.048 407.376 c 1
 204.048 372.88 l 1
 192.111255814 368.66 172.980383872 367.917238512 171.968 367.816 c 0
 163.593123035 366.772111866 158.784 360.859186875 158.784 349.328 c 3
 158.784 342.973862851 160.409381796 330.555372696 162.1552353 321.160000505 c 0
 172.229071632 263.019008509 195.460835168 192.734258061 217.36 138.336 c 1
 249.18848 196.351346939 276.24 246.608 303.632 310.624 c 1
 298.966285714 319.908 294.946359851 331.037599141 290.568 339.32 c 0
 285.6021006 348.480492527 280.071875702 359.763721501 270.256 364.192 c 0
 262.783918966 367.09925102 251.4735 372.162666667 242.936 374.44 c 1
 245.936 405 l 1
 269.999111111 401 306.616888889 400 330.68 400 c 3
 364.495513043 400 413.229634783 404.574545454 445.056 410.064 c 1
 450.056 375.568 l 1
 437.635169811 371.088 408.912 367.504 408.912 367.504 c 0
 402.276 366.504 397.536 365.504 397.536 356.504 c 3
 397.536 355.504 398.532380622 345.57582477 399.224 340.504 c 0
 408.4355 277.252641975 434.007125 185.49362963 458.544 124.024 c 1
 490.228 180.232 519.958528725 241.287436654 545.392 310.016 c 0
 547.87939223 317.185695865 548.832 323.016 548.832 332.016 c 3
 548.832 357.888 538.793960605 367.90425 494.2 377.88 c 1
 503.136 411.064 l 1
 531.16 404.883 545.624 404 561.896 404 c 3
 591.323027027 404 624.281297297 409 649 415 c 1
 659 381.816 l 1
EndSplineSet
Substitution2: "case-1" W
Substitution2: "pcap-1" w.pcap
Substitution2: "smcp-1" w.smcp
EndChar

StartChar: x
Encoding: 120 120 23
Width: 435
VWidth: 1159
Flags: W
HStem: -6 30.56<10.3128 46.8525 123.162 163.938 224.912 260.209 366.407 423.926> 368.192 35.808<19 91.1022 182.308 205.508> 376.192 28.808<263 299.533>
LayerCount: 2
Fore
SplineSet
8 24.56 m 1xc0
 38 32.6994782609 48.0818983009 38.1974441232 60 51.304 c 2
 184.696 196.568 l 1
 117.504 313.328 l 2
 89.6936395497 360.354149613 79.1301157025 369.128 19 368.192 c 1
 19 404 l 1xc0
 36 403 69 401 86 401 c 0
 124 401 169 403 205 407 c 1
 209 372.504 l 1
 187.12 373.403725511 182.304 368.422657684 182.304 363.504 c 3
 182.304 361.426 182.971079206 357.138721361 183.992 355.192 c 2
 236.432 252.616 l 1
 287.512 318.448 l 2
 293.092440247 325.361969245 304.576 336.1168 304.576 347.824 c 3
 304.576 373.828 273.88 370.44 258.064 376.192 c 1
 263 405 l 1xa0
 279 404 306 404 322 404 c 0
 352 404 399 406 420 407 c 1
 423 381.688 l 1
 390.387428571 369.368347826 364.70845414 343.440850412 349.88 327.888 c 0
 318.468288599 293.430212986 286.872 259.125333333 255.368 224.744 c 1
 286.551448276 169.618666667 314.514308352 116.146806503 345.8 59.368 c 0
 361.565548404 31.9096174339 385.533110505 34.1255 427 24.248 c 1
 423 -5 l 1
 396 -1 346 2 318 2 c 0
 289.659818182 2 258.170727273 -1 225.632 -5 c 1
 222.632 23.184 l 1
 258.008 27.0668571429 261.448 27.4068571429 261.448 36.248 c 3
 261.448 39.5851428571 259.711605099 46.2997745165 258.888 47.928 c 2
 201.32 166.384 l 1
 126.304 67.304 l 2
 122.400481518 62.2344927141 119.304 57.304 119.304 52.304 c 3
 119.304 35.2692173913 129.267924528 32.3739130435 167.312 26.184 c 1
 163 -6 l 1
 141 -4 111 -1 88 -1 c 0
 63 -1 34 -4 11 -6 c 1
 8 24.56 l 1xc0
EndSplineSet
Substitution2: "case-1" X
Substitution2: "pcap-1" x.pcap
Substitution2: "smcp-1" x.smcp
EndChar

StartChar: y
Encoding: 121 121 24
Width: 446
VWidth: 1159
Flags: HMW
LayerCount: 2
Fore
SplineSet
123.608 -346 m 1
 119.198819672 -346 98.2552131146 -343 56.368 -343 c 3
 24.9155862069 -343 17.5766896552 -345 -4.44 -346 c 1
 -4.44 -346 -3.44 -326.856888889 -5.44 -313.696 c 1
 87.1739354839 -274.256909091 73.6340645161 -242.846181818 169.136 -38.552 c 1
 146.226076393 86.5359295495 88.0352222346 291.438835644 59.7687109375 338.64 c 0
 51.384842378 353.507635959 45.8329014781 362.383110794 33.88 368.44 c 0
 25.7911038855 370.484571429 14.9935483871 372.957142857 6 374.128 c 1
 10 406 l 1
 34.6832592593 402 72.2447407407 400 96.928 400 c 3
 134.313531915 400 165.101617021 401.133714286 200.288 407.936 c 1
 204.288 377.44 l 1
 203.04 377.128 179.438180778 370.788245589 177.84 370 c 0
 167.747160377 366.709387321 164.344 354.428872169 164.344 342.464 c 3
 164.344 338.75825475 166.024347132 330.925126917 166.918046875 324.16 c 0
 176.268782741 255.625541194 202.916651682 153.667294315 232.552 81.536 c 1
 277.758 144.511049562 316.20324396 235.906933949 336.384 311.2 c 0
 338.220521248 318.871231738 340.76 329.368438806 340.76 338.696 c 3
 340.76 358.211128681 334.572651163 366.150068966 268.816 378.816 c 1
 274.816 411 l 1
 305.080086957 404 347.059304348 400 364.632 400 c 3
 390.896864865 400 420.313513514 402 442.376 408 c 1
 447.376 376.128 l 1
 412.130074074 366.323661017 402.548659209 359.169128298 382.376 312.76 c 0
 367.064 278.2211 284.602488814 115.105092152 222.376 -12.312 c 0
 188.048 -79.904 125.48 -271.64 123.608 -346 c 1
EndSplineSet
Substitution2: "case-1" Y
Substitution2: "pcap-1" y.pcap
Substitution2: "smcp-1" y.smcp
EndChar

StartChar: z
Encoding: 122 122 25
Width: 453
VWidth: 1159
Flags: HMW
LayerCount: 2
Fore
SplineSet
337.84 0.624 m 2
 171.248 0.624 l 2
 144.368382378 0.624 50.7834893617 -4.624 30.872 -12.496 c 1
 19.816 19.376 l 1
 118.672683706 122.851011764 214.415677859 241.3952 291.224 360.944 c 1
 276.7044361 362.770184608 259.835437921 363.568 242.448 363.568 c 3
 196.849043478 363.568 156.588844384 362.527388349 112.248 357.008 c 0
 75.4527641717 351.387234673 50.312 326.302814815 41.56 299.88 c 1
 14.936 309.44 l 1
 50 421.68 l 1
 72.7740327869 408.744 101.347803279 399.376 234.248 399.376 c 3
 326.852294737 399.376 402.344926316 399 425.496 407.248 c 1
 435.496 386.936 l 1
 342.592861706 272.926102857 232.526955072 157.907268571 161.024 33.808 c 1
 278.944 35.12 l 2
 311.178764652 35.509527309 337.951764779 41.0371191132 362.064 54.864 c 0
 379.167758873 64.8266808943 393.237555331 77.3708488103 403.688 99.112 c 0
 408.194842686 108.900228651 411.907636364 119.202 415.624 133.552 c 1
 440.248 125.552 l 1
 406.496 -12.496 l 1
 398.239696884 -8.5003958571 382.029458419 0.624 337.84 0.624 c 2
EndSplineSet
Substitution2: "case-1" Z
Substitution2: "pcap-1" z.pcap
Substitution2: "smcp-1" z.smcp
EndChar

StartChar: A
Encoding: 65 65 26
Width: 705
VWidth: 1159
Flags: HMW
LayerCount: 2
Fore
SplineSet
241.660195313 279.848375 m 1
 286.163984375 273.335601563 386.133367187 274.757289063 430.46525 275.19390625 c 1
 396.232695313 363.95459375 372.498046875 416.2874375 332.06840625 505.424140625 c 1
 294.386453125 415.106484375 273.687085937 359.839710937 241.660195313 279.848375 c 1
449.856 -9.6816015625 m 1
 449.856 -9.6816015625 441.984 11.4104296875 436.736 30.7150546875 c 1
 479.830742187 40.8283984375 507.811210937 54.8515078125 498.343804687 83.5650859373 c 0
 479.067390625 139.517054687 467.246515625 166.949515625 448.464 221.024 c 1
 393.177515625 234.303046875 303.485445313 239.95875 223.808 232.208 c 1
 201.841148437 179.220351563 183.781398437 149.6715 167.7450625 96.8337890627 c 0
 157.912 60.5918671875 186.710523437 33.8929765625 254.004 36.35828125 c 1
 251.38 -10.3537421875 l 1
 215.065889913 -3.44911079498 156.124229021 0.469414904198 102.887795916 0.469414904198 c 3
 70.3416411876 0.469414904198 39.7741867874 -1.1606082132 17.624 -4.6602734375 c 1
 17.624 -4.6602734375 13.8735390625 19.79646875 12.936 37.35034375 c 1
 67.921890625 51.1160390625 91.416109375 69.72496875 100.201945313 88.5894453127 c 0
 190.267789063 294.961515625 265.332429687 468.631039063 332.608796875 638.345851563 c 0
 344.51378125 668.569921875 343.294375 677.561570313 345.774289063 711.688 c 1
 395.70075 711.688 l 1
 399.493882813 684.685257813 395.85065625 671.9641875 406.803171875 640.417148437 c 0
 475.514101563 421.365867187 517.066546875 290.294492187 623.074101563 67.8661484375 c 0
 636.330023437 40.0733671875 667.69890625 36.3281171875 691.376 35.339984375 c 1
 691.376 35.339984375 690.064 11.4061015625 688.752 -4.3378984375 c 1
 657.858839402 -0.473203242291 620.833980979 1.79039724596 583.751171711 1.79039724596 c 3
 533.537133101 1.79039724596 483.106920052 -1.60872548592 449.856 -9.6816015625 c 1
EndSplineSet
Position2: "cpsp-1" dx=0 dy=0 dh=50 dv=100
Substitution2: "c2pc-1" a.pcap
Substitution2: "c2sc-1" a.smcp
EndChar

StartChar: B
Encoding: 66 66 27
Width: 584
VWidth: 1159
Flags: HMW
LayerCount: 2
Fore
SplineSet
12.752 37.432 m 1
 53.78 38.808 100.68 39.4652387601 102.056 77.992 c 0
 102.056 82.8495302499 105.992 178.057261983 105.992 290.752 c 3
 105.992 456.149661535 96.8749344551 602.285465043 95.496 605.888 c 0
 94.2832727272 610.847328 90.134292046 633.268240024 69.248 639.448 c 0
 61.867323721 641.915376 17.245 649.5712 9.816 650.696 c 1
 17.752 693.376 l 1
 27.9897055515 693.376 70.2616239228 683.064 125.248 683.064 c 3
 179.466759006 683.064 235.807079761 693.064 286.992 693.064 c 3
 445.693083043 693.064 487.672 578.297679687 487.672 518.936 c 3
 487.672 448.50028125 439.25759375 404.133726563 345.048 369.229429687 c 1
 462.180023437 360.347085937 553.992 273.470295738 553.992 179.752 c 3
 553.992 69.3136 451.991887229 -4.312 292.992 -4.312 c 3
 238.438147722 -4.312 187.475627691 1.49072592427 129.248 1.688 c 3
 69.0871936001 1.688 23.2017364114 -2.312 16.064 -2.312 c 1
 12.752 37.432 l 1
286.992 380.688 m 0
 345.634078174 390.291499572 381.448 437.348 381.448 494.008 c 3
 381.448 549.79809375 356.24090625 647.384 273.36 647.384 c 3
 262.485179687 647.384 241.71461377 646.56915666 233.784 644.32 c 0
 217.247730333 640.319847111 214.216240986 621.696258316 213.152 605.888 c 0
 205.25099502 505.259405613 205.776 378.688 205.776 378.688 c 1
 273.045967429 378.688 278.801671694 379.702227059 286.992 380.688 c 0
262.992 346.816 m 0
 203.152 346.816 l 1
 204.464 253.046006315 205.094339384 161.211145634 207.088 104.736 c 0
 208.216919097 68.0977941355 212.721486084 48.2594538217 237.84 43.184 c 0
 246.078778462 41.6299518196 283.3066528 38.056 304.8 38.056 c 3
 385.40942506 38.056 443.4 84.9326434655 443.4 175.816 c 3
 443.4 259.815923279 391.342130581 346.816 262.992 346.816 c 0
EndSplineSet
Position2: "cpsp-1" dx=0 dy=0 dh=50 dv=100
Substitution2: "c2pc-1" b.pcap
Substitution2: "c2sc-1" b.smcp
EndChar

StartChar: C
Encoding: 67 67 28
Width: 743
VWidth: 1159
Flags: W
HStem: -9.312 47.616<355.435 544.225> 652.136 44.992<322.345 534.89> 660.496 20G<662.868 701.128>
VStem: 40.816 127.648<242.717 464.898> 628.008 35.808<514.373 566.467> 671.752 27.936<168.076 180.003>
LayerCount: 2
Fore
SplineSet
40.816 345.816 m 3xdc
 40.816 515.740519537 163.567945878 697.128 444.816 697.128 c 3xdc
 508.055927 697.128 544.285188393 691.612273581 603.936 673.944 c 0
 645.547718264 662.175807768 653.792765714 676.6504 671.944 680.496 c 1xbc
 701.128 665.872 l 1
 662.807567568 605.368644113 663.816 568.058023787 663.816 545.873539063 c 0
 663.816 519.633539063 669.992 510.449539063 628.008 510.449539063 c 1
 614.726136986 539.126342903 618.310792602 576.261531596 582.896 602.705539063 c 0
 532.815133255 637.621602063 489.795187256 652.136 426.448 652.136 c 3
 283.872292653 652.136 168.464 553.000976327 168.464 372.056 c 3
 168.464 165.826981333 310.390082904 38.304 454.184 38.304 c 3
 549.560996984 38.304 622.272 104.288 671.752 187.168 c 1
 699.688 177.608 l 1
 690.300713043 126.5754 681.956495652 98.3446 669.44 47.312 c 1
 606.27116 15.966581056 525.633162353 -9.312 435.816 -9.312 c 3
 215.815853368 -9.312 40.816 138.906624 40.816 345.816 c 3xdc
EndSplineSet
Position2: "cpsp-1" dx=0 dy=0 dh=50 dv=100
Substitution2: "c2pc-1" c.pcap
Substitution2: "c2sc-1" c.smcp
EndChar

StartChar: D
Encoding: 68 68 29
Width: 792
VWidth: 1159
Flags: W
HStem: -8.128 42.368<14.752 84.4038> -5.128 50.24<217.467 459.455> 654.944 41.368<214.59 439.511> 668.312 20G<12.1213 35.2757>
VStem: 100.977 100.251<62.0538 528.975> 638.464 115.84<220.089 461.376>
LayerCount: 2
Fore
SplineSet
331.24 45.112 m 1x6c
 520.159429687 45.112 638.464 156.539851563 638.464 338.128 c 3
 638.464 529.639210937 512.417195313 654.944 312 654.944 c 3
 284.49521875 654.944 265.60971875 651.122835937 236.172 647.408921875 c 0
 208.64 642.816 203.428 613.240921875 203.428 599.480921875 c 0
 201.556 487.572784255 201.227705298 378.358211677 201.227705298 270.955550289 c 3
 201.227705298 215.545606648 201.979102764 159.159647236 204.896 100.352 c 0
 204.896 82.352 212.697875 60.3030078125 239.952 54.424 c 0
 265.503882813 49.3310703125 294.728273437 45.112 331.24 45.112 c 1x6c
12.688 688.312 m 25x9c
 57.86346875 685.688 84.12853125 680.44 129.304 680.44 c 19
 216.293335937 680.44 264.3161875 696.312 351.304 696.312 c 3
 563.30953125 696.312 754.304 562.769929688 754.304 351.248 c 3
 754.304 71.7218515625 527.788820313 -5.128 327.304 -5.128 c 3x6c
 253.304 -5.128 210.2723125 3.744 136.304 3.744 c 3
 58.6901015625 3.744 46.2169375 -2.192 14.752 -8.128 c 9
 13.064 34.24 l 1
 46.42 38.9709453125 92.237578125 39.6095859375 94.304 75.048 c 1
 99.1333104067 131.015765655 100.97687389 196.107459212 100.97687389 262.980773969 c 3
 100.97687389 402.345843862 94.919945634 545.657069923 87.432 609.696 c 1
 85.1111640625 641.991 59.54 642.7270625 11.376 642.008 c 9
 12.688 688.312 l 25x9c
EndSplineSet
Position2: "cpsp-1" dx=0 dy=0 dh=50 dv=100
Substitution2: "c2pc-1" d.pcap
Substitution2: "c2sc-1" d.smcp
EndChar

StartChar: E
Encoding: 69 69 30
Width: 619
VWidth: 1159
Flags: W
HStem: -9.936 35.936<24.185 64.996> 5.89965 41.8634<245.113 456.744> 332.064 39.744<198.024 404.192> 637.742 41.4095<219.14 474.594> 652.568 33.184<17.624 74.8082>
VStem: 102.897 95.1266<82.8139 332.064 371.808 618.381> 468.496 39.744<242.21 299.411 401.63 447.236> 510.744 33.744<531.008 607.196> 571.992 29.56<163.321 178.284>
LayerCount: 2
Fore
SplineSet
17.624 685.752 m 1xaf80
 112.771587966 680.970856564 187.316009251 679.151598109 269.734256652 679.151598109 c 3
 418.476627979 679.151598109 527.559338558 684.684746999 549.24 689.688 c 1
 561.010782211 679.425965956 565.203804773 674.083962927 565.203804773 665.592427296 c 3
 565.203804773 649.627275774 551.667852697 622.53836173 544.488 531.008 c 1
 510.744 527.072 l 1
 502.552 556.832 513.904300807 603.151270001 483.992 614.52 c 0
 445.366532128 630.116685987 383.249983889 637.742050537 323.971392999 637.742050537 c 3
 293.151468671 637.742050537 263.101468292 635.668991899 237.528 631.576 c 0
 222.857625 629.59184375 211.034457543 607.247349821 210.208 593.832 c 0
 204.96 519.275835937 199.336 441.176054687 198.024 371.808 c 1
 253.55003125 374.432 399.85491169 374.409342816 412 375.744 c 0
 449.74221875 382.3454375 458.836 420.378460937 473.12 455.112 c 1
 510.24 445.928 l 1
 502.040868671 413.245497316 498.726574214 380.809563499 498.726574214 348.382342047 c 3
 498.726574214 313.574882389 502.545409885 278.777302003 508.24 243.696 c 1
 468.496 231.888 l 1
 448.028 300.298460937 453.925131911 317.336229227 412 325.504 c 0
 373.825625 332.064 278.71096875 330.752 198.024 332.064 c 1
 196.712 241.791429687 202.271757675 156.150048597 215.52 94.728 c 0
 219.562960937 78.937609375 231.229563266 59.9467942663 243.336 58.984 c 0
 281.317780999 51.6141945808 315.322295613 47.7630394091 348.905487502 47.7630394091 c 1
 382.942416429 47.7630394091 423.642203081 54.66674807 458.376 68.92 c 0
 516.709953125 93.8702578127 529.144101563 116.5634375 571.992 183.864 c 1
 601.552 176.552 l 1
 582.983789063 102.964976563 574.215929687 66.6029140625 561.928 1.872 c 1
 424.476848074 1.15625775366 342.465929086 5.89964533313 252.010071135 5.89964533313 c 3x7780
 166.045026181 5.89964533313 103.364362828 2.59708320676 26.376 -9.936 c 1
 15.128 26 l 1
 69.493 38.4673634375 99.24 56.7764090625 99.24 86.984 c 1
 101.598855147 132.562558447 102.89743557 200.021249663 102.89743557 297.230603154 c 3
 102.89743557 425.115522642 100.786766823 545.667756517 96.616 606.576 c 0
 95.304 634.67653125 85.09871875 634.679273437 11.064 652.568 c 1
 17.624 685.752 l 1xaf80
EndSplineSet
Position2: "cpsp-1" dx=0 dy=0 dh=50 dv=100
Substitution2: "c2pc-1" e.pcap
Substitution2: "c2sc-1" e.smcp
EndChar

StartChar: F
Encoding: 70 70 31
Width: 566
VWidth: 1159
Flags: W
HStem: -8.376 38.744<28.4831 78.7353> 325.448 43.68<206.592 411.077> 652.752 33.184<15.752 74.0655> 683.12 20G<520.88 531.053>
VStem: 107.293 97.9866<77.8651 325.448 369.128 631.399> 441.016 40.68<229.754 288.802> 501.184 33.184<514.656 566.329>
LayerCount: 2
Fore
SplineSet
345.016 -9.752 m 1xde
 288.616 -2.518265625 246.7 0.7546015625 202.806 0.7546015625 c 1
 154.856 0.7546015625 104.616 -2.830265625 30.008 -8.376 c 1
 21.568 30.368 l 1
 73.32 37.872 105.184 58.984 105.184 88.544 c 1
 106.64631234 110.29751254 107.293373857 156.993826231 107.293373857 214.067560075 c 3
 107.293373857 350.592135353 103.675330813 547.15380571 101.248 604.264 c 0
 99.936 634.696 82.816 634.696 11.064 652.752 c 1
 15.752 685.936 l 1xee
 71.7674136637 682.454823434 135.375300333 680.982588554 198.045126713 680.982588554 c 3
 360.992468896 680.982588554 517.896823596 691.001764849 523.864 703.12 c 1
 538.242927213 693.065101639 542.992 687.68 542.992 664.808 c 1
 542.992 639.376 537.08827541 599.2457259 534.368 514.656 c 1
 501.184 510.72 l 1
 488.624 537.36 487.141703125 597.91684375 452.568 614.08 c 0
 396.432 638.32 307.679953125 645.016734375 234.712 636.008 c 0
 214.84 633.384 211.452078125 611.08403125 210.528 595.264 c 0
 205.28 516.76 206.592 441.944 206.592 369.128 c 1
 259.048 371.752 367.086484375 367.522640625 378.84 369.128 c 0
 418.336 375.688 426.52 410.112 441.896 453.8 c 1
 479.952 447.424 l 1
 472.439024921 414.643387941 469.222839839 382.334813499 469.222839839 349.719904547 c 1
 469.222839839 310.566382389 473.722042698 271.107387941 481.696 231.464 c 1
 441.016 221.528 l 1
 419.456 297.208 423.22496875 307.263859375 378.84 318.888 c 0
 342.64 325.448 281.744 324.136 205.28 325.448 c 1
 210.592 218.064 203.965390625 141.52559375 222.648 86.616 c 0
 226.648 73.048 244.944 42.312 349.768 42.312 c 1
 345.016 -9.752 l 1xde
EndSplineSet
Position2: "cpsp-1" dx=0 dy=0 dh=50 dv=100
Substitution2: "c2pc-1" f.pcap
Substitution2: "c2sc-1" f.smcp
EndChar

StartChar: G
Encoding: 71 71 32
Width: 803
VWidth: 1159
Flags: W
HStem: -9.312 41.056<385.957 583.08> 323.376 24<744.39 766.304> 670.256 42.368<332.761 540.715> 685.432 20G<659.785 690.56>
VStem: 43 122.088<255.329 475.159> 621.464 106.656<63.2575 294.743> 674.376 32.872<533.897 549.531>
LayerCount: 2
Fore
SplineSet
43 355 m 3xec
 43 615.555927766 313.232 712.624 466 712.624 c 3xec
 531.849555921 712.624 582.021577622 696.929858393 630.796347756 686.609858393 c 0
 654.371859441 681.793858393 655.634926387 688.652218573 663.936 705.432 c 1
 690.56 702.872 l 1
 707.248 535.44 l 1
 674.376 528.192 l 1xda
 617.272 622.944 533.994239842 670.256 435.824 670.256 c 3
 254.668066445 670.256 165.088 509.782944475 165.088 368.184 c 3
 165.088 183.141611178 319.913290322 31.744 495.48 31.744 c 3
 541.11952156 31.744 568.05363707 40.4557097332 603.776 62.752 c 0
 616.378197314 73.3533931657 618.84 95.7440000001 618.84 108.928 c 0
 618.84 141.585146596 621.464 195.726280105 621.464 244.712 c 0
 621.464 282.922036364 602.048 304.136 554.608 312.504 c 0
 531.698600582 314.24548158 514.272 315.504 492.256 316.192 c 1
 494.256 350.688 l 1
 599.765110266 340.584 715.618250951 342 766.304 347.376 c 1
 769.304 323.376 l 1
 742.544 315.6272 729.656134099 306.601480227 728.12 281.512 c 0
 725.496 215.890789185 723.689740022 157.346593315 721.56 108.92 c 0
 720.264872418 83.9951341378 727.463724138 74.5947272727 749.56 54 c 1
 745 33.936 l 1
 666 21.5794285714 502 -9.312 448 -9.312 c 3
 228.424 -9.312 43 135.494488839 43 355 c 3xec
EndSplineSet
Position2: "cpsp-1" dx=0 dy=0 dh=50 dv=100
Substitution2: "c2pc-1" g.pcap
Substitution2: "c2sc-1" g.smcp
EndChar

StartChar: H
Encoding: 72 72 33
Width: 831
VWidth: 1159
Flags: W
HStem: -13.248 39.056<224.672 293.227 557.664 614.864> -9.624 46.056<16.504 84.4426> 319.76 44.992<205.344 639.536> 646.32 41.056<16.0702 87.6807 220.415 298.528> 653.632 37.744<551.912 610.681> 658.256 40.12<761.784 816.38>
VStem: 88.064 119.776<46.3185 319.76> 99.6694 104.987<207.003 319.76 364.752 634.206> 639.536 97.6746<55.6848 319.76 364.752 449.438>
LayerCount: 2
Fore
SplineSet
16.256 691.376 m 1x6980
 70.8949888047 685.101373343 119.292744184 681.62543374 172.135502571 681.62543374 c 1
 210.545989823 681.62543374 251.398754709 683.56238787 298.528 687.376 c 1
 300.216 646.32 l 1x3180
 272.638921875 643.568 221.27892793 640.449679776 219.216 627.944 c 0
 211.656 592.2210625 207.032 467.010171875 205.344 364.752 c 1
 518.667414063 355.568 491.199317613 369.26960371 639.536 364.752 c 1
 638.912 431.741421875 639.536 518.291984375 631.104 606.944 c 0
 628.247096268 641.211171412 581.197085937 646.312 548.856 653.632 c 1
 552.608 691.376 l 1x2980
 598.649385109 685.283589815 636.033573725 681.347092914 673.549533348 681.347092914 c 1
 716.282266568 681.347092914 759.50707142 686.274879558 815.496 698.376 c 1
 820.56 658.256 l 1
 771.456101563 650.226909091 757.430715856 647.259653062 754.816 619.944 c 0
 744.869796538 510.656585788 737.21060413 321.966781723 737.21060413 189.811855902 c 3
 737.21060413 126.71017795 740.586420422 74.5386675393 750 54.872 c 0
 761.808 31.744 792.655 28.56 818.56 28.12 c 1
 818.56 28.12 816.056 8.744 814.872 -9.624 c 1x6580
 775.949526264 -2.35385017896 736.02862842 1.80784511994 694.285169388 1.80784511994 c 1
 650.919843864 1.80784511994 605.66802341 -2.21353309472 557.664 -13.248 c 1
 557.664 -13.248 552.6 10.064 549.664 25.808 c 1
 590.643375 33.312 626.938762026 39.9805820314 628.912 63.872 c 0
 636.848 159.413375 638.848 219.5816875 639.536 319.76 c 1
 549.946117187 326.32 395.392398437 325.008 204.656 319.76 c 1xa180
 203.968 234.438578125 201.883926216 134.582387853 207.84 68.12 c 0
 210.57734375 33.056 271.880671875 34.872 296.96 30.056 c 1
 296.96 30.056 293.896 6.744 292.896 -11.624 c 1
 235.24131854 -2.89832782949 185.417051517 1.99460499844 137.717243332 1.99460499844 c 1
 96.5505113871 1.99460499844 57.1335952206 -1.40752668117 16.504 -9.624 c 1
 16.504 -9.624 12.752 14.064 10.752 36.432 c 1
 39.3441328125 39.936 86.9229509179 43.0644600969 88.064 65.936 c 0x6280
 96.7616 184.451065625 99.66944 346.649999375 99.66944 474.27638375 c 3
 99.66944 545.94464 96.8821584033 606.748605538 90.256 622.944 c 0
 81.5981953125 643.696 43.16715625 646.816 13.88 649.008 c 1
 16.256 691.376 l 1x6980
EndSplineSet
Position2: "cpsp-1" dx=0 dy=0 dh=50 dv=100
Substitution2: "c2pc-1" h.pcap
Substitution2: "c2sc-1" h.smcp
EndChar

StartChar: I
Encoding: 73 73 34
Width: 341
VWidth: 1159
Flags: W
HStem: -10 44.68<16.1189 107.783> 675 20G<18.4825 49.5968 294.875 325.951>
VStem: 129.491 91.827<79.1583 552.197>
LayerCount: 2
Fore
SplineSet
20.128 695 m 1
 79.0656877387 686.071870318 125.095933288 682.184002033 172.252981262 682.184002033 c 3
 217.909509466 682.184002033 264.622272216 685.802104056 325.128 692 c 1
 327.128 643.384 l 1
 281.608 641.696 246.728 647.952 239.608 616 c 0
 230.469317098 557.726976224 221.318160051 432.501876956 221.318160051 296.648981615 c 3
 221.318160051 229.761977184 224.213813427 154.655841384 231.296 72.552 c 0
 233.925522988 28.7237945929 286.232 34.496 329 34.368 c 1
 328 -9 l 1
 276.492846549 -3.58746371201 219.264121714 -0.433307895643 164.006318286 -0.433307895643 c 3
 110.909496996 -0.433307895643 59.6324541017 -3.35631700004 17 -10 c 1
 11.376 34.68 l 1
 57.96 33.744 117.144 32.616 120.704 86.36 c 0
 126.147608544 155.796768738 129.491162483 247.154618033 129.491162483 336.857586834 c 3
 129.491162483 443.598093725 124.889072128 547.945289653 115.896 612.44 c 0
 110.632903235 646.379148513 55.088 644.192 16.128 646.384 c 1
 20.128 695 l 1
EndSplineSet
Position2: "cpsp-1" dx=0 dy=0 dh=50 dv=100
Substitution2: "c2pc-1" i.pcap
Substitution2: "c2sc-1" i.smcp
EndChar

StartChar: J
Encoding: 74 74 35
Width: 337
VWidth: 1356
Flags: HMW
LayerCount: 2
Fore
SplineSet
113.456 609.008 m 0
 104.703953061 643.642749361 62.008 641.696 14 647.008 c 1
 18 692 l 1
 72.8070909724 685.783801709 116.452557974 683.091999636 160.221874403 683.091999636 c 3
 209.087482789 683.091999636 261.546414965 686.25156223 323 692 c 1
 325 643.072 l 1
 278.232 640.76 241.167976754 646.392004428 237.168 611.632 c 0
 222.835023437 494.9311875 224.864 376.290703125 224.864 225 c 3
 224.864 85.986734375 235.544 30.3813671875 235.544 -15.6 c 3
 235.544 -93.9905234375 171.351499792 -150.3957704 96.808 -200.936 c 0
 68.064 -219.808 46.6 -235.293647059 21.496 -251 c 1
 -6.936 -214.256 l 1
 15.1333793103 -203.611333333 33.4879162096 -193.045292025 49.504 -180.44 c 0
 54.5997461946 -176.704985905 59.4902134971 -173.625345129 63.504 -169.752 c 0
 126.171333333 -111.376 130.512 -21.6975703125 130.512 65 c 3
 130.512 103.3345625 122.64 573.290445313 113.456 609.008 c 0
EndSplineSet
Position2: "cpsp-1" dx=0 dy=0 dh=50 dv=100
Substitution2: "c2pc-1" j.pcap
Substitution2: "c2sc-1" j.smcp
EndChar

StartChar: K
Encoding: 75 75 36
Width: 687
VWidth: 1159
UnlinkRmOvrlpSave: 1
Flags: W
HStem: -10 31.872<239.17 288.479 448.89 476.43> -1 21G<659 676.853> 653.944 31.056<382.576 424.884> 654.816 33.184<20.373 66.9609 224.147 278.005 575.466 604.853>
VStem: 99.5133 95.3347<108.124 309.76 356.376 618.11>
LayerCount: 2
Fore
SplineSet
382.576 685 m 1x28
 408.640625952 683.004664367 437.242666815 681.949571772 466.741023273 681.949571772 c 3
 512.626433009 681.949571772 560.921831532 685.101999391 604 692 c 1
 614.248 651.944 l 1
 576.68 642.256 543.901809338 626.179539906 513.008 598.768 c 0
 423.44 520.576 343.378236559 446.243358025 263.648 368.56 c 1
 269.264 362.32 555.196261504 114.014465322 567.264 103.848 c 0
 608.90146028 69.2131134603 658.048 41.432 677.624 23 c 1
 673 -1 l 1x68
 645 1 606 4 578 4 c 3
 538.456747663 4 488.128971963 1 449.784 -4 c 1
 445.784 21.312 l 1
 470.168 29.168 491.472 32.688 470.096 64.864 c 0
 452.790519455 87.5459533083 284.54543131 230.026418605 194.848 309.76 c 1
 195.16 235.477873418 197.592820951 143.871605685 201.72 92.416 c 0
 205.298708542 41.0230501259 240.525666667 33.688 291.6 21.872 c 1
 287.6 -10 l 1
 236.447006433 -2.8 184.0982286 1.88 126.488 1.88 c 3
 91.8 1.88 55 -0.2 15 -5 c 1
 12 30.808 l 1
 57.64 30.872 84.6694770635 39.3117309665 88.504 82.232 c 0
 95.9249703889 173.806779203 99.513267791 270.748167834 99.513267791 367.184455971 c 3
 99.513267791 436.806034193 97.1185963114 504.873704787 93.44 574.648 c 0
 90.0432843746 636.890066176 73.632 642.816 14.064 654.816 c 1
 21 688 l 1x98
 56.6601886794 683.542476415 94.1086338448 681.667989976 131.662527565 681.667989976 c 3
 181.327189076 681.667989976 231.165248291 684.566018868 277.736 689 c 1
 280.736 654.504 l 1
 235.452689655 648.256 212.378382335 646.034066187 206.656 599.264 c 0
 200.096 517.978772908 194.848 440.564270916 194.848 356.376 c 1
 264.003787755 426.526343612 334.07979214 492.493437059 401.472 565.904 c 0
 412.99723295 579.577724102 429.252026628 604.01083336 431.4 616.632 c 0
 434.457709689 641.547222457 413.917894737 648.20640822 381.576 653.944 c 1
 382.576 685 l 1x28
EndSplineSet
Position2: "cpsp-1" dx=0 dy=0 dh=50 dv=100
Substitution2: "c2sc-1" k.smcp
Substitution2: "c2pc-1" k.pcap
EndChar

StartChar: L
Encoding: 76 76 37
Width: 614
VWidth: 1159
Flags: W
HStem: -7 47.12<23 84.2411> 2 58.424<212.927 492.414> 646.696 46.304<220.854 302.829>
VStem: 86.128 115.84<328.15 628.176> 94 107.968<69.9358 555.739> 559.504 38.432<134.513 170.856>
LayerCount: 2
Fore
SplineSet
302.224 693 m 1xb4
 306.224 646.696 l 1
 220.043988732 633.889684211 210.220794097 644.75770022 205.592 558.216 c 0
 203.175404238 509.633914147 199.96873305 186.021106017 201.968 148.688 c 0
 202.15204391 104.659274958 204.393476419 61.8897007805 253.08 60.424 c 0
 278.002140845 60.216 401.185785429 60.7527179073 418.968 61.736 c 0
 501.404965517 69.6566746988 532.944 102.232 559.504 178.48 c 1
 597.936 170.856 l 1
 599.512864865 115.097142857 582.192 112.952 558.624 -21.624 c 1
 535.376 -11.064 533.721355685 -0.977654670122 486 -0.688 c 0
 474.993316449 -0.902082278085 386 2 284 2 c 3x6c
 69 2 34 -7 23 -7 c 1
 17.376 40.12 l 1
 70.136 46.024 90.688 51.995708566 91.376 82.552 c 0
 91.376 86.435 94 181.5685 94 300 c 3xac
 94 450.670000521 87.2079512057 595.394390707 86.128 606.264 c 0
 83.504 635.730356416 66.2 645.504 12 643.136 c 1
 16 696 l 1
 56.3726980984 686.141550464 101.593828395 682.453832817 146.076608846 682.453832817 c 3
 202.17796376 682.453832817 257.22691919 687.163949757 302.224 693 c 1xb4
EndSplineSet
Position2: "cpsp-1" dx=0 dy=0 dh=50 dv=100
Substitution2: "c2pc-1" l.pcap
Substitution2: "c2sc-1" l.smcp
EndChar

StartChar: M
Encoding: 77 77 38
Width: 958
VWidth: 1159
Flags: W
HStem: -10 46.304<14 91.6872 216.82 285.522> -2 42.368<674.93 726.846> 9 21G<453.124 505.46> 645.696 45.304<866.529 941.666> 648.76 50.24<27.6245 110.375>
VStem: 151.184 40.92<138.528 510.28> 453.624 46.368<9 92.8519> 758.96 97.16<71.3965 401.167>
LayerCount: 2
Fore
SplineSet
945 1 m 1x17
 908.557588504 7.78060997479 867.989176093 11.5117489121 824.738009555 11.5117489121 c 3
 770.748689838 11.5117489121 727.375131175 7.28208376562 675.808 -2 c 1
 670.496 40.368 l 1x57
 727.16 47.312 757.336 72.48 758.96 146.096 c 0
 765.365822835 274.428139505 759.213574913 401.111681855 744.648 519.472 c 1
 672.081686486 403.744875 603.424775431 284.09204573 545.312 156.432 c 0
 525.301586799 113.278566569 510.928 60.488 499.992 9 c 1
 453.624 9 l 1x27
 452.624 74.92 433.757648842 122.816431082 413.176 162 c 2
 223.416 522.592 l 1
 202.608 402.543531249 190.656123571 271.724442809 192.104 138.528 c 0
 194.708529653 45.0145034728 222.544228571 49.368 290.296 36.304 c 1
 284.672 -10 l 1
 242.871426801 -4.00313034166 193.266699107 0.210499932309 141.473806095 0.210499932309 c 3
 99.40696607 0.210499932309 55.8573381083 -2.72251864751 14 -10 c 1
 12 36.304 l 1
 98.568 43.808 122.444750091 70.9680164366 126.12 128.032 c 2
 151.184 510.28 l 2
 153.305851075 550.76832522 149 583.592 128.936 611.52 c 0
 110.455315404 634.43513425 85.936 645.576 19.128 648.76 c 1
 29 699 l 1x8f
 96.3529971013 690.656 169.449315388 682.009047145 245.208 685.688 c 0
 264.720573348 686.174049847 266.961556578 672.958588537 271.584 661 c 0
 337.591160221 502.601718751 412.877569061 350.467968751 506.36 210.624 c 1
 755.896 678.936 l 0
 760.896 687.936 769.920768442 692.184774385 775.896 690.936 c 0
 829.989940594 683.376 887.585663366 686 941 691 c 1
 945.312 645.696 l 1
 875.616 642.76 846.249313312 630.061529924 846.056 561.032 c 0
 844.936684808 418.57997922 848.330433854 276.461684358 856.12 139.472 c 0
 861.02612766 56.8 888.236255319 45.936 946 49.928 c 1
 945 1 l 1x17
EndSplineSet
Position2: "cpsp-1" dx=0 dy=0 dh=50 dv=100
Substitution2: "c2pc-1" m.pcap
Substitution2: "c2sc-1" m.smcp
EndChar

StartChar: N
Encoding: 78 78 39
Width: 836
VWidth: 1159
Flags: W
HStem: -11 52.552<23.227 81.5134 198.833 270.232> 650.944 43.056<775.093 832> 681 20G<599.098 628.76>
VStem: 106.632 63.7279<321.97 524.728> 703.249 41.751<260.468 276.907> 718.128 40.432<-6.84242 25.8967>
LayerCount: 2
Fore
SplineSet
14 692 m 1xd4
 57.3325454546 687.844 115.134052327 682.384258702 160.664 683.688 c 0
 175.677363084 684.041411797 176.916262497 679.928244952 183.664 672.688 c 0
 342.368 502.925901237 509.568 345.214603693 692.136 198.2 c 1
 700.368038556 286.694964612 703.248975117 375.190518909 703.248975117 467.162045943 c 3
 703.248975117 483.522930808 703.197623443 499.952190933 703.072 516.608 c 0
 702.124928571 663.768949153 634.16 656 597 658.944 c 1
 601 701 l 1xb8
 656.519587699 693.825498252 703.298840942 691.263713704 747.271642729 691.263713704 c 3
 776.164975797 691.263713704 803.846638333 692.369750597 832 694 c 1
 837 650.944 l 1
 795.8 644.944 770.247862491 646.527580269 765.496 600.888 c 0
 748.416 433.579892029 745 255.457396362 745 76.328 c 0xd8
 745 54.579627907 751.78 16.756372093 758.56 -4.992 c 1
 718.128 -15.68 l 1
 705.186254671 24.5905491786 672.126879404 66.3967278826 640.184 97.512 c 0
 488.763823899 245.00320052 333.452779874 385.765608112 170.36 524.728 c 1
 158.552 182.704 l 2
 153.419022927 69.5607015844 202.848 46.75734375 278.248 41.552 c 1
 269 -11 l 1
 230.475274138 -2.82996917899 193.353344449 0.0350683801344 158.148197194 0.0350683801344 c 3
 109.280738727 0.0350683801344 64.1064561839 -5.48516570496 24 -10 c 1
 18.376 39.928 l 1
 67.328 36.808 89.0997668326 53.4477089161 93.88 106.416 c 0
 102.515271598 211.240365605 106.63207391 320.343352265 106.63207391 430.331351559 c 3
 106.63207391 469.671268158 105.289136469 509.051906146 104.376 548.536 c 0
 103.072724845 605.402733027 58.704 641.824 12 641.448 c 1
 14 692 l 1xd4
EndSplineSet
Position2: "cpsp-1" dx=0 dy=0 dh=50 dv=100
Substitution2: "c2pc-1" n.pcap
Substitution2: "c2sc-1" n.smcp
EndChar

StartChar: O
Encoding: 79 79 40
Width: 845
VWidth: 1159
Flags: W
HStem: -5.128 54.68<361.935 545.311> 643.896 56.8<304.314 478.506>
VStem: 43 114.528<276.45 454.869> 676.976 125.024<224.277 431.122>
LayerCount: 2
Fore
SplineSet
379.456 643.896 m 3
 256.742852826 643.896 157.528 546.186834935 157.528 395.232 c 3
 157.528 215.399110552 298.17749184 49.552 454.928 49.552 c 3
 590.5177968 49.552 676.976 174.453628104 676.976 315.2 c 3
 676.976 485.945320527 542.612167956 643.896 379.456 643.896 c 3
428 700.696 m 3
 635.000093083 700.696 802 539.079581611 802 341.44 c 3
 802 150.095544135 643.9999272 -5.128 430 -5.128 c 3
 215.999890176 -5.128 43 149.118723054 43 341.44 c 3
 43 533.238004132 218.000146381 700.696 428 700.696 c 3
EndSplineSet
Position2: "cpsp-1" dx=0 dy=0 dh=50 dv=100
Substitution2: "c2pc-1" o.pcap
Substitution2: "c2sc-1" o.smcp
EndChar

StartChar: P
Encoding: 80 80 41
Width: 596
VWidth: 1159
Flags: W
HStem: -11 42.68<24.4462 82.5632> -10 51.368<232.814 323.108> 242.624 39.12<217.255 352.048> 640.008 46.992<14.5066 95.0887> 653.752 40.248<216.573 353.93>
VStem: 102.376 110.28<324.799 628.744> 114.344 98.4402<60.0668 247.504 283.933 498.592> 454.72 109.28<379.943 549.739>
LayerCount: 2
Fore
SplineSet
262.88 281.744 m 3x2b
 358.004392347 281.744 454.72 339.322499852 454.72 456.504 c 3
 454.72 540.621802926 405.27234614 605.123836998 371.752 625.2 c 0
 342.990870712 642.615275827 298.111424365 653.752 245.52 653.752 c 3
 226.56 653.752 212.576555892 636.916981736 212.656 620.448 c 0x2d
 214.31943896 546.830649488 212.72 418.617783197 212.784 290 c 1
 228.232000171 283.808 243.915247759 281.744 262.88 281.744 c 3x2b
15 687 m 1xb5
 41 685 75 683 114 683 c 3
 185 683 224 694 295 694 c 3
 460 694 564 576.936 564 467 c 3
 564 344.175538366 454.355235294 242.624 269.544 242.624 c 3
 253.72 242.624 230.48 244.752 216.72 247.504 c 1
 219.254857143 183.274409091 221.383017715 108.325140532 225.592 83.672 c 0
 233.464 39.2746463734 259.392 45.9312 326.024 41.368 c 1
 322.648 -10 l 1x6d
 256.006239343 -4.04039641836 209.854567155 3.14647863003 159.791838595 3.14647863003 c 3
 121.550682162 3.14647863003 80.9716135361 -0.674988345168 26.64 -11 c 1
 13.264 31.68 l 1
 90.87072 56.5038125 109.391790489 52.7856825849 111.064 88.672 c 0
 113.202069586 131.685346685 114.34375 181.143958885 114.34375 233.62318182 c 3xa3
 114.34375 353.01384541 109.735086119 483.160974009 102.376 599.456 c 0
 101.067428571 625.888 74.824 639.32 11.688 640.008 c 1
 15 687 l 1xb5
EndSplineSet
Position2: "cpsp-1" dx=0 dy=0 dh=50 dv=100
Substitution2: "c2pc-1" p.pcap
Substitution2: "c2sc-1" p.smcp
EndChar

StartChar: Q
Encoding: 81 81 42
Width: 785
VWidth: 1361
Flags: W
HStem: -158.872 48.616<727.525 872.607> -3.128 55.68<324.038 410.952> 666.512 34.496<301.738 453.763>
VStem: 43.624 121.088<254.727 488.345> 615.288 126.336<248.188 480.054>
LayerCount: 2
Fore
SplineSet
375.192 666.512 m 3
 252.634025316 666.512 164.712 557.003271833 164.712 397.8 c 3
 164.712 220.187394283 258.163498099 52.552 408.056 52.552 c 3
 535.013987437 52.552 615.288 169.595827865 615.288 334.392 c 3
 615.288 549.857691768 503.979126437 666.512 375.192 666.512 c 3
523.72 31.296 m 1
 652.428280255 -70.8175187637 761.335286624 -110.256 834.6 -110.256 c 3
 848.36 -110.256 861.68 -108.88 872 -105.44 c 1
 876.064 -137.624 l 1
 825.468125 -154.1632 784.7015 -158.872 749.624 -158.872 c 3
 625.114831461 -158.872 504.654741573 -100.468 389.256 -3.128 c 1
 182.86432 1.06171428572 43.624 164.806235642 43.624 362.376 c 3
 43.624 573.65953125 198.624 701.008 389.624 701.008 c 3
 581.624 701.008 741.624 557.28775188 741.624 364.376 c 3
 741.624 214.200723844 638.861040462 78.7054345048 523.72 31.296 c 1
EndSplineSet
Position2: "cpsp-1" dx=0 dy=0 dh=50 dv=100
Substitution2: "salt-1" Q.alt
Substitution2: "c2pc-1" q.pcap
Substitution2: "c2sc-1" q.smcp
EndChar

StartChar: R
Encoding: 82 82 43
Width: 734
VWidth: 1159
Flags: HMW
LayerCount: 2
Fore
SplineSet
196.096 371.312 m 1
 228.644737864 369.922 247.203262136 367 281 367 c 3
 401.972251429 367 439.464 442.298205722 439.464 503.384 c 3
 439.464 556.445171875 384.91434623 658.76 276.192 658.76 c 3
 250.936811224 658.76 206.836803477 653.043363239 200.344 599.4 c 0
 192.528879245 527.972412571 193.576 442.942783716 196.096 371.312 c 1
12 693 m 1
 52.3044324324 692 77.7035675676 691 128.928 691 c 0
 203.105084746 691 226.141830509 707 300 707 c 0
 434.707654321 707 546.12 622.26712968 546.12 517.816 c 0
 546.12 430.476086335 469.568 367.618149554 401.736 341.128 c 1
 522.741072046 143.58557601 609.948103746 10.0210265487 740.936 8.056 c 1
 733 -33 l 1
 547.265915493 -37.9035955056 361.656 159.780292683 296.704 316.136 c 1
 290.512 315.448 281.264 316.072 276.448 316.072 c 0
 245.559771429 316.5712 228.232228571 319.5728 197.344 320.76 c 1
 202.0944 232.308878049 204.328778454 169.622874774 212.152 94.104 c 0
 217.0432 53.2939204135 245.08 45.24 292.28 40.552 c 1
 283.032 -10 l 1
 233.675695284 -0.858262886928 193.478009244 3.94586051795 134.784678701 3.94586051795 c 3
 97.6709470415 3.94586051795 60.4423114024 0.396012128874 23 -7 c 1
 15.376 39.616 l 1
 61.2996666667 36.6286917293 80.6546666667 43.4940150376 85.816 79.296 c 1
 92.6754817452 199.857963838 95.5236239017 280.913832214 95.5236239017 360.943477088 c 3
 95.5236239017 428.703480077 93.3375554201 495.697969839 89.752 587.216 c 1
 82.9589873418 634.487529412 69.0127594937 650.029647059 12 651.944 c 1
 12 693 l 1
EndSplineSet
Position2: "cpsp-1" dx=0 dy=0 dh=50 dv=100
Substitution2: "salt-1" R.alt
Substitution2: "c2pc-1" r.pcap
Substitution2: "c2sc-1" r.smcp
EndChar

StartChar: S
Encoding: 83 83 44
Width: 575
VWidth: 1159
Flags: W
HStem: -8.128 48.928<204.935 382.439> 665.76 42.368<217.47 378.646> 681.312 20G<468.337 512.376>
VStem: 57.688 34.496<-1.872 19.8305> 67.688 98.536<470.686 590.947> 430.592 98.096<99.6333 224.59> 472.016 43.92<526.386 581.541 681.822 691.376>
LayerCount: 2
Fore
SplineSet
29.376 198.68 m 1xd4
 66.496 204.68 l 1
 79.108515625 166.505390625 88.2248512413 142.219357914 114.368 115.6 c 0
 155.9505625 74.3688046875 247.044695313 40.8 311.864 40.8 c 3
 392.360984375 40.8 430.592 106.868984375 430.592 157.76 c 3
 430.592 276.621414063 277.725438729 299.523980053 187.696 340.784375 c 0
 159.171726563 355.044820313 67.688 396.171554687 67.688 503.136 c 3
 67.688 592.707078125 136.952 708.128 309.688 708.128 c 3xcc
 363.760273437 708.128 410.269469581 695.672369486 429.952 689.624 c 0
 444.697063784 684.483042217 459.913904762 669.44 476.76 701.312 c 1xac
 512.376 691.376 l 1
 492.256 609.492726563 499.35866575 616.922106187 515.936 558.312 c 0
 521.908882813 537.334546875 514.672765625 513.2304375 472.016 522.192 c 1
 467.2 533.2 465.335017382 553.412338599 455.824 572.704 c 0
 431.530023437 622.137859375 365.38034375 665.76 292.632 665.76 c 3
 255.366671875 665.76 166.224 650.22178125 166.224 538.112 c 3xca
 166.224 428.759929687 258.203454282 444.401249905 388.576 383.408 c 0
 501.348014729 329.094498478 528.688 248.619773437 528.688 185.992 c 3
 528.688 104.685195313 473.688 -8.128 281.688 -8.128 c 3
 228.05665625 -8.128 171.563321221 2.04865926354 122.744 18 c 0
 103.71046875 24.120671875 104.594078125 22.808671875 92.184 -7.12 c 1
 57.688 -1.872 l 1
 58.6992734375 69.45825 55.6657578125 88.06640625 29.376 198.68 c 1xd4
EndSplineSet
Position2: "cpsp-1" dx=0 dy=0 dh=50 dv=100
Substitution2: "c2pc-1" s.pcap
Substitution2: "c2sc-1" s.smcp
EndChar

StartChar: T
Encoding: 84 84 45
Width: 728
VWidth: 1159
Flags: HMW
LayerCount: 2
Fore
SplineSet
125 685.936 m 0
 250.16389914 683.707582227 375.31580054 682.171572875 500.827254201 682.171572875 c 3
 551.777179725 682.171572875 602.783258297 682.908978931 653.88 683.312 c 0
 670.142736842 683.312 685.389052631 689.6864 692.504 699.248 c 1
 719.688 682 l 1
 704.893818182 641.068878049 686.929454546 595.589853658 684.816 542.152 c 1
 643.448 548.776 l 1
 645.008 552.52 648.493957548 576.189787741 649.448 580.96 c 0
 659.882066294 629.002331469 483.792 624.888 425.544 625.2 c 1
 420.05544982 504.965763968 417.755858722 386.625734307 417.755858722 266.217526832 c 3
 417.755858722 218.939463874 418.097824874 171.275716788 418.672 123.032 c 0
 419.804499738 49.5526727453 422.669189189 51.0466865672 520.936 43.552 c 1
 513 -7 l 1
 474.745360611 -1.66214334103 425.212355377 0.945200232948 374.874776298 0.945200232948 c 3
 299.568779143 0.945200232948 247.969467552 -3.11635527979 203 -11 c 1
 193.128 44.176 l 1
 299.208 53.5795839844 297.706917822 68.6454206253 299.208 89.792 c 0
 303.85429222 159.091409904 309.414711785 313.57626944 309.414711785 440.916779107 c 3
 309.414711785 528.015588486 306.734651487 602.224674993 299.208 626.512 c 1
 243.173957447 627.668 189.297977397 624.149621911 134.608 618.328 c 0
 81.3666762954 611.438666569 75.4433714286 616.852 40.12 541.832 c 1
 -2.312 561.144 l 1
 18 604.055142857 47.4524 690.977714286 58.624 715.184 c 1
 78.504 696.248 105.804616282 686.066489658 125 685.936 c 0
EndSplineSet
Position2: "cpsp-1" dx=0 dy=0 dh=50 dv=100
Substitution2: "c2pc-1" t.pcap
Substitution2: "c2sc-1" t.smcp
EndChar

StartChar: space
Encoding: 44 44 46
Width: 200
VWidth: 1159
Flags: W
HStem: -143.92 270.408
VStem: 19.512 158.664
LayerCount: 2
Fore
SplineSet
34.888 -143.92 m 1
 19.512 -116.112 l 1
 53.512 -99.792 106.090213685 -58.4646825586 89.376 -20.864 c 0
 78.44 3.944 53.4853981809 20.8281121217 30.448 32.752 c 0
 24.824 34.856 22.2 42.74 22.2 49.312 c 3
 22.2 55.9805714286 24.8596722006 61.2658361003 30.76 63.56 c 0
 53.32 75.496 70.0889390163 94.13016918 82.816 115.928 c 0
 85.1626666667 121.552 91.9253333333 126.488 98.688 126.488 c 3
 105.312 126.488 112.307276299 121.517372265 114.56 115.616 c 0
 125.650315789 93.992 146.233581055 76.2688063149 168.616 63.56 c 0
 174.24 61.248 178.176 55.936 178.176 49.312 c 1
 178.176 44.248 178.472 -69.872 34.888 -143.92 c 1
EndSplineSet
Position2: "cpsp-1" dx=0 dy=0 dh=7 dv=14
EndChar

StartChar: period
Encoding: 46 46 48
Width: 200
VWidth: 1159
Flags: W
HStem: -28.488 154.976<76.1124 121.224>
VStem: 22.2155 156.101<24.3704 70.7323>
LayerCount: 2
Fore
SplineSet
169.318 31.627078125 m 0
 146.22133826 19.4035211045 126.42431609 3.84624144563 114.326 -19.4895390625 c 0
 112.028464801 -25.1135390625 106.284466089 -28.488 99.3915390625 -28.488 c 3
 92.7677131696 -28.488 85.0394810268 -25.1135390625 82.8315390625 -19.4895390625 c 0
 70.7448096142 3.84624144563 53.1639893017 19.4035211045 30.089078125 31.627078125 c 0
 24.465078125 33.7208810694 22.2155390625 42.0950917269 22.2155390625 48.376 c 3
 22.2155390625 55.268927026 24.465078125 61.0129257383 30.089078125 63.3104609375 c 0
 53.1639893017 75.4686890485 70.7448096142 93.1535093609 82.8315390625 116.364921875 c 0
 85.0394810268 121.988921875 92.7677131696 126.488 99.3915390625 126.488 c 3
 106.284466089 126.488 112.028464801 121.988921875 114.326 116.364921875 c 0
 126.42431609 93.1535093609 146.22133826 75.4686890485 169.318 63.3104609375 c 0
 174.942 61.0129257383 178.316460937 55.268927026 178.316460937 48.376 c 3
 178.316460937 42.0950917269 174.942 33.7208810694 169.318 31.627078125 c 0
EndSplineSet
Position2: "cpsp-1" dx=0 dy=0 dh=7 dv=14
EndChar

StartChar: dotlessi
Encoding: 305 305 50
Width: 263
VWidth: 1159
Flags: HMW
LayerCount: 2
Fore
SplineSet
176.736 193.192 m 3
 176.736 156.591414063 181.075 94.748875 186.672 59.928 c 0
 188.749903713 44.2384365934 205.903 36.872 215.928 34.56 c 0
 230.375143229 30.7406796875 245.729 30.0801015625 258 29.184 c 1
 253.688 -7.936 l 1
 214.298747869 -1.936 169.859194602 3.064 127.44 3.064 c 3
 96.3675 3.064 59.0805 -3.936 28.008 -7.936 c 1
 24.38521875 28.1824765625 l 1
 35.8363564959 29.49478125 52.9124521014 32.5023828125 63.944 34.744 c 0
 80.1612862723 38.9685859375 83.7451015625 49.1721328125 87.136 82.864 c 0
 89.1433125 105.552640625 91.072 149.706585937 91.072 173.192 c 3
 91.072 193.192 90.7024296875 247.655242187 85.824 298.192 c 0
 84.512 312.32 76.7298984375 322.2 63.136 322.2 c 1
 59.008 322.2 48.688 319.401382813 37.348 318.697539063 c 1
 29.88 355.44 l 1
 72.4508359375 364.023539063 119.986929687 381.181015625 183.112 428.504 c 1
 202.488 410.632 l 1
 197.540695313 399.526226563 193.182367187 372.961015625 191.360609375 362.875078125 c 0
 181.652065327 312.635078125 176.736 210.465 176.736 193.192 c 3
EndSplineSet
Substitution2: "case-1" I
Substitution2: "pcap-1" i.pcap
Substitution2: "smcp-1" i.smcp
EndChar

StartChar: uniFB01
Encoding: 64257 64257 51
Width: 576
VWidth: 1159
Flags: W
HStem: -7.936 36.1185<327.367 381.77> -6.312 38.808<26.824 92.2496 490.94 553.685> 0.688 34.496<206.623 279.101> 354.696 41.056<33.384 110.504 200.104 378.85> 691.016 64.672<288.58 401.899>
VStem: 111.816 85.664<48.9662 354.696 395.752 609.223> 395.688 80.288<61.5814 338.98>
LayerCount: 2
Fore
SplineSet
346.112 348.76 m 0x9e
 297.089052632 353.1984 249.190947368 352.3216 198.792 354.696 c 1
 197.48 326.093014926 197.48 301.803278448 197.48 290.816 c 1
 197.48 211.492150628 199.705593289 137.170787419 205.352 59.616 c 0
 206.654996043 43.0204094179 214.546051977 36.3858108019 232.096 35.184 c 0
 252.368028095 33.872 263.501369863 33.872 283.8 33.184 c 1
 281.112 -6.312 l 1x5e
 238.384 -1.312 184.912 0.688 142.184 0.688 c 1x3e
 109.534943396 0.688 59.4730566038 -2.312 26.824 -6.312 c 1x5e
 25.824 32.496 l 1
 36.252 33.184 49.0096354798 33.7761952997 59.952 35.496 c 0
 94.3199052058 41.6406 98.5882176798 55.8349809138 101.944 86.616 c 0
 107.819472807 136.559914584 111.816 201.556540541 111.816 263.816 c 1
 111.816 283.112566944 110.504 318.924085106 110.504 354.696 c 1
 84.449945946 353.384 59.4380540541 349.448 33.384 348.136 c 1
 33.384 401 l 1
 59.4380540541 399.688 84.449945946 397.064 110.504 395.752 c 1
 110.504 435.89275 110.504 482.209 110.504 494.56 c 1
 110.504 601.92121327 143.186453144 647.44594613 230.24 704.312 c 0
 274.388481136 732.811527635 338.473244444 755.688 388.368 755.688 c 1
 415.430468423 755.688 486.161454546 736.7488 516.04 702.272 c 1
 514.728 671.216 507.488 667.83640625 450.064 626.104 c 1
 413.609207031 647.21243484 379.433333334 691.016 304.88 691.016 c 1
 209.158509629 691.016 214.756055921 614.478679163 205.352 499.56 c 0
 204.235907395 484.543745712 201.416 434.808475248 200.104 395.752 c 1
 211.600476821 396.532 290.791523179 396.532 302.288 397.312 c 1
 345.546835937 397.427330656 402.714929687 400.077146347 483.728 428.504 c 1
 503.104 410.632 l 1
 498.156695313 399.526226563 492.335250672 372.97489283 490.600609375 362.875078125 c 0
 480.892065327 312.635078125 475.976 210.465 475.976 193.192 c 1
 475.976 156.591414063 481.243317044 94.783424608 486.6 59.928 c 0
 488.677903713 44.2384365934 505.088899537 36.7153070404 515.168 34.56 c 0
 529.615143229 30.7406796875 545.657 30.0801015625 557.928 29.184 c 1
 552.928 -7.936 l 1
 513.538747869 -1.936 469.099194602 3.064 426.68 3.064 c 1
 395.6075 3.064 359.0085 -3.936 327.936 -7.936 c 1
 325.00121875 28.1824765625 l 1
 336.452356496 29.49478125 352.836945362 32.5165369662 363.872 34.744 c 0
 380.181824219 38.9685859375 389.429154881 49.0923586394 392.44 82.864 c 0
 394.4473125 106.984459918 395.688 160.742390964 395.688 185.688 c 1
 395.688 206.28704 393.816746974 266.605951748 388.504 317.872 c 0
 387.277090909 332 370.864109991 345.915136791 346.112 348.76 c 0x9e
EndSplineSet
LCarets2: 1 298
Ligature2: "liga-1" f i
EndChar

StartChar: uni0237
Encoding: 567 567 52
Width: 265
VWidth: 1159
Flags: HMW
LayerCount: 2
Fore
SplineSet
-27 -329.376 m 1
 -21.7994285714 -274.916509091 -16.8052859277 -254.063159785 14.064 -218.44 c 0
 32.5781877318 -196.979903424 52.1003934909 -165.220137575 61.008 -140 c 0
 70.32 -114.376 78.568 -43.144 78.568 96 c 3
 78.568 224.097542466 73.7864252346 253.070834669 69.448 301 c 0
 68.09477067 315.355039119 60.3672352941 326.88 42.64 326.88 c 3
 34.5718857143 326.88 21.5647857143 324.128 13.888 323.44 c 1
 7.2 358.56 l 1
 66.0552112676 370.307027027 107.932957747 384.011891892 167.92 431 c 1
 187.92 412.816 l 1
 182.232 399.404 177.056178641 373.494687768 174.92 363 c 0
 164.474285714 319 160.296 217 160.296 196 c 3
 160.296 103.912 159.608 -27.32 159.608 -84 c 3
 159.608 -130.873882353 148.080072298 -165.617665315 134.232 -186.624 c 0
 110.672 -223.12 73.9196209566 -248.679560676 37.744 -269.808 c 0
 22.2046180405 -279.188040648 1.71576470588 -312.234941177 0.624 -335 c 1
 -27 -329.376 l 1
EndSplineSet
EndChar

StartChar: U
Encoding: 85 85 53
Width: 815
VWidth: 1159
Flags: W
HStem: -10 63.36<315.114 551.578> 644.696 44.992<12.6621 92.2341 225.719 310.609>
VStem: 98.688 106.656<151.847 551.326> 103.688 110.592<305.347 629.545> 653.456 72.544<265.596 639.851> 654.328 64.672<148.735 609.924>
LayerCount: 2
Fore
SplineSet
13.44 689.688 m 1xd0
 45.5421490803 686.188 97.1731055179 684.438 151.613 684.438 c 3
 207.19922692 684.438 265.653539258 686.188 309.904 689.688 c 1
 313.904 649.944 l 1
 250.24262132 644.554613908 214.5379447 641.40645416 214.28 577.584 c 0xd0
 214.329418755 570.437149528 205.344 285.059725446 205.344 254.064 c 0
 205.344 199.35079452 219.48 151.552 249.344 118.672 c 0
 287.545060804 77.3133499949 346.290403931 53.36 456.104 53.36 c 3
 482.730136886 53.36 556.056 59.04 603.072 105.616 c 0
 640.884493194 144.223272378 650.266320822 185.047523601 654.328 257 c 0xe4
 659.316834764 350.342433342 658.63083929 503.816102325 653.456 597.392 c 0
 650.908037087 649.56562648 616.324571429 649.974857143 552.776 647.32 c 1
 554.152 692 l 1
 588.260966664 687.878263908 659.061897894 684.796652821 718.796500645 684.796652821 c 3
 757.083933441 684.796652821 790.418184584 686.299374976 803.872 690 c 1
 806.56 646.632 l 1
 761.336074766 649.300363636 729.734935149 652.950565455 726 610.512 c 0xc8
 724.688 599.618400439 722.789094984 482.770639183 719 255 c 0
 718.181797493 176.74859673 692.925603803 117.67916083 651.064 74 c 0
 597.266176 16.688 514.144416 -10 402 -10 c 3
 289.29210339 -10 218.154381119 15.4895547967 171.672 56.384 c 0
 123.235116883 97.76 98.688 159.924757268 98.688 228.824 c 0xe4
 98.688 258.467095539 103.656945788 565.714561014 103.688 580.584 c 0
 103.794480647 630.657646043 89.6046097557 635.223580985 8.44 644.696 c 1
 13.44 689.688 l 1xd0
EndSplineSet
Position2: "cpsp-1" dx=0 dy=0 dh=50 dv=100
Substitution2: "c2pc-1" u.pcap
Substitution2: "c2sc-1" u.smcp
EndChar

StartChar: V
Encoding: 86 86 54
Width: 841
VWidth: 1159
Flags: W
HStem: 654.256 39.744<211.892 293.024 574.553 654.653> 678 20G<8.65698 36.6583 572.403 590.802 817.603 832.073>
VStem: 393.88 52.864<-27 47.4014>
LayerCount: 2
Fore
SplineSet
293.024 694 m 1xa0
 293.024 693.084109375 293.024 660.583445313 293.024 654.256 c 1xa0
 270.016 654.944 251.382933099 653.87657435 236.768 652.256 c 0
 199.216 647.504 209.818114151 625.180148387 216.648 610.328 c 2
 457.048 129.768 l 1
 652.024 599.272 l 2
 660.62559735 621.620880721 659.616601563 651.192 627.032 652.568 c 0
 618.536 652.568 575.912 653.944 571.848 653.008 c 1
 572.848 698 l 1
 608.756120062 690.912943203 674.852531431 687.843940271 716.180707465 687.843940271 c 3
 762.324241673 687.843940271 805.206314112 691.66969722 830 698 c 1x60
 835 649.76 l 1
 805.672 655 763.432 647.384 722.632 581.84 c 0
 699.38806537 546.375107661 539.134208579 221.300271414 469.312 60 c 0
 458.560878707 33.8901434593 450.744 2.496 446.744 -27 c 1
 393.88 -27 l 1
 393.504 1.872 382.317494207 21.2533287284 368.064 57.312 c 0
 322.993750438 171.154999073 214.006090286 393.899955714 97.808 600.144 c 0
 71.2214296021 649.145829814 47.072 649.44 6 653.32 c 1
 11 696 l 1
 62.3166726843 688.556145795 88.8397974971 686.071915039 119.686023744 686.071915039 c 3
 171.229124097 686.071915039 227.341336193 691.691626685 293.024 694 c 1xa0
EndSplineSet
Position2: "cpsp-1" dx=0 dy=0 dh=50 dv=100
Substitution2: "c2pc-1" v.pcap
Substitution2: "c2sc-1" v.smcp
EndChar

StartChar: W
Encoding: 87 87 55
Width: 1130
VWidth: 1159
Flags: W
HStem: 653.192 29.2455<612.374 689.579> 655.568 37.432<10.3276 55.443 247.083 297.426 1098.18 1121.87>
VStem: 373.504 40.12<-21 42.5148> 752.008 39.12<-15 38.8085>
LayerCount: 2
Fore
SplineSet
1121 693 m 1x70
 1127.936 652.944 l 1
 1047.88 618.440093751 1041.30034055 580.939958167 984.088 438.264 c 0
 866.944 161.336 826.194148437 76.9424765625 811.504 42 c 0
 801.195960937 19.063984375 793.469859375 7.312 791.128 -15 c 1
 752.008 -16.312 l 1
 750.758460937 4.959734375 748.535109375 19.4265625 732.32 58.312 c 0
 682.6256875 172.944 636.11859375 287.576 586.56 402.208 c 1
 485.022390625 169.72 438.331435177 58.87692832 425.376 22.688 c 0
 419.048 2.82981818182 414.528 -5.50381818182 413.624 -21 c 1
 373.504 -21 l 1
 368.325333333 2.06327272727 363.460476693 31.4583836008 332.512 105.848 c 0
 238.069714286 342.792673067 134.660861943 532.341138029 126.744 546.096 c 0
 118.514601563 560.892882813 112.924382376 571.99934346 85.568 612.08 c 0
 59.7184797105 644.887935308 31.44 646.035294118 5 648.384 c 1
 11 695 l 1
 42 686 93.25 682 145.375 682 c 3
 197.5 682 261.732 686 296.232 693 c 1
 305.168 655.568 l 1x70
 256.84 655.256 231.968 637.449 231.968 594.072 c 0
 231.968 580.039429687 237.755204858 555.563990062 243.712 542.848 c 2
 430.048 129.464 l 1
 561.752 452.264 l 1
 505.57046875 582.124 467.843359375 618.121023438 462.264 625.384 c 1
 444.888 646.328 418.696 650.696 395.88 657.568 c 1
 402.816 690 l 1
 438.498127604 684.95823177 486.54342448 682.4375 532.677152199 682.4375 c 3xb0
 582.375516493 682.4375 647.510989583 685.95823177 691.664 693 c 1x70
 695.664 654.568 l 1
 689.976 654.568 653.806132813 654.0823125 645.52 653.192 c 0xb0
 599.051835937 646.73071875 601.637734375 618.423046875 609.032 599.64 c 2
 803.432 132.272 l 1
 849.952 244.072 892.341358087 351.271919935 934.408 478.496 c 0
 968.776 587.482968751 963.952 660.81709375 853.144 655.128 c 1
 853.144 688 l 1
 879.568737759 684.754867457 927.735594389 682.584305724 968.652078053 682.584305724 c 3
 1015.99540112 682.584305724 1069.50477037 685.490279012 1121 693 c 1x70
EndSplineSet
Position2: "cpsp-1" dx=0 dy=0 dh=50 dv=100
Substitution2: "c2pc-1" w.pcap
Substitution2: "c2sc-1" w.smcp
EndChar

StartChar: X
Encoding: 88 88 56
Width: 761
VWidth: 1159
Flags: W
HStem: -8 35.808<216.489 281.408 437.206 490.25> -2 42.68<685.729 743.353> 651.44 40.56<247.277 298.712> 655.256 29.744<13 52.8892 432.359 479.83 669.302 702.174>
LayerCount: 2
Fore
SplineSet
13 685 m 1x90
 57.995726729 682.979465194 91.5563485075 681.795874747 121.969454011 681.795874747 c 3
 177.398443832 681.795874747 223.775165804 684.743198768 298.712 692 c 1
 299.712 655.192 l 1
 294.96 653.816 280.697852114 653.151635706 269.136 651.44 c 0
 240.392 644.88 241.027636183 623.08991039 250.64 605.016 c 1
 256.256 586.608 373.512636181 417.599448134 382.368 402.112 c 1
 426.334375 462.94553125 464.594372197 528.643211741 485.408 562.968 c 0
 504.4 600.128 513.959407939 631.934870296 475.224 642.064 c 0
 467.067405719 643.910705982 434.2408 650.733176471 426.4 652.256 c 1
 432.96 687.56 l 1
 478.171601123 684.231957501 524.16336596 681.868707696 570.181401645 681.868707696 c 3
 614.37006491 681.868707696 658.585712798 683.831632476 702 689 c 1
 704 650.568 l 1
 685.387345454 648.152 646.763009619 638.369875452 590.256 588.96 c 0
 574.113481396 573.74395249 526.008390625 521.966265625 405.744 375.744 c 1
 458.109477179 314.213962267 616.972785687 127.635426437 635.2 107.16 c 0
 681.512058399 55.8212241423 695.980075472 52.3671111111 750.248 40.68 c 1
 742 -2 l 1x60
 713.157233926 3.8521554354 672.607337968 6.55911179773 629.84557086 6.55911179773 c 3
 560.900847145 6.55911179773 486.99097657 1.31182235955 437.792 -8 c 1
 434.792 27.808 l 1
 445.48 31.936 466.189239356 34.6457572413 478.488 38.688 c 0
 517.92 51.624 501.002964228 90.3428125087 487.048 113.792 c 0
 460.876894833 156.820326849 420.90877612 223.537632759 357.944 301.64 c 1
 297.267714286 223.93871499 251.680435493 147.457687355 222.528 96.912 c 0
 207.472 65.248 203.963189012 38.2092810988 239.024 33.184 c 0
 257.993982216 30.6731942353 274.528 27.872 281.408 27.184 c 1
 281.72 -6 l 1
 227.478097954 -2.91258870663 180.517372471 -0.619519787796 134.593382787 -0.619519787796 c 3
 96.7821846861 -0.619519787796 59.7762418928 -2.66025403784 19 -8 c 1
 17 28.12 l 1
 29.184 37.296 73.8679113581 45.2388924108 126.304 92.416 c 0
 141.596487997 106.43443844 176.704 145.915015625 330.632 333.568 c 1
 141.664 564.51375 117.030254781 593.940192372 103.872 606.264 c 0
 61.7897995187 641.928289724 33 650.32 12 655.256 c 1
 13 685 l 1x90
EndSplineSet
Position2: "cpsp-1" dx=0 dy=0 dh=50 dv=100
Substitution2: "c2pc-1" x.pcap
Substitution2: "c2sc-1" x.smcp
EndChar

StartChar: Y
Encoding: 89 89 57
Width: 735
VWidth: 1159
Flags: W
HStem: -11 47.928<245.323 306.992 471.006 546.117> 641.072 41.5006<647.137 727.801> 644.632 39.5828<237.516 291.644 466.464 519.832 654.659 728.688> 647.32 44.68<9.32444 71.7797>
VStem: 343.016 96.72<80.2825 326.931>
LayerCount: 2
Fore
SplineSet
298.648 646.32 m 1xa8
 298.648 646.32 278.187892179 644.927679956 265.704 644.632 c 0xa8
 248.75334375 644.008 230.745627863 632.998943344 239.648 617.32 c 0
 318.124775385 478.226435649 400.002322581 384.436720965 404.432 379.544 c 1
 459.230933333 475.38 511.793717941 567.395528453 513.224 571.216 c 0
 527.564 595.445333333 534.075164242 625.289910413 504.912 638.32 c 0
 493.224 643.632 476.66028125 645.632 464.464 647.32 c 1x98
 466.464 691 l 1
 489.622350165 687.343514612 568.314609615 682.572593564 628.046975448 682.572593564 c 3
 666.327781965 682.572593564 703.613081447 684.532048312 729 690 c 1
 728.688 641.072 l 1xc8
 665.872 642.905142857 635.352938854 615.358628689 602.264 585.648 c 0
 541.031295753 526.573305513 481.777066667 424.455972624 439.736 343.424 c 1
 438.568 294.464 433.669828125 244.327368312 454.92 93.728 c 0
 462.198341431 48.8607652707 485.443315104 40.706 550.936 37.928 c 1
 545.312 -11 l 1
 490.67178109 -3.57298461943 440.608976507 0.770989616506 390.411686137 0.770989616506 c 3
 344.071137025 0.770989616506 297.617474423 -2.83480901356 247.44 -11 c 1
 232.944 36.928 l 1
 306.346827586 48.1979405571 343.016 68.0434557168 343.016 119.032 c 2
 339.64 294.88 l 1
 333.264 312.71015625 248.58189304 459.988051436 119.304 595.52 c 0
 89.1678857341 626.756598837 62.716 627.547636364 5.688 647.32 c 1
 10 692 l 1x98
 45.1714158843 688.297745696 113.467325179 684.214750089 174.244228645 684.214750089 c 3
 211.964454466 684.214750089 270.500342101 685.787354886 292.712 690 c 1
 298.648 646.32 l 1xa8
EndSplineSet
Position2: "cpsp-1" dx=0 dy=0 dh=50 dv=100
Substitution2: "c2pc-1" y.pcap
Substitution2: "c2sc-1" y.smcp
EndChar

StartChar: Z
Encoding: 90 90 58
Width: 710
VWidth: 1159
Flags: W
HStem: -2.624 48.928<290.221 536.447> 1.312 30.744<29 41.3461> 637.32 48.928<114.379 506.928>
LayerCount: 2
Fore
SplineSet
10.44 553.016 m 1x60
 64.946 669.864 42.9382857143 710.56 79.432 720.248 c 1
 96.8899508021 696.997453125 126.070525266 687.858036273 138.384 686.248 c 0
 171.064254792 682.713831825 530.84250211 680.805797323 638.44 684.157203125 c 0
 649.712379775 684.660508256 658.17304125 685.422538917 663.128 686.248 c 1
 675.128 663.312 l 1
 656.013242188 640.099609375 l 0
 193.896 46.304 l 1
 249.808104803 45.368 306.455895197 43.68 362.368 43.68 c 0
 525.184707167 43.68 646.312 96.536 670.376 166.544 c 1
 698.624 150.672 l 1
 661 53.588 648.797621622 15.1811428571 623.376 -28.56 c 1
 597.628173913 -17.5946666667 586.55924319 -3.99457597854 503 -2.624 c 0xa0
 352 1.99715244342e-016 108 10.496 29 1.312 c 1
 17.44 32.056 l 1
 55.581515528 50.4333465346 85.7907605756 86.6585105406 109.448 116.624 c 0
 242.270675 285.723156249 377.8145 460.111875 503.552 633.632 c 0
 506.928 637.632 l 1
 179.12 637.32 l 2
 124.252162647 637.256887753 70.6024347826 587.860190342 40.936 533.144 c 1
 10.44 553.016 l 1x60
EndSplineSet
Position2: "cpsp-1" dx=0 dy=0 dh=50 dv=100
Substitution2: "c2pc-1" z.pcap
Substitution2: "c2sc-1" z.smcp
EndChar

StartChar: parenleft
Encoding: 40 40 59
Width: 383
VWidth: 1515
Flags: W
VStem: 37 55.488<45.8904 377.757>
LayerCount: 2
Fore
SplineSet
338.56 722.44 m 1
 362.68 683.384 l 1
 176.993291622 590.149296115 92.488 427.052039777 92.488 211.936 c 3
 92.488 -4.46939239664 174.477043491 -162.509880813 360.68 -258.2 c 1
 338.12 -299.752 l 1
 147.669332524 -199.317456766 37 -19.4370372183 37 211.936 c 3
 37 442.297656324 145.585828571 622.379946609 338.56 722.44 c 1
EndSplineSet
Position2: "cpsp-1" dx=0 dy=0 dh=50 dv=100
Position2: "'case' vertical ajustments for all-caps-1" dx=0 dy=125 dh=0 dv=0
EndChar

StartChar: zero
Encoding: 48 48 63
Width: 502
VWidth: 1159
Flags: W
HStem: 2.872 36.12<210.663 316.736> 352.384 39.744<183.397 295.859>
VStem: 56.872 88.288<110.529 279.305> 353.648 95.224<105.846 282.851>
LayerCount: 2
Fore
SplineSet
232.44 352.384 m 3
 170.790487976 352.384 145.16 286.046441274 145.16 228.728 c 3
 145.16 127.839637556 178.558689943 38.992 272.12 38.992 c 3
 336.327394127 38.992 353.648 110.636455003 353.648 167.712 c 3
 353.648 270.464552664 326.7096 352.384 232.44 352.384 c 3
255.872 392.128 m 3
 362.63344 392.128 448.872 302.187757439 448.872 194 c 3
 448.872 88.8289137965 367.821455632 2.872 256.872 2.872 c 3
 145.856176414 2.872 56.872 89.0451097233 56.872 194 c 3
 56.872 300.032695648 148.076582454 392.128 255.872 392.128 c 3
EndSplineSet
Substitution2: "'zero' Slashed Zero lookup 22-1" zero.alt
Substitution2: "dnom-1" zero.denom
Substitution2: "numr-1" zero.numerator
Substitution2: "lnum-1" zero.proportionallining
Substitution2: "tnum-1" zero.tabulartext
EndChar

StartChar: one
Encoding: 49 49 64
Width: 371
VWidth: 1159
Flags: W
HStem: 1.872 26<73.568 116.99 251.89 303.112> 367.44 22.688<83.568 132.308> 377.44 22.688<263.184 297.537>
VStem: 154.568 72.544<53.0214 356.499>
LayerCount: 2
Fore
SplineSet
83.568 390.128 m 1xd0
 140.106832199 386.013661751 236.817221988 386.9658565 297.112 400.128 c 1
 298.488 377.44 l 1xb0
 241.079893012 365.296077419 242.100917543 353.628755997 236.296 324.816 c 0
 235.013554687 315.970752 227.112 248.157288 227.112 200 c 3
 227.112 146.329432 234.271383279 69.8831976819 236.296 61.432 c 0
 244.304719101 33.1789268293 280.767280899 29.6802660754 303.8 29.184 c 1
 303.112 1.872 l 1
 224.677170786 8.3495390625 152.250484179 9.1620390625 73.568 1.872 c 1
 71.256 27.872 l 1
 89.3806451613 31.0832 125.455026716 34.286014977 141.448 65.432 c 0
 146.33141908 74.5182399188 154.568 96.6361504 154.568 200 c 3
 154.568 296.286236614 149.207293859 317.012049263 147.696 322.816 c 0
 139.957714286 352.181333333 145.118443429 363.383250667 82.256 367.44 c 1
 83.568 390.128 l 1xd0
EndSplineSet
Substitution2: "dnom-1" one.denom
Substitution2: "numr-1" one.numerator
Substitution2: "tnum-1" one.tabulartext
Substitution2: "lnum-1" one.proportionallining
EndChar

StartChar: two
Encoding: 50 50 65
Width: 445
VWidth: 1159
Flags: W
HStem: 2.624 76.792<135.664 367.139> 395.952 62.048<116.032 224>
VStem: 245.96 81.728<266.914 372.876>
LayerCount: 2
Fore
SplineSet
56.624 367 m 1
 83.1143227612 414.314453125 122.295272388 458 190 458 c 1
 265.828173913 458 327.688 405 327.688 335 c 3
 327.688 230.131717472 151.434086956 101.268907063 135.664 79.416 c 1
 338.312 83.04 l 2
 376.394918112 83.025166989 399.457714286 115.691478261 415.936 140.808 c 1
 436.248 123.496 l 1
 436.248 123.496 374.527081967 36.6479669422 368.752 -14.432 c 1
 334.983868852 6.56 260.496800464 2.36187556071 187 2.624 c 0
 97 2.936 38 0.312 33 0.312 c 1
 27 18 l 1
 59.7685493562 74.1696938111 245.96 177.661888002 245.96 321.88 c 3
 245.96 373.4083 202.827428572 395.952 162.448 395.952 c 1
 119.997419355 395.952 95.0807741936 376.128 76.624 353 c 1
 56.624 367 l 1
EndSplineSet
Substitution2: "dnom-1" two.denom
Substitution2: "numr-1" two.numerator
Substitution2: "tnum-1" two.tabulartext
Substitution2: "lnum-1" two.proportionallining
EndChar

StartChar: three
Encoding: 51 51 66
Width: 388
VWidth: 1159
Flags: W
HStem: -232.128 26.936<95.7431 113.205> 121.376 27.56<92.064 113.435> 391.392 60.736<132.036 212.335>
VStem: 225.704 80.416<269.27 377.906> 240.08 86.976<-77.1585 66.709>
LayerCount: 2
Fore
SplineSet
87.88 -205.192 m 1xe8
 201.76005814 -151.276179105 240.08 -101.189970149 240.08 -11.368 c 3xe8
 240.08 64.932 187.526 114.404864865 144.192 135.128 c 1
 140.330666667 135.128 112.336 121.1264 92.064 121.376 c 1
 82.128 148.936 l 1
 138.802736842 166.414295082 225.704 221.762229508 225.704 326.632 c 3
 225.704 381.094535211 185.006580645 391.392 169.632 391.392 c 3
 129.531407408 391.392 114.241616161 372.0502 91.128 357.32 c 1
 78.376 376.568 l 1
 88.9531433757 412.635332099 160.083194192 452.128 195.184 452.128 c 3
 254.686036364 452.128 306.12 407.638545454 306.12 343.376 c 3xf0
 306.12 255.029432558 211.21750495 180.251906977 207.304 176.368 c 1
 256.788297521 159.489815991 327.056 97.341879518 327.056 6 c 3
 327.056 -140.8456 143.802594595 -225.1826 98.504 -232.128 c 1
 87.88 -205.192 l 1xe8
EndSplineSet
Substitution2: "dnom-1" three.denom
Substitution2: "numr-1" three.numerator
Substitution2: "tnum-1" three.tabulartext
Substitution2: "lnum-1" three.proportionallining
EndChar

StartChar: four
Encoding: 52 52 67
Width: 463
VWidth: 1159
Flags: W
HStem: -7 21G<404.041 425.139> 0 52.676<59.68 249.136 321.68 409.073> 404.484 20G<310.479 344.936>
VStem: 249.136 72.544<-174.989 0 52.676 263.962> 321.124 23.812<406.554 414.786>
LayerCount: 2
Fore
SplineSet
250.448 52.676 m 1x60
 250.448 129.606853448 259.391125 214.420276215 247.824 266.424 c 1
 247.824 266.424 137.825904375 128.59250761 59.68 52.676 c 1
 250.448 52.676 l 1x60
344.936 410.748 m 1x68
 339.959495066 385.554117188 333.175833451 363.314968294 332.176 343.748 c 0
 326.928 232.45379798 326.2848125 178.718991516 321.68 52.52 c 1
 377.17607124 50.2802368722 401.534368494 55.0620232921 436.624 106.06 c 1
 436.624 106.06 452.9443125 99.39984375 457.624 97.06 c 1
 457.624 97.06 433.718694755 33.5830034299 416.56 -7 c 1xb0
 391.521118304 2.96587695313 348.568276467 1.37490820313 321.68 1.312 c 1
 320.914234375 -59.72215625 323.4456875 -150.892515625 336.48 -176.224 c 1
 289.04352 -200.77860274 262.28448 -225.855643836 245.256 -252.5 c 1
 245.256 -252.5 220.679994792 -237.190176809 217.008 -230.38 c 1
 253.365882353 -184.096222698 248.309828125 -98.1156406253 249.136 0 c 1x70
 77.1959112123 0 37.0187091633 1.05505882353 4.064 -17.936 c 1
 4.064 -17.936 -12.5756964286 -1.00066210938 -17.872 3.624 c 1
 -2.76073699851 19.6835278121 299.834434157 369.781038078 321.124 424.483804688 c 1
 344.936 410.748 l 1x68
EndSplineSet
Substitution2: "dnom-1" four.denom
Substitution2: "numr-1" four.numerator
Substitution2: "tnum-1" four.tabulartext
Substitution2: "lnum-1" four.proportionallining
EndChar

StartChar: five
Encoding: 53 53 68
Width: 362
VWidth: 1159
Flags: W
HStem: -215.624 34.184<43.44 105.601> 312.148 86.352<122 288.819>
VStem: 236.016 75.168<-40.6969 88.5188>
LayerCount: 2
Fore
SplineSet
95.688 393.5 m 1
 161.497760511 395.450195312 248.607718344 395.820602854 264.432 398.5 c 0
 289.100910156 402.759765625 301.895068359 428.610351562 313 448.5 c 1
 313 448.5 333.32496875 437.099698661 338.248 434.812 c 1
 309.396393663 390.656519804 287.39004856 311.252011532 270.432 312.148 c 0
 239.185104634 313.644070312 185.477472629 309.148 122 309.148 c 1
 122 309.148 118.560480469 257.789038105 115.872 217.188 c 1
 199.128 224.3 311.184 177.490324519 311.184 48.5 c 3
 311.184 -95.9369392493 152.971636364 -206.602686907 43.44 -215.624 c 1
 43.44 -215.624 43.832859375 -187.688845215 41.128 -181.44 c 1
 121.771310345 -180.422900474 236.016 -96.0848486375 236.016 21.76 c 3
 236.016 77.7044885963 195.001302857 150.885935484 68.504 139.208 c 1
 78.83392 198.17426087 91.72933 300.481916294 95.688 393.5 c 1
EndSplineSet
Substitution2: "dnom-1" five.denom
Substitution2: "numr-1" five.numerator
Substitution2: "tnum-1" five.tabulartext
Substitution2: "lnum-1" five.proportionallining
EndChar

StartChar: six
Encoding: 54 54 69
Width: 487
VWidth: 1159
Flags: W
HStem: -8.128 43.744<233.806 335.416> 314.696 47.432<222.695 309.483>
VStem: 71.936 86.976<133.372 346.858> 364.08 75.856<96.4024 243.432>
LayerCount: 2
Fore
SplineSet
371.184 628.44 m 1
 371.184 628.44 379.3146875 612.291468751 384.432 605.128 c 1
 237.981818182 534.032273171 158.912 418.966994385 158.912 253.36 c 3
 158.912 147.886908568 204.846720394 35.616 295.368 35.616 c 3
 336.753339816 35.616 364.08 77.7422291268 364.08 130.768 c 3
 364.08 238.011648282 318.41234413 314.696 256.752 314.696 c 3
 236.98014974 314.696 224.92 303.688 210.536 288.552 c 1
 193.904 309.728 l 1
 210.095338152 340.551490036 250.435190969 362.128 300.048 362.128 c 3
 370.937388444 362.128 439.936 275.084828351 439.936 178 c 3
 439.936 74.7833008143 343.463669435 -8.128 257.936 -8.128 c 3
 130.919571966 -8.128 71.936 126.426570585 71.936 214 c 3
 71.936 411.263811797 196.455209455 570.657672507 371.184 628.44 c 1
EndSplineSet
Substitution2: "dnom-1" six.denom
Substitution2: "numr-1" six.numerator
Substitution2: "tnum-1" six.tabulartext
Substitution2: "lnum-1" six.proportionallining
EndChar

StartChar: seven
Encoding: 55 55 70
Width: 420
VWidth: 1159
Flags: W
HStem: 323.088 80.416<90.467 324.56>
LayerCount: 2
Fore
SplineSet
90.184 424.184 m 1
 96.0832 408.956807017 110.921750657 404.10604876 123.184 403.504 c 0
 243.448794929 397.0388125 417.779636364 400.88 431.808 406.128 c 1
 431.808 406.128 438.026406249 389.9333125 442.12 384.816 c 1
 400.816 355.44 158.544 -113.904 162.544 -168.752 c 1
 162.544 -168.752 107.66775 -168.848281249 75.944 -169.872 c 1
 174.348761795 -8.78875051548 245.146719864 105.429923939 340.584 295.16 c 0
 345.009768718 303.97898853 337.961597299 316.51282822 327.776 317.84 c 0
 258.324549345 325.246875 242.905917472 328.297285871 144.184 323.088 c 0
 89.4601219217 318.989746428 62.0744837484 309.211938353 45.064 265.216 c 1
 45.064 265.216 24.6911875 273.793843751 16.504 275.84 c 1
 18.5387826087 280.036619718 59.5866316706 392.714642203 66.184 427.624 c 1
 90.184 424.184 l 1
EndSplineSet
Substitution2: "dnom-1" seven.denom
Substitution2: "numr-1" seven.numerator
Substitution2: "tnum-1" seven.tabulartext
Substitution2: "lnum-1" seven.proportionallining
EndChar

StartChar: eight
Encoding: 56 56 71
Width: 468
VWidth: 1159
UnlinkRmOvrlpSave: 1
Flags: W
HStem: -5.128 36.808<212.32 313.504> 597.256 31.872<182.39 265.936>
VStem: 68.12 78.792<100.754 219.838> 99.12 52.424<451.228 558.464> 316.136 66.984<425.679 548.64> 340.888 77.232<78.1543 208.627>
LayerCount: 2
Fore
SplineSet
220.688 597.256 m 3xe8
 189.692481244 597.256 151.544 563.729276815 151.544 522.56 c 3
 151.544 367.942015625 418.12 332.292314009 418.12 155 c 3xd4
 418.12 59.37131305 337.12193229 -5.128 228.12 -5.128 c 3
 148.324822264 -5.128 68.12 44.32413466 68.12 137.056 c 3
 68.12 326.665826201 316.136 330.002804959 316.136 475.376 c 3
 316.136 515.806773511 288.243230882 597.256 220.688 597.256 c 3xe8
239.056 629.128 m 3
 309.685839548 629.128 383.12 592.772359055 383.12 497 c 3
 383.12 344.232854886 146.912 337.178595546 146.912 178.928 c 3xe8
 146.912 107.592019764 201.887341265 31.68 262.984 31.68 c 3
 328.086931609 31.68 340.888 88.0544981816 340.888 125.2 c 3
 340.888 196.723764302 305.299137313 242.118423376 246.149531249 288.137539063 c 0
 174.17102482 345.142544099 99.12 400.630858132 99.12 484 c 3
 99.12 576.842643802 184.381270167 629.128 239.056 629.128 c 3
EndSplineSet
Substitution2: "dnom-1" eight.denom
Substitution2: "numr-1" eight.numerator
Substitution2: "lnum-1" eight.proportionallining
Substitution2: "tnum-1" eight.tabulartext
EndChar

StartChar: uniFB00
Encoding: 64256 64256 73
Width: 642
VWidth: 1159
Flags: W
HStem: -6.312 39.496<26.824 93.1084 490.145 587.196> 0.688 34.496<206.695 274.394 322.12 377.278 490.311 584.506> 355.008 41.056<33.384 110.504 200.104 395.568 483.792 628.368> 659.64 64.672<280.99 378.474> 691.016 64.672<564.222 668.518>
VStem: 111.816 85.664<48.9214 355.008 396.064 582.844> 396.88 84.288<49.3958 287.072 343.831 355.008 396.064 605.285>
LayerCount: 2
Fore
SplineSet
395.568 396.064 m 1x36
 395.568 434.557 394.192 478.972 394.192 490.816 c 1
 394.192 543.207221262 404.45872741 582.367987135 423.4364375 614.517257813 c 1
 389.226374903 632.56794456 342.792386897 659.64 305.568 659.64 c 1
 191.270509629 659.64 205.572093991 581.695879363 203.976 485.384 c 1
 203.547907395 472.466799193 201.416 431.48150495 200.104 396.064 c 1
 226.168492286 397.759480608 261.563113266 398.697514702 296.300507813 399.285796875 c 1
 338.295740774 399.76720354 378.099079535 397.304331488 395.568 396.064 c 1x36
489.552 686.56 m 1
 496.722625 692.382671875 505.152695139 698.703589691 513.928 704.312 c 0
 558.076481136 732.811527635 593.265244444 755.688 654.856 755.688 c 1
 682.05353271 755.688 733.736 746.248 759.36 723.624 c 1
 758.048 692.568 752.184 689.18840625 694.76 647.456 c 1
 661.512804687 663.940484375 626.574222222 691.016 589.256 691.016 c 1
 474.958509629 691.016 490.435077547 593.587961838 489.04 495.816 c 1
 488.611907395 481.679993946 485.104 433.594455446 483.792 396.064 c 1
 533.105907285 398.688 579.054092715 398.688 628.368 401.312 c 1
 628.368 348.448 l 1
 578.929684211 351.072 531.918315789 352.384 482.48 355.008 c 1
 481.168 324.588895523 481.168 298.682201603 481.168 287.072 c 1
 481.168 209.032702929 483.393593289 135.908275975 489.04 59.616 c 0
 490.342996043 43.0204094179 498.234051977 36.3858108019 515.784 35.184 c 0
 540.928900246 33.872 564.19430137 33.872 589.408 33.184 c 1
 586.72 -6.312 l 1xae
 539.806 -1.312 472.786 0.688 425.872 0.688 c 3
 394.629246633 0.688 354.55678809 -1.70723431416 322.12 -6 c 1
 322.12 -6 320.00762851 30.4245751194 319.352796875 33.5709375 c 1
 329.02757661 34.2247362784 340.97526355 33.8629320891 350.816 35.496 c 0
 377.061920524 41.0166 382.300729908 55.9775762853 385.632 86.616 c 0
 391.507472807 136.559914584 396.88 201.556540541 396.88 263.816 c 1
 396.88 283.178478455 395.568 319.113276596 395.568 355.008 c 1
 377.642097555 353.73546726 338.585364317 351.300205364 296.023851563 351.935820313 c 1
 261.511011173 350.773549272 224.841572434 353.323062548 198.792 355.008 c 1
 197.48 324.588895523 197.48 298.682201603 197.48 287.072 c 1
 197.48 209.032702929 199.705593289 134.43575261 205.352 59.616 c 0
 206.700942094 43.0188703112 215.24148684 36.0718190253 233.032 35.184 c 0
 252.125382705 34.4354380083 260.187806684 34.5853024226 279.24 33.9222578125 c 1
 277.68 30.7942729127 276.304 -7 276.304 -7 c 1
 235.703235616 -1.68533976136 185.669712583 0.688 142.184 0.688 c 3x66
 109.535232956 0.688 59.4730566038 -2.312 26.824 -6.312 c 1xa6
 25.824 32.496 l 1
 36.252 33.184 49.0096354798 33.7761952997 59.952 35.496 c 0
 94.3199052058 41.6406 98.5882176798 55.8349809138 101.944 86.616 c 0
 107.819472807 136.559914584 111.816 201.556540541 111.816 263.816 c 1
 111.816 283.178478455 110.504 319.113276596 110.504 355.008 c 1
 84.449945946 353.696 59.4380540541 349.76 33.384 348.448 c 1
 33.384 401.312 l 1
 59.4380540541 400 84.449945946 397.376 110.504 396.064 c 1
 110.504 422.896 110.504 472.128 110.504 480.384 c 1
 110.504 587.74521327 156.258453144 625.01394613 230.24 672.936 c 0
 274.388481136 701.435527635 312.329244444 724.312 373.92 724.312 c 1
 400.79590371 724.312 462.044591054 709.773608524 489.552 686.56 c 1
EndSplineSet
Substitution2: "salt-1" uniFB00.alt
LCarets2: 1 311
Ligature2: "liga-1" f f
EndChar

StartChar: question
Encoding: 63 63 74
Width: 378
VWidth: 1159
Flags: W
HStem: -28.488 154.976<94.1124 139.224> 537.765 105.477<69.7788 196.673> 680.426 20G<42.5833 64.6897>
VStem: 26.0133 26.6107<672.043 696.808> 40.2155 156.101<24.3704 70.7323> 109.376 18<186.872 220.785> 273.064 27.936<383.793 477.458>
LayerCount: 2
Fore
SplineSet
38 536.707139062 m 1xf6
 40.5965838466 556.629558302 41.6454795133 573.88797514 41.6454795133 588.855356959 c 1
 41.6454795133 655.396098299 26.0132824673 676.517450981 26.0132824673 689.04340812 c 1
 26.0132824673 697.166240469 32.5426070726 697.140122372 52.624 700.4256 c 1
 76.7553947826 642.892425532 83.560214284 643.2416 113.744 643.2416 c 3
 206.119715218 643.2416 301 564.296406963 301 444.800060938 c 3
 301 280.753086971 197.620976209 268.454724049 184.48 263.048060938 c 0
 149.036585454 245.304060937 130.837281091 227.340611376 127.376 186.872 c 1
 127.376 186.872 114.172256 185.671939063 109.376 185.671939063 c 1
 105.146936669 218.118565685 101.302941803 247.265963677 101.302941803 273.151694065 c 3
 101.302941803 313.83709388 108.232835741 351.636254219 139.488 359.456060938 c 1
 164.18633609 369.163052938 273.064 328.955277751 273.064 432.992060938 c 3
 273.064 499.942792931 204.605202492 537.764886907 83.3918183838 537.764886907 c 3
 69.2414266804 537.764886907 54.1247417924 537.409762959 38 536.707139062 c 1xf6
EndSplineSet
Refer: 48 46 N 1 0 0 1 18 0 2
Position2: "cpsp-1" dx=0 dy=0 dh=50 dv=100
Substitution2: "smcp-1" question.smcp
Substitution2: "pcap-1" question.pcap
EndChar

StartChar: exclam
Encoding: 33 33 75
Width: 266
VWidth: 1159
Flags: W
HStem: -28.488 154.976<99.1124 144.224>
VStem: 45.2155 156.101<24.3704 70.7323> 105.256 51.552<209.312 419.85>
LayerCount: 2
Fore
SplineSet
105.256 209.312 m 1xa0
 105.256 339.186814815 102.632 437.092444444 93.448 533 c 0
 88.2 580.242424 56.712 604.366288 59.336 654.624 c 1
 165.608 667.744 214.536 704.48 221.096 663.808 c 1
 200.104 627.018407322 202.728 594.532413517 194.856 533 c 0
 180.424 408 156.808 342 156.808 208 c 1
 105.256 209.312 l 1xa0
EndSplineSet
Refer: 48 46 N 1 0 0 1 23 0 2
Substitution2: "pcap-1" exclam.pcap
Substitution2: "smcp-1" exclam.smcp
Position2: "cpsp-1" dx=0 dy=0 dh=50 dv=100
EndChar

StartChar: paragraph
Encoding: 182 182 76
Width: 591
VWidth: 1159
UnlinkRmOvrlpSave: 1
Flags: W
HStem: -6.752 21G<361.29 463.683> 661 20G<337.04 381.698>
VStem: 63.9707 189.181<202.402 436.417> 329.04 42.368<60.432 463.945> 337.04 44.992<261.743 670.504>
LayerCount: 2
Fore
SplineSet
337.04 670.504 m 1xe8
 382.032 681 l 1xe8
 371.408 44.688 l 1
 329.04 60.432 l 1xf0
 337.04 670.504 l 1xe8
555.624 739.752 m 1
 557.624 675.08 l 1
 518.214325582 672.821 375.897199626 674.608765569 315.536 638.936 c 0
 267.021838751 609.773145933 253.152 587.87619071 253.152 262.792 c 3
 253.152 142.0112 281.08303839 112.437432435 300.104 90.248 c 0
 314.1817941 75.3993125 422.073158879 57.1537604167 471.808 56.608 c 1
 459.936 -6.752 l 1
 262.643829185 36.7471957304 224.780110568 71.203436212 170.56 132.872 c 0
 113.965514563 198.483471698 86.9465983891 280.29938986 70.056 343.624 c 0
 66.9037067981 355.435669409 63.9706875 365.149329136 63.9706875 374.858015625 c 3
 63.9706875 381.526377395 65.8394203057 389.912925193 69.056 398.376 c 0
 98.696 476.281674418 148.889033403 586.443434006 248.872 656.064 c 0
 350.458701299 726.800285714 555.624 739.752 555.624 739.752 c 1
EndSplineSet
Position2: "cpsp-1" dx=0 dy=0 dh=50 dv=100
EndChar

StartChar: ampersand
Encoding: 38 38 78
Width: 676
VWidth: 1159
Flags: W
HStem: -9.128 67.296<171.231 302.787> -3.128 51.6246<517.652 608.192> 455.259 38.5569<593.241 653.268> 490.003 35.9329<477.152 500.48>
VStem: 17 86.976<130.134 262.397> 81 42.368<475.756 569.231> 280.732 73.856<461.286 545.484>
LayerCount: 2
Fore
SplineSet
197.164 350.764921875 m 1x0a
 138.61226149 324.924994621 103.976 274.624096243 103.976 229.728 c 3
 103.976 120.956491118 158.953490823 58.168 255.416 58.168 c 3
 314.420052703 58.168 348.979774421 108.570740744 376.796 139.260921875 c 1
 306.328 302.064 234.261799019 335.263579841 197.164 350.764921875 c 1x0a
185.612 583.828921875 m 1
 154.457384786 583.828921875 123.368 559.576 123.368 530.928 c 3x06
 123.368 468.33609446 186.331871807 442.138712358 227.652 414.812921875 c 1
 263.3151952 439.187266717 280.732 460.508094296 280.732 484.324921875 c 3
 280.732 523.7413704 248.307280681 583.828921875 185.612 583.828921875 c 1
653.268 455.259078125 m 1x26
 607.721645296 455.259078125 580.451418163 433.749371292 561.064 396.904 c 0
 521.631705074 317.981743159 491.627142609 263.591677406 448.78 185.804921875 c 1
 490.392061106 77.5292039031 533.1176037 48.496619625 564.332939951 48.496619625 c 3
 604.27625043 48.496619625 624.607382814 89.6508053616 638.504 123.496 c 1
 672.312 109.56 l 1
 642.2633052 40.7505188636 620.8056346 -3.128 526.88 -3.128 c 3x66
 476.802642862 -3.128 426.407480519 37.2814337727 399.76 97.392 c 1
 369.632 66.144 326.796878195 -9.128 199 -9.128 c 3
 75.6319845835 -9.128 17 91.1939535592 17 172 c 3x8a
 17 270.354384994 85.7411737931 340.688513467 164.164 370.636921875 c 1
 118.801794603 398.132586497 81 444.663565847 81 506 c 3
 81 591.707421617 156 623.901078335 231 650.816 c 1
 318.541558466 620.111250867 354.588 570.994908239 354.588 492.196921875 c 3
 354.588 480.959095559 300.407779491 424.359869033 265.148 397.564921875 c 1
 326.774598383 373.037187644 392.122412906 302.1786484 426.752 224.736 c 1
 462.119249293 284.302406937 510.344557949 386.04975479 521.008 431.456 c 0
 528.04902176 462.940499232 487.106205041 482.575209821 467.164 490.003078125 c 1
 479.568 525.936 l 1x96
 524.823923905 508.214696 603.48337789 492.70836 657.36 493.816 c 1
 653.268 455.259078125 l 1x26
EndSplineSet
Substitution2: "pcap-1" ampersand.pcap
Substitution2: "smcp-1" ampersand.smcp
Position2: "cpsp-1" dx=0 dy=0 dh=50 dv=100
EndChar

StartChar: quotesingle
Encoding: 39 39 79
Width: 200
VWidth: 1159
Flags: W
HStem: 443.828 257.744<75.568 123.056>
VStem: 45.072 108.48<542.48 701.572> 75.568 47.488<443.828 615.342>
LayerCount: 2
Fore
SplineSet
45.072 701.572060937 m 1xc0
 153.552 701.572060937 l 1xc0
 152.425826286 611.088668937 125.959654857 563.658268938 123.056 443.828060937 c 1
 75.568 443.828060937 l 1xa0
 72.5299449143 563.496892938 46.3674265143 611.293340937 45.072 701.572060937 c 1xc0
EndSplineSet
Position2: "cpsp-1" dx=0 dy=0 dh=7 dv=14
EndChar

StartChar: bracketleft
Encoding: 91 91 85
Width: 246
VWidth: 1515
Flags: W
HStem: -231.872 35.808<142.446 219> 684.376 34.496<150.101 219>
VStem: 37 52.864<-184.256 671.256>
LayerCount: 2
Fore
SplineSet
89.864 671.256 m 1
 89.864 -184.256 l 1
 219 -196.064 l 1
 219 -231.872 l 1
 37 -231.872 l 1
 37 718.872 l 1
 219 718.872 l 1
 219 684.376 l 1
 89.864 671.256 l 1
EndSplineSet
Position2: "cpsp-1" dx=0 dy=0 dh=50 dv=100
Position2: "'case' vertical ajustments for all-caps-1" dx=0 dy=90 dh=0 dv=0
EndChar

StartChar: asterisk
Encoding: 42 42 87
Width: 362
VWidth: 1159
Flags: W
HStem: 531.757 89.8575<45.1693 100.049>
VStem: 126.719 96.1863<619.542 694.866>
LayerCount: 2
Fore
SplineSet
188.001502619 523.096586573 m 1
 161.386892763 464.839635315 175.255691764 440.708084636 143.166674559 382.090535399 c 1
 112.990674559 376.842535399 74.771385981 416.232835109 68.211385981 439.848835109 c 1
 106.965389061 493.351941602 128.954853743 486.721321654 169.342529337 533.40527721 c 1
 105.49097038 538.921540661 87.911743625 520.807043844 22.9243447367 531.757372413 c 1
 7.18034473672 561.933372413 36.7215090087 609.806897408 52.4655090087 621.614897408 c 1
 115.983625988 602.761979159 114.709595364 578.975950729 172.934069739 554.936204719 c 1
 159.850586468 615.642583596 134.568501307 624.936669813 126.71948576 692.617859488 c 1
 146.39948576 713.609859488 201.913749087 706.423431562 222.905749087 690.679431562 c 1
 222.791500751 623.307775831 202.188179109 617.25804009 195.615483145 557.039820561 c 1
 249.005992143 589.764467861 251.698136179 614.503679369 312.248717984 642.784705558 c 1
 333.240717984 633.600705558 351.304868428 586.700569777 339.496868428 552.588569777 c 1
 276.058477729 531.545403368 263.614530943 549.744121096 204.645036052 536.473952387 c 1
 251.84262618 494.216828645 276.250168522 499.661626558 322.854352855 450.710558748 c 1
 320.230352855 424.470558748 274.678300489 397.935378213 244.502300489 397.935378213 c 1
 204.662511957 453.415140311 219.581144089 471.677775205 188.001502619 523.096586573 c 1
EndSplineSet
EndChar

StartChar: Acute
Encoding: 58018 58018 90
Width: 222
VWidth: 1159
Flags: W
HStem: 742.359 155.259
VStem: 26.3685 238.067
LayerCount: 2
Fore
SplineSet
26.368546875 781.957054688 m 1
 78.1962890625 820.842382813 166.546234375 872.07653125 224.178046875 897.617242187 c 1
 226.10296875 895.582804687 252.160539063 856.582789063 264.435171875 817.58496875 c 1
 203.593398438 810.81228125 122.67321875 783.86903125 39.55853125 742.3586875 c 1
 26.368546875 781.957054688 l 1
EndSplineSet
EndChar

StartChar: acutecomb
Encoding: 769 769 92
Width: 0
VWidth: 1159
Flags: W
HStem: 425.752 229.422
VStem: -235.426 176.63
LayerCount: 2
Fore
SplineSet
-235.425632 449.756 m 1
 -211.6890795 510.41544252 -164.109521 601.825128 -129.347328 655.174016 c 1
 -126.821105259 654.65425136 -87.2068089947 638.494491296 -58.7952992 614.44544 c 1
 -105.038670375 574.21475544 -158.064042375 506.41557728 -205.986592 425.751712 c 1
 -235.425632 449.756 l 1
EndSplineSet
EndChar

StartChar: uni0302
Encoding: 770 770 93
Width: 0
VWidth: 1159
Flags: W
HStem: 422.288 184.925
VStem: -309.704 224.408
LayerCount: 2
Fore
SplineSet
-85.296 435.7376 m 1
 -104.862060937 422.288121875 l 1
 -197.344 515.658306125 l 1
 -290.137939062 422.288121875 l 1
 -309.704 435.7376 l 1
 -214.2144 607.2128 l 1
 -180.7856 607.2128 l 1
 -85.296 435.7376 l 1
EndSplineSet
EndChar

StartChar: gravecomb
Encoding: 768 768 94
Width: 0
VWidth: 1159
Flags: W
HStem: 428.67 229.421
VStem: -343.878 176.628
LayerCount: 2
Fore
SplineSet
-167.249792 452.673888 m 1
 -196.68752 428.6696 l 1
 -244.610069625 509.33215328 -297.635441625 577.13233612 -343.877632 617.363328 c 1
 -315.663452429 641.32256946 -274.845083621 657.30444657 -273.328096 658.090592 c 1
 -238.564591 604.743016 -190.9876565 513.3336472 -167.249792 452.673888 c 1
EndSplineSet
EndChar

StartChar: Grave
Encoding: 58019 58019 96
Width: 222
VWidth: 1159
Flags: W
HStem: 742.141 155.257
VStem: -119.82 238.064
LayerCount: 2
Fore
SplineSet
118.243664063 781.738695312 m 1
 105.055570312 742.1409375 l 1
 21.94125 783.65 -58.979296875 810.594898437 -119.820398438 817.3685 c 1
 -107.670734375 856.16390625 -80.4762890625 895.756882812 -79.5638828125 897.397601563 c 1
 -21.9314609375 871.858476562 66.4156171875 820.623351563 118.243664063 781.738695312 c 1
EndSplineSet
EndChar

StartChar: uni030A
Encoding: 778 778 98
Width: 0
VWidth: 1159
Flags: W
HStem: 424.047 34.0367<-233.365 -164.581> 543.916 34.0367<-231.419 -163.799>
VStem: -276.535 34.852<466.653 534.62> -154.317 34.852<467.38 534.438>
LayerCount: 2
Fore
SplineSet
-198 543.916373 m 1
 -220.682026863 543.916373 -241.683401937 525.434699525 -241.683401937 500.232268437 c 1
 -241.683401937 474.942445396 -221.521696758 458.083627 -198 458.083627 c 1
 -175.317973137 458.083627 -154.316598063 476.565300475 -154.316598063 501.767731563 c 1
 -154.316598063 525.371140949 -174.478303242 543.916373 -198 543.916373 c 1
-198 577.953030937 m 1
 -155.711581366 577.953030937 -119.46457875 544.78881746 -119.46457875 502.582390313 c 1
 -119.46457875 457.273637042 -157.22193537 424.046969063 -198 424.046969063 c 1
 -240.288418634 424.046969063 -276.53542125 454.195300478 -276.53542125 499.417609687 c 1
 -276.53542125 544.72542433 -238.77806463 577.953030937 -198 577.953030937 c 1
EndSplineSet
EndChar

StartChar: uni031B
Encoding: 795 795 99
Width: 0
VWidth: 1159
Flags: W
HStem: 330 18<-84.5 -47.4434>
VStem: 0.988969 74.636<400.292 464.723>
LayerCount: 2
Fore
SplineSet
0.98896875 405.4888125 m 3
 0.98896875 417.419943798 -11.7277045682 429.10204407 -29.1970078125 443.198703125 c 1
 -17.1457520641 473.351146637 5.42362198205 492.322265625 28.15103125 492.322265625 c 3
 59.6228013158 492.322265625 75.625 464.801421875 75.625 444.775390625 c 3
 75.625 399.205078125 -15.2378927954 330.428 -84.5 330 c 1
 -85 348 l 1
 -46.6864141017 349.25833769 0.98896875 376.838470743 0.98896875 405.4888125 c 3
EndSplineSet
EndChar

StartChar: tildecomb
Encoding: 771 771 100
Width: 0
VWidth: 1159
Flags: W
HStem: 419.35 21G<-346.619 -307.647> 429.061 71.232<-215.341 -119.168> 465.324 70.5052<-294.366 -197.381>
VStem: -346.619 276.104
LayerCount: 2
Fore
SplineSet
-346.618912 433.124448 m 1xb0
 -319.420231919 491.481815901 -277.377379827 535.829026812 -270.606592937 535.829026812 c 3xb0
 -229.911952181 535.829026812 -184.974879973 500.293387562 -143.8048375 500.293387562 c 3
 -133.115853339 500.293387562 -114.671267859 522.777080559 -104.696448 550.577088 c 1
 -70.5149216 536.579168 l 1
 -90.32631517 482.269280949 -130.417369198 429.061387562 -140.0559415 429.061387562 c 3x50
 -177.721548962 429.061387562 -234.786665098 465.323874813 -273.164753625 465.323874813 c 3
 -286.604388746 465.323874813 -303.808 432.275552 -311.48512 419.35024 c 1
 -346.618912 433.124448 l 1xb0
EndSplineSet
EndChar

StartChar: uni0306
Encoding: 774 774 105
Width: 0
VWidth: 1159
Flags: W
HStem: 438.146 64.3033<-271.386 -124.317>
VStem: -330.919 29.5411<537.783 548.249> -93.6304 29.5577<538.22 548.262>
LayerCount: 2
Fore
SplineSet
-330.919351645 544.366183037 m 1
 -301.378240479 560.752645493 l 1
 -286.752106655 522.484396938 -242.662181124 502.449328 -197.843632 502.449328 c 0
 -153.149915112 502.449328 -108.90053274 522.387104124 -93.630352809 560.717461098 c 1
 -64.0726306024 544.396544004 l 1
 -83.6891486152 473.021393928 -141.228795451 438.146 -198.026 438.146 c 0
 -254.830733699 438.146 -312.013812549 473.00262582 -330.919351645 544.366183037 c 1
EndSplineSet
EndChar

StartChar: uni0313
Encoding: 787 787 111
Width: 0
VWidth: 1159
Flags: W
HStem: 430.095 219.03
VStem: -224.195 128.518
LayerCount: 2
Fore
SplineSet
-211.7408125 430.095046875 m 1
 -224.195296875 452.619539063 l 1
 -196.655257813 465.8386875 -154.066617187 499.3134375 -167.605085937 529.770140625 c 0
 -176.463734375 549.864945313 -196.676390625 563.540539063 -215.337320313 573.199007813 c 0
 -219.892601563 574.903523437 -222.018195312 581.289460937 -222.018195312 586.6129375 c 3
 -222.018195312 592.014046875 -219.86365625 596.295109375 -215.084734375 598.153492188 c 0
 -196.810453125 607.821710938 -183.227710937 622.915398437 -172.91940625 640.57140625 c 0
 -171.018367188 645.127359375 -165.540414063 649.124984375 -160.062460937 649.124984375 c 3
 -154.697304687 649.124984375 -149.031054687 645.099328125 -147.2061875 640.318515625 c 0
 -138.22290625 622.803273437 -121.551210937 608.447539063 -103.420742187 598.153492188 c 0
 -98.8654609375 596.280484375 -95.6777109375 591.97809375 -95.6777109375 586.6129375 c 1
 -95.6777109375 582.510953125 -95.43771875 490.07371875 -211.7408125 430.095046875 c 1
EndSplineSet
EndChar

StartChar: uni0315
Encoding: 789 789 113
Width: 0
VWidth: 1159
Flags: W
HStem: 450.494 207.375
VStem: -62.87 72.544<573.348 638.505>
LayerCount: 2
Fore
SplineSet
-62.87 657.868963438 m 1
 9.674 636.436963438 l 1
 -5.60370421817 576.147565015 -37.7176572364 499.444631957 -106 450.494 c 1
 -126 464.494 l 1
 -88.8646946717 522.045702209 -71.0158187472 588.254337765 -62.87 657.868963438 c 1
EndSplineSet
EndChar

StartChar: Circumflex
Encoding: 58020 58020 159
Width: 281
VWidth: 1159
Flags: HMW
LayerCount: 2
Fore
SplineSet
279.504963437 763.857102375 m 1
 254.90520475 745.982841563 l 1
 140.5 786.647209625 l 1
 26.0953063375 745.982841563 l 1
 1.4951191225 763.857102375 l 1
 121.845907375 864.704121875 l 1
 159.154092625 864.704121875 l 1
 279.504963437 763.857102375 l 1
EndSplineSet
EndChar

StartChar: Tilde
Encoding: 58022 58022 161
Width: 329
VWidth: 1159
Flags: W
HStem: 749.061 71.232<158.246 264.504> 785.324 70.5052<70.935 178.089>
VStem: 13.2028 305.056
LayerCount: 2
Fore
SplineSet
13.202765625 753.124117187 m 1x60
 43.2531484375 811.482226563 89.705140625 855.828914062 97.1859375 855.828914062 c 3x60
 142.147664063 855.828914062 191.796539063 820.29334375 237.283625 820.29334375 c 3
 249.09328125 820.29334375 269.472460937 842.777453125 280.493359375 870.577375 c 1
 318.258554687 856.57925 l 1
 296.370007813 802.269390625 252.07521875 749.06134375 241.425710937 749.06134375 c 3xa0
 199.810171875 749.06134375 136.761789062 785.3236875 94.3593359375 785.3236875 c 3
 79.510203125 785.3236875 60.5028359375 752.275882813 52.0205234375 739.349929687 c 1
 13.202765625 753.124117187 l 1x60
EndSplineSet
EndChar

StartChar: Breve
Encoding: 58023 58023 162
Width: 321
VWidth: 1159
Flags: W
HStem: 747.448 61.8813<74.7525 244.745>
VStem: 16.7646 287.47
LayerCount: 2
Fore
SplineSet
16.7646 838.464 m 1
 49.681485375 854.358046313 l 1
 65.4970847792 824.370190809 112.712510926 809.3290106 160.081534604 809.3290106 c 3
 207.359255556 809.3290106 254.789957587 824.307384634 271.317858625 854.358046313 c 1
 304.235 838.464 l 1
 283.3205 777.7865 221.529825 747.44775 159.9293125 747.44775 c 3
 98.3288 747.44775 36.91845 777.7865 16.7646 838.464 c 1
EndSplineSet
EndChar

StartChar: Ring
Encoding: 58026 58026 165
Width: 281
VWidth: 1159
Flags: W
HStem: 732.488 42.856<99.8276 178.369> 868.246 42.856<100.63 178.865>
VStem: 48.295 43.8427<782.341 860.441> 186.862 43.8426<783.148 860.258>
LayerCount: 2
Fore
SplineSet
139.5 868.246 m 1
 114.908 868.246 92.1377 848.208 92.1377 820.884 c 1
 92.1377 793.56 113.998 775.344 139.5 775.344 c 1
 164.092 775.344 186.862 795.382 186.862 822.706 c 1
 186.862 848.208 165.002 868.246 139.5 868.246 c 1
139.5 911.10203475 m 1
 188.610814387 911.10203475 230.704592937 872.641255853 230.704592937 823.692606937 c 1
 230.704592937 771.073274632 186.856028148 732.488014 139.5 732.488014 c 1
 90.3892494817 732.488014 48.2950134625 767.451785125 48.2950134625 819.897441812 c 1
 48.2950134625 872.514665 92.1437208384 911.10203475 139.5 911.10203475 c 1
EndSplineSet
EndChar

StartChar: Uni030B
Encoding: 58027 58027 166
Width: 300
VWidth: 1159
Flags: W
HStem: 727.059 187.749
VStem: 19.096 266.642
LayerCount: 2
Fore
SplineSet
19.096 755.3296 m 1
 36.352 803.7136 58.4235167785 863.23286747 89.696 914.808 c 1
 89.696 914.808 129.549117064 895.483859394 154.648 879.8976 c 1
 110.913647059 836.333574873 94.2529411765 812.57137935 48.436 733.364060937 c 1
 19.096 755.3296 l 1
120.337952 756.581504 m 1
 147.119392 793.190816 188.401628459 847.729541522 234.054464 888.73824 c 1
 234.054464 888.73824 266.386136288 858.334045865 285.738496 835.873408 c 1
 231.556283302 806.848380582 208.751915782 789.048415784 141.861216 727.059264 c 1
 120.337952 756.581504 l 1
EndSplineSet
EndChar

StartChar: eogonek
Encoding: 281 281 253
Width: 409
VWidth: 1159
UnlinkRmOvrlpSave: 1
Flags: W
HStem: -303.658 70.072<247.753 335.587>
VStem: 178.744 83.3142<-220.319 -116.105>
LayerCount: 2
Back
SplineSet
366.630859375 52.54296875 m 5xd0
 276.377929688 -47.1502175719 262.771484375 -94.5674013864 262.771484375 -186 c 7
 262.771484375 -236.143554688 288.107421875 -265.872070312 320.166015625 -265.872070312 c 7
 339.918945312 -265.872070312 363.635742188 -255.18359375 387.97265625 -231.599609375 c 13
 387.97265625 -231.599609375 399.081054688 -241.926757812 401.771484375 -250 c 5
 374.767578125 -302.788085938 329.271484375 -326 287.771484375 -326 c 7
 237.798828125 -326 193.561523438 -284.413085938 193.561523438 -214.834960938 c 7
 193.561523438 -150.617750838 236.666992188 -26.3930451996 359.931640625 73.76171875 c 5
 366.630859375 52.54296875 l 5xd0
EndSplineSet
Fore
SplineSet
364.008195313 48.5730859375 m 1
 277.239671875 -37.572490708 262.058296875 -91.0656160734 262.058296875 -167.469695313 c 3
 262.058296875 -208.684148437 286.484742187 -233.5861875 319.335828125 -233.5861875 c 3
 329.066804687 -233.5861875 341.283335937 -230.862898437 357.091070313 -223.007148437 c 1
 354.924132813 -221.648242187 367.610570313 -233.413515625 370.057492187 -240.99225 c 1
 346.7761875 -284.774703125 307.866164063 -303.658203125 272.640789063 -303.658203125 c 3
 222.865632812 -303.658203125 178.744109375 -266.175078125 178.744109375 -202.493164062 c 3
 178.744109375 -143.146655105 224.491460937 -25.5041595729 357.47265625 69.5389453125 c 1
 364.008195313 48.5730859375 l 1
EndSplineSet
Refer: 4 101 N 1 0 0 1 0 0 3
Substitution2: "smcp-1" eogonek.smcp
Substitution2: "case-1" Eogonek
Substitution2: "pcap-1" eogonek.pcap
EndChar

StartChar: uni0328
Encoding: 808 808 254
Width: 0
VWidth: 1159
Flags: W
HStem: -300 70.0721<-210.597 -122.762>
VStem: -279.606 83.3142<-216.661 -123.901>
LayerCount: 2
Back
SplineSet
-94.3691 15.543 m 1
 -195.162388974 -70.3584937184 -226.228515625 -111.215514218 -226.228515625 -190 c 3
 -226.228515625 -221.309227792 -201.775586907 -239.872070312 -170.833984375 -239.872070312 c 3
 -154.801506148 -239.872070312 -135.55173736 -232.614365408 -115.798828125 -216.599609375 c 1
 -115.798828125 -216.599609375 -104.690305483 -226.926828613 -102 -235 c 1
 -125.978710258 -280.147631579 -166.377945685 -300 -203.228515625 -300 c 3
 -253.201025342 -300 -297.438476562 -268.513714542 -297.438476562 -215.834960938 c 3
 -297.438476562 -159.628200176 -233.56061762 -50.8996824072 -101.068 36.7617 c 1
 -94.3691 15.543 l 1
EndSplineSet
Fore
SplineSet
-94.3413607625 15.7913300625 m 1
 -181.11013601 -55.8105892002 -196.29164575 -100.315090864 -196.29164575 -163.811492187 c 3
 -196.29164575 -205.025667887 -171.865286438 -229.927936 -139.013792 -229.927936 c 3
 -129.282889593 -229.927936 -117.066624759 -227.204816038 -101.258539063 -219.348945313 c 1
 -103.425574802 -217.990012015 -90.7396150167 -229.75536874 -88.2921171875 -237.334046875 c 1
 -111.573705223 -281.116478912 -150.483977769 -300 -185.709153563 -300 c 3
 -235.484760247 -300 -279.605844 -262.516723644 -279.605844 -198.834987813 c 3
 -279.605844 -147.451157619 -233.858343764 -45.5613932411 -100.877458187 36.7571238375 c 1
 -94.3413607625 15.7913300625 l 1
EndSplineSet
EndChar

StartChar: Aogonek
Encoding: 260 260 255
Width: 730
VWidth: 0
Flags: W
HStem: -346.775 87.9972<490.77 576.289> -9.72974 21G<235.39 265.547>
VStem: 358.894 49.9265<623.118 712.312> 414 86.9209<-240.739 -103.21>
LayerCount: 2
Fore
SplineSet
254.1565 278.600679687 m 1
 300.223942992 272.190651868 401.977033965 273.766930539 444.546234375 273.915132813 c 1
 408.869075013 363.260638826 384.877387612 414.919054279 345.18840625 506.048140625 c 1
 307.621408584 415.295225469 286.377634071 359.188781781 254.1565 278.600679687 c 1
496.834056375 10.95846752 m 0
 503.528263138 26.5735716481 514.12 58.92 511.463804687 84.1890859373 c 0
 491.163142588 140.085899394 480.843939667 166.436068461 462.544984375 219.745226563 c 1
 407.572014977 232.569694457 317.389001839 240.291364705 236.304 230.96 c 1
 214.685604112 179.244415247 196.182510439 150.036377113 180.8650625 97.4577890627 c 0
 171.032149181 62.8559328745 199.830666643 31.3222787863 267.124 40.41428125 c 1
 264.5 -9.7297421875 l 1
 206.280666328 2.58720071695 89.3704590672 6.44389362084 30.744 -2.7882734375 c 1
 30.744 -2.7882734375 25.496 22.41434375 24.184 40.78234375 c 1
 72.7211256317 57.0754641627 104.254693581 70.9155539525 113.321945313 89.2134453127 c 0
 203.387913235 295.585667126 279.003024012 470.066148219 345.728796875 638.969851563 c 0
 360.394356721 676.755576857 356.414445269 678.18545853 358.894289063 712.312 c 1
 408.82075 712.312 l 1
 413.217355518 684.915603989 406.134611846 679.771515909 419.923171875 641.041148437 c 0
 486.563097081 430.788322534 525.834190483 304.634236063 629.634101563 91.6141868373 c 0
 637.64206492 75.3611203023 677.992771089 40.2408695428 704.496 37.835984375 c 1
 704.496 37.835984375 703.184 13.9021015625 701.872 -1.8418984375 c 1
 648.114140181 44.4850754859 573.947820043 42.3635015824 532.187265625 -13.064 c 0
 503.336822428 -66.3646219404 500.920781249 -128.391845402 500.920781249 -184.339890624 c 3
 500.920781249 -222.237938255 527.461567314 -258.777484375 558.437515625 -258.777484375 c 3
 575.744364473 -258.777484375 593.074733618 -258.638260445 617.421414062 -252.32009375 c 1
 617.421414062 -252.32009375 625.65058245 -261.896873248 629.1798125 -272.486999999 c 1
 603.606867447 -315.54326947 552.660950863 -346.774640624 512.327890625 -346.774640624 c 3
 462.480292649 -346.774640624 413.999875 -298.271777947 413.999875 -234.832671875 c 3
 413.999875 -79.3680656449 485.515352724 -27.7585758533 496.834056375 10.95846752 c 0
EndSplineSet
Position2: "cpsp-1" dx=0 dy=0 dh=50 dv=100
Substitution2: "c2pc-1" aogonek.pcap
Substitution2: "c2sc-1" aogonek.smcp
EndChar

StartChar: Uni0328
Encoding: 58029 58029 257
Width: 0
VWidth: 1159
Flags: W
HStem: -338.23 73.7197<-184.546 -117.498>
VStem: -275.584 71.875<-244.983 -118.496>
LayerCount: 2
Fore
SplineSet
-92.1719 12.3926 m 1
 -164.514989866 -37.5177021671 -203.708984375 -122.700132364 -203.708984375 -187.03125 c 3
 -203.708984375 -228.469229743 -175.522824414 -264.510742188 -144.514648438 -264.510742188 c 3
 -123.539764965 -264.510742188 -98.3555048772 -255.777742187 -72.5146484375 -236.510742188 c 9
 -72.5146484375 -236.510742188 -61.4052257941 -246.838961447 -58.7158203125 -254.911132812 c 1
 -85.7705506897 -302.647325281 -138.205109564 -338.23046875 -179.78515625 -338.23046875 c 3
 -228.965068015 -338.23046875 -275.583984375 -289.420252063 -275.583984375 -227.85546875 c 3
 -275.583984375 -144.145292738 -241.514987387 -38.8975355005 -98.8711 45.1113 c 1
 -92.1719 12.3926 l 1
EndSplineSet
EndChar

StartChar: Eogonek
Encoding: 280 280 258
Width: 672
VWidth: 0
UnlinkRmOvrlpSave: 1
Flags: W
HStem: -347.889 73.7197<484.634 553.852> -9 35<56 103.477> 3.0702 37.3021<232.525 492.796> 333 36<205 473.393> 646.077 36.8925<248.298 487.505> 657 31<48 108.489>
VStem: 122 93<372.549 638.287> 126.788 78.2122<90.4625 333 369 603.172> 395.766 71.875<-257.592 -149.807> 497 36<247.75 305.348 393.846 441.094> 538 30<537 618.59>
LayerCount: 2
Fore
SplineSet
48 688 m 1xd6e0
 120.521055818 684.355725838 206.588460485 682.969176485 287.955928091 682.969176485 c 1
 429.86328558 682.969176485 557.47511282 687.186564497 574 691 c 1
 585.145145837 681.247997393 589.133414459 675.741599913 589.133414459 667.087387512 c 1
 589.133414459 650.893580795 575.168856119 623.677987617 568 537 c 1
 538 534 l 1
 527 570 546 617 510 628 c 0
 468.488636507 639.860389569 402.664140046 646.076658986 339.417525988 646.076658986 c 1
 306.677490841 646.076658986 274.628246937 644.410894684 247 641 c 0
 229 639 216 625 215 607 c 0x9ae0
 211 525.313559322 206 444.635593221 205 369 c 1
 269 371 429 371 443 372 c 0
 480 377 485 403 501 447 c 1
 535 440 l 1
 526.800908316 409.132831309 523.486685813 378.498275435 523.486685813 347.871954284 c 1
 523.486685813 314.997648821 527.305294619 282.132831309 533 249 c 1
 497 240 l 1
 477 311 484 324 443 328 c 0
 399 333 298 332 205 333 c 1
 204 235.613545816 208 147.262948207 220 81 c 0
 224 64 233 50 250 49 c 0
 295.831179232 44.5647245905 336.319436302 40.3723092792 374.696225476 40.3723092792 c 1
 414.193090286 40.3723092792 451.453436792 44.8130178498 490 58 c 0
 550.414440108 78.6680979317 560.916666667 101 601 177 c 1
 629 170 l 1
 601.909278218 96.0751847998 563.005363884 18.4683882549 538.489257812 -19.9775390625 c 0
 508.313510966 -67.2988618945 467.640625 -148.391015834 467.640625 -206.689453125 c 0
 467.640625 -242.779181534 495.826784961 -274.168945312 526.834960938 -274.168945312 c 0
 547.809960937 -274.168945312 572.993960937 -265.436945313 598.834960938 -246.168945312 c 1
 598.834960938 -246.168945312 609.943822568 -256.497164572 612.633789062 -264.569335938 c 1
 585.578932221 -312.305955472 533.145209671 -347.888671875 491.565429688 -347.888671875 c 0
 442.385016588 -347.888671875 395.765625 -303.499671875 395.765625 -247.513671875 c 0
 395.765625 -172.157942368 443.587456716 -80.3722695124 506.53125 0.1865234375 c 1
 426.116814261 0.92057786207 344.873636713 3.07020290016 269.953021447 3.07020290016 c 1xb9e0
 188.876938008 3.07020290016 115.205017511 0.552841530585 58 -9 c 1
 48 26 l 1
 101 36 124 49 124 77 c 1
 125.797958971 111.804426856 126.787753827 207.154066657 126.787753827 309.259280672 c 1xd1e0
 126.787753827 434.312117879 125.303061543 569.498316407 122 616 c 0
 121 643 116 643 43 657 c 1
 48 688 l 1xd6e0
EndSplineSet
Position2: "cpsp-1" dx=0 dy=0 dh=50 dv=100
Substitution2: "c2pc-1" eogonek.pcap
Substitution2: "c2sc-1" eogonek.smcp
EndChar

StartChar: Iogonek
Encoding: 302 302 259
Width: 341
VWidth: 0
UnlinkRmOvrlpSave: 1
Flags: W
HStem: -346.889 73.7197<164.804 231.852> -10 44.68<16.1189 107.783> 675 20G<18.4825 49.5968 294.875 325.951>
VStem: 73.7656 71.875<-253.641 -109.865> 129.491 91.827<79.1583 552.197>
LayerCount: 2
Fore
SplineSet
207.177734375 3.734375 m 1xf0
 167.264648438 -46.17578125 145.640625 -131.358398438 145.640625 -195.689453125 c 3
 145.640625 -237.126953125 173.827148438 -273.168945312 204.834960938 -273.168945312 c 3
 225.810546875 -273.168945312 250.994140625 -264.435546875 276.834960938 -245.168945312 c 9
 276.834960938 -245.168945312 287.944335938 -255.497070312 290.633789062 -263.569335938 c 1
 263.579101562 -311.305664062 211.14453125 -346.888671875 169.564453125 -346.888671875 c 3
 120.384765625 -346.888671875 73.765625 -298.078125 73.765625 -236.513671875 c 3
 73.765625 -152.803710938 98.1953125 -47.5556640625 200.478515625 36.453125 c 1
 207.177734375 3.734375 l 1xf0
EndSplineSet
Refer: 34 73 N 1 0 0 1 0 0 3
Position2: "cpsp-1" dx=0 dy=0 dh=50 dv=100
Substitution2: "c2pc-1" iogonek.pcap
Substitution2: "c2sc-1" iogonek.smcp
EndChar

StartChar: iogonek
Encoding: 303 303 260
Width: 263
VWidth: 0
UnlinkRmOvrlpSave: 1
Flags: W
HStem: -326 60.1279<121.017 198.674> 566.966 112.069<105.019 193.205>
VStem: 36.5625 69.209<-252.6 -120.517> 91.9788 114.267<579.799 666.251>
LayerCount: 2
Fore
SplineSet
168 12.9248046875 m 1xe0
 113.924804688 -74.3896484375 105.771484375 -115.919921875 105.771484375 -196 c 3
 105.771484375 -239.865234375 131.106445312 -265.872070312 163.166015625 -265.872070312 c 3
 182.918945312 -265.872070312 206.635742188 -255.18359375 230.97265625 -231.599609375 c 1
 230.97265625 -231.599609375 242.081054688 -241.926757812 244.771484375 -250 c 1
 217.768554688 -302.788085938 172.271484375 -326 130.771484375 -326 c 3
 80.798828125 -326 36.5625 -288.154296875 36.5625 -224.834960938 c 3
 36.5625 -167.208984375 66.80859375 -55.732421875 153.30078125 34.1435546875 c 1
 168 12.9248046875 l 1xe0
EndSplineSet
Refer: 8 105 N 1 0 0 1 0 0 3
Substitution2: "smcp-1" iogonek.smcp
Substitution2: "case-1" Iogonek
Substitution2: "pcap-1" iogonek.pcap
EndChar

StartChar: uogonek
Encoding: 371 371 262
Width: 506
VWidth: 0
UnlinkRmOvrlpSave: 1
Flags: W
HStem: -324.658 60.1279<313.017 390.674> -18.7812 20G<319.052 378.615>
VStem: 228.562 69.21<-251.259 -142.76>
LayerCount: 2
Fore
SplineSet
379 -20 m 1
 308.413085938 -92.994140625 297.771484375 -127.711914062 297.771484375 -194.658203125 c 3
 297.771484375 -238.5234375 323.107421875 -264.530273438 355.166015625 -264.530273438 c 3
 374.918945312 -264.530273438 398.635742188 -253.841796875 422.97265625 -230.2578125 c 1
 422.97265625 -230.2578125 434.081054688 -240.584960938 436.771484375 -248.658203125 c 1
 409.767578125 -301.446289062 364.271484375 -324.658203125 322.771484375 -324.658203125 c 3
 272.798828125 -324.658203125 228.561523438 -286.8125 228.561523438 -223.493164062 c 3
 228.561523438 -173.491210938 265.803710938 -76.765625 372.30078125 1.21875 c 1
 379 -20 l 1
EndSplineSet
Refer: 20 117 N 1 0 0 1 0 0 3
Substitution2: "smcp-1" uogonek.smcp
Substitution2: "case-1" Uogonek
Substitution2: "pcap-1" uogonek.pcap
EndChar

StartChar: uni0327
Encoding: 807 807 268
Width: 0
VWidth: 1159
UnlinkRmOvrlpSave: 1
Flags: W
HStem: -200.003 21.8789<-285.765 -232.194>
VStem: -206.856 74.284<-166.303 -96.7214>
LayerCount: 2
Fore
SplineSet
-289.175 -200.003 m 1
 -285.765117 -178.124148688 l 1
 -245.373446534 -183.221919702 -206.856 -163.176629637 -206.856 -129.056 c 1
 -206.856 -114.800094017 -215.960199893 -91.4904215281 -241.31622425 -96.37690195 c 1
 -243.931014625 -73.398897075 l 1
 -239.991655681 -71.0352690521 -235.612761827 -69.4957994022 -231.521 -67.0766 c 0
 -201.713519171 -47.1056997583 -206.892877205 -42.9990997162 -186.311992687 5.4326208775 c 1
 -149.127992687 13.4325946375 l 1
 -149.127992687 13.4325946375 -165.968521376 -40.5400181288 -171.951917125 -50.3686965875 c 1
 -152.521438848 -56.3734971926 -132.572 -74.948680005 -132.572 -111.429 c 1
 -132.572 -180.25 -220.06 -229.425 -289.175 -200.003 c 1
EndSplineSet
EndChar

StartChar: cedillafloating
Encoding: 58084 58084 269
Width: 0
VWidth: 1159
Flags: W
VStem: -195 63.126<-165.105 -94.3474>
LayerCount: 2
Fore
SplineSet
-289.175 -200.003 m 1
 -285.141 -177.812 l 1
 -239 -188 -195 -161.724 -195 -125 c 3
 -195 -109.445 -206 -85 -236.636 -95.1289 c 1
 -241.123 -72.4629 l 1
 -199.113 -38.5203 -131.874 -44.0724 -131.874 -109.349 c 3
 -131.874 -179.786 -219.751 -230.116 -289.175 -200.003 c 1
EndSplineSet
EndChar

StartChar: Uni0327
Encoding: 58030 58030 281
Width: 0
VWidth: 1159
Flags: W
VStem: -194.928 70.897<-182.621 -103.12>
LayerCount: 2
Fore
SplineSet
-302.112 -226.844 m 1
 -297.393 -200.881 l 1
 -243.408 -212.801 -194.928 -182.057 -194.928 -139.091 c 0
 -194.928 -120.892 -206.823 -92.29 -240.667 -104.142 c 1
 -245.892 -77.6221 l 1
 -241.051 -73.5835 -235.91 -70.2296 -230.581 -67.5294 c 0
 -201.19 -48.4085 -207.089 -43.3329 -187.571 4.44336 c 1
 -142.571 12.4434 l 1
 -142.571 12.4434 -152.525 -33.2849 -173.391 -61.6674 c 1
 -145.899 -69.2159 -124.031 -91.6921 -124.031 -124.709 c 0
 -124.031 -204.066 -223.518 -260.771 -302.112 -226.844 c 1
EndSplineSet
EndChar

StartChar: Cedillafloating
Encoding: 58085 58085 282
Width: 0
VWidth: 1159
Flags: W
VStem: -194.928 70.897<-182.621 -103.74>
LayerCount: 2
Fore
SplineSet
-302.112 -226.844 m 1
 -297.393 -200.881 l 1
 -243.408 -212.801 -194.928 -182.057 -194.928 -139.091 c 3
 -194.928 -120.892 -206.798 -92.29 -240.642 -104.142 c 1
 -245.892 -77.6221 l 1
 -199.032 -34.292 -124.031 -58.5156 -124.031 -124.709 c 3
 -124.031 -204.066 -223.518 -260.771 -302.112 -226.844 c 1
EndSplineSet
EndChar

StartChar: Uni030F
Encoding: 58034 58034 295
Width: 300
VWidth: 1159
Flags: W
HStem: 726.318 188.49
VStem: -113.024 267.928
LayerCount: 2
Fore
SplineSet
154.904 755.3296 m 1
 125.564 733.364060937 l 1
 79.7470588235 812.57137935 63.0863529412 836.333574873 19.352 879.8976 c 1
 44.4503581358 895.483859394 84.304 914.808 84.304 914.808 c 1
 115.576483221 863.23286747 137.648 803.7136 154.904 755.3296 c 1
52.3748448 755.841536 m 1
 30.8506624 726.317984 l 1
 -36.0397749817 788.308447784 -58.8433553016 806.107100582 -113.024256 835.132128 c 1
 -93.6753074881 857.594077865 -61.3424544 887.99696 -61.3424544 887.99696 c 1
 -15.6887004586 846.989573522 25.5931424 792.450848 52.3748448 755.841536 c 1
EndSplineSet
EndChar

StartChar: uni01EA
Encoding: 490 490 308
Width: 845
VWidth: 0
UnlinkRmOvrlpSave: 1
Flags: W
HStem: -346.889 73.7197<406.804 473.852> -5.128 54.68<361.935 545.311> 643.896 56.8<304.314 478.506>
VStem: 43 114.528<276.45 454.869> 315.766 71.875<-253.641 -127.154> 676.976 125.024<224.277 431.122>
LayerCount: 2
Fore
SplineSet
499.177734375 3.734375 m 1
 426.834960938 -46.17578125 387.640625 -131.358398438 387.640625 -195.689453125 c 3
 387.640625 -237.126953125 415.827148438 -273.168945312 446.834960938 -273.168945312 c 3
 467.810546875 -273.168945312 492.994140625 -264.435546875 518.834960938 -245.168945312 c 9
 518.834960938 -245.168945312 529.944335938 -255.497070312 532.633789062 -263.569335938 c 1
 505.579101562 -311.305664062 453.14453125 -346.888671875 411.564453125 -346.888671875 c 3
 362.384765625 -346.888671875 315.765625 -298.078125 315.765625 -236.513671875 c 3
 315.765625 -152.803710938 349.834960938 -47.5556640625 492.478515625 36.453125 c 1
 499.177734375 3.734375 l 1
EndSplineSet
Refer: 40 79 N 1 0 0 1 0 0 3
Position2: "cpsp-1" dx=0 dy=0 dh=50 dv=100
EndChar

StartChar: uni01EB
Encoding: 491 491 309
Width: 505
VWidth: 0
UnlinkRmOvrlpSave: 1
Flags: W
HStem: -326 60.1279<272.366 350.024> -11 43.68<208.675 328.676> 369.32 48.744<172.438 294.599>
VStem: 32 92.224<136.183 288.789> 187.912 69.209<-252.6 -139.048> 380.024 92.976<108.821 272.843>
LayerCount: 2
Fore
SplineSet
360.98046875 13.54296875 m 1
 270.727539062 -74.0302734375 257.12109375 -115.682617188 257.12109375 -196 c 3
 257.12109375 -239.865234375 282.45703125 -265.872070312 314.515625 -265.872070312 c 3
 334.268554688 -265.872070312 357.986328125 -255.18359375 382.322265625 -231.599609375 c 9
 382.322265625 -231.599609375 393.431640625 -241.926757812 396.12109375 -250 c 1
 369.1171875 -302.788085938 323.62109375 -326 282.12109375 -326 c 3
 232.149414062 -326 187.912109375 -288.154296875 187.912109375 -224.834960938 c 3
 187.912109375 -172.674804688 223.05859375 -76.5009765625 320.63671875 8 c 9
 360.98046875 13.54296875 l 1
EndSplineSet
Refer: 14 111 N 1 0 0 1 0 0 3
Substitution2: "case-1" uni01EA
EndChar

StartChar: thorn
Encoding: 254 254 317
Width: 515
VWidth: 1159
Flags: W
HStem: -348 32<8.34375 55.6963> -342 34<151.753 229> -10 46<184.803 329.513> 369 43<198.188 323.819> 654 29<16 45.5305> 739 20G<129 175>
VStem: 67 82<-302.037 -18.4171> 80 65<-197.411 7 69.4004 345.78 368 599.495> 406 69<130.435 275.055>
LayerCount: 2
Fore
SplineSet
145 332 m 9x3d80
 144 241 143 189 143 98 c 3
 143 92 147 85 154 79 c 0
 185 52 227 36 268 36 c 3
 345 36 406 96 406 180 c 3
 406 270 352 369 251 369 c 3
 207 369 155 342 145 332 c 9x3d80
76 31 m 24
 79.1289 217.79 80 367 80 510 c 3
 80 570 80 607 76 627 c 0
 71 654 64 656 46 656 c 3
 36 656 25 654 16 654 c 1
 11 683 l 1
 48 690 104 718 154 759 c 1
 175 743 l 1
 165 717 157 687 156 667 c 0
 151 599 145 484 145 368 c 1xbd80
 178 382 234 412 294 412 c 3
 399 412 475 315 475 223 c 3
 475 94 363.004 -10 225 -10 c 3
 198 -10 170 -2 144 7 c 1
 144 -75 144 -247 149 -284 c 0
 151 -299 170 -303 181 -304 c 0
 197 -305 216 -307 230 -308 c 1
 229 -342 l 1x7e80
 190 -341 159 -339 117 -339 c 3
 87 -339 39 -344 9 -348 c 1
 6 -316 l 1
 17 -315 25 -313 36 -311 c 0
 59 -305 65 -294 67 -266 c 0xbe80
 72 -214 74.0589 -84.8672 76 31 c 24
EndSplineSet
Substitution2: "pcap-1" thorn.pcap
Substitution2: "case-1" Thorn
Substitution2: "smcp-1" thorn.smcp
EndChar

StartChar: Thorn
Encoding: 222 222 318
Width: 594
VWidth: 1159
Flags: W
HStem: -9 35<33 79.7574> 178 45<189.142 391.092> 519 42<188.8 373.894> 661 31<15.871 81.5947>
VStem: 103 86.1416<54.7783 182.945 226.958 514.181 554.895 640.551> 465 87<299.251 431.707>
LayerCount: 2
Fore
SplineSet
300 652.244140625 m 1
 269.541015625 652.76953125 239.069335938 648.46484375 211 641 c 0
 193.498046875 636.344726562 190 622 189 604 c 0
 188.240234375 587.23828125 187.66015625 570.91015625 187.219726562 554.89453125 c 1
 223.961914062 557.525390625 259.918945312 561 309 561 c 3
 442 561 552 478 552 375 c 3
 552 258.262695312 417.193359375 178 292 178 c 3
 251.719726562 178 228.8125 181.861328125 189.141601562 182.9453125 c 1
 190.319335938 145.3203125 192.446289062 106.4140625 198 75 c 0
 201.80078125 58.8486328125 209.211914062 38.1826171875 306 36.1611328125 c 1
 302 -10.6103515625 l 1
 253.839897611 0.765337346976 217.431629665 6.17477902914 177.51514646 6.17477902914 c 3
 138.247715333 6.17477902914 95.5852303172 0.939824883774 35 -9 c 1
 25 26 l 1
 78 36 103 49 103 77 c 1
 104.6 108.20234375 105.4 187.70734375 105.4 277.3266875 c 3
 105.4 411.755703125 103.6 568.941992187 100 620 c 0
 99 647 85 647 12 661 c 1
 17 692 l 1
 64.3137479468 686.877828443 116.634803726 684.064503692 169.426581172 684.064503692 c 3
 212.805530712 684.064503692 256.502306442 685.964030206 298 690.04296875 c 1
 300 652.244140625 l 1
189.073242188 226.958007812 m 1
 228.5625 225.396484375 249.3671875 223 290 223 c 3
 436 223 465 311 465 364 c 3
 465 424 404 519 288 519 c 3
 266.518554688 519 216.749023438 516.599609375 187.26171875 510.466796875 c 1
 185.9765625 417.948242188 187.340820312 313.534179688 189.073242188 226.958007812 c 1
EndSplineSet
Position2: "cpsp-1" dx=0 dy=0 dh=50 dv=100
Substitution2: "c2pc-1" thorn.pcap
Substitution2: "c2sc-1" thorn.smcp
EndChar

StartChar: AE
Encoding: 198 198 319
Width: 1067
VWidth: 1159
Flags: W
HStem: -9.624 38.12<447.827 491.738> 5.89968 41.8632<667.962 880.033> 236.408 51.1433<310.204 525.575> 244.192 47.304<301.555 486.698> 332.752 40.056<621.104 825.881> 639.779 41.2287<660.975 853.348> 657.568 32.872<394.736 455.787>
VStem: 525.575 95.5291<83.2896 239.878 287.551 332.752 372.808 620.523> 888.256 39.744<242.898 301.668 402.601 447.924> 930.816 33.744<533.072 609.26> 991.752 29.56<163.262 178.284>
LayerCount: 2
Fore
SplineSet
396 690.44 m 1x1be0
 479.012896042 683.26612636 572.720531934 681.007342809 650.445012722 681.007342809 c 1
 811.005047551 681.007342809 938.754479986 685.180264612 969.312 691.752 c 1
 981.659860336 680.986622206 985.275804773 676.147881252 985.275804773 667.656427296 c 1
 985.275804773 651.691361397 971.362088304 624.602363813 964.56 533.072 c 1
 930.816 529.136 l 1
 922.637 558.649915493 933.824 605.272 904.376 616.272 c 0
 865.600170326 631.923689857 807.312288493 639.778647632 750.325447693 639.778647632 c 3
 718.759811108 639.778647632 680.851620268 637.322348602 659.984 633.328 c 0
 645.596101267 630.176290593 634.608905954 611.252893362 633.6 596.208 c 0
 628.6016 521.144856092 622.3536 442.638546389 621.104 372.808 c 1
 678.716203846 375.432 819.180637008 375.306118484 831.76 376.744 c 0
 869.50221875 383.30991573 878.596 421.11659059 892.88 455.8 c 1
 930 446.616 l 1
 921.80098779 414.14263044 918.486797412 381.914115987 918.486797412 349.694269646 c 1
 918.486797412 314.679315971 922.305361422 279.674473947 928 244.384 c 1
 888.256 232.576 l 1
 867.788 301.355563974 874.328515253 320.224931595 831.76 326.816 c 0
 792.1514 332.752 704.822380769 331.5648 621.104 332.752 c 1
 619.9168 242.199913066 625.45313042 154.821845754 638.912 94.728 c 0
 643.286429571 78.5652864108 652.149938663 61.1227291269 666.104 58.984 c 0
 705.812757133 50.6791411392 741.591502706 47.7628838368 774.0266649 47.7628838368 c 1
 802.782607589 47.7628838368 834.486917735 52.0595746578 872.832 65.8 c 0
 925.28 84.24 950.568 117.536 991.752 183.864 c 1
 1021.312 176.552 l 1
 1002.74378906 102.964976563 993.975929687 66.6029140625 981.688 1.872 c 1
 844.037002359 3.77906772062 761.480291934 5.89967794634 670.2808461 5.89967794634 c 1x4de0
 586.317296991 5.89967794634 526.939561358 2.66205934189 450.064 -9.624 c 1
 437.88 28.496 l 1
 487.76 38.496 522.008 58.5251764706 522.008 88.856 c 1
 523.880228354 113.057758083 525.105785508 169.597711236 525.574859375 236.407890625 c 1xa9e0
 464.661846356 247.694322553 355.149840469 252.742407016 274.788992188 244.192 c 1
 240.534136862 187.99768 215.959483732 156.573871213 186.956448 100.104 c 0
 164.972016 56.304 179.543744 36.176 247.764656 38.368 c 1
 242.095190125 -9.376 l 1
 209.844022157 -2.99647492205 157.720974426 0.60818310946 108.670009725 0.60818310946 c 1
 76.3230929304 0.60818310946 45.3376379681 -0.446639664691 22.5469078 -4.688 c 1
 22.5469078 -4.688 18.283183116 22.912 19.9364926875 38.368 c 1
 64.9973496091 54.5180869565 101.4502761 65.8749956031 118.167424 90.92 c 0
 244.944925272 290.070051236 361.109029577 479.007530059 458.6295 642.3480625 c 1
 438.711370388 646.906733744 415.184835011 651.276353097 390.064 657.568 c 1
 396 690.44 l 1x1be0
499.97053125 630.3645 m 1
 473.641838865 584.997614308 349.063082377 370.488383511 301.555 291.496 c 1x19e0
 349.84147065 285.204526849 473.920097744 287.366360403 525.71353125 287.551210938 c 1x29e0
 525.969623251 415.601030192 522.81152409 571.1425123 519.696 610.2 c 0
 519.073451876 619.887542879 512.009832445 626.061193176 499.97053125 630.3645 c 1
EndSplineSet
Position2: "cpsp-1" dx=0 dy=0 dh=50 dv=100
Substitution2: "c2pc-1" ae.pcap
Substitution2: "c2sc-1" ae.smcp
EndChar

StartChar: ae
Encoding: 230 230 322
Width: 578
VWidth: 1159
Flags: W
HStem: -8.688 53.92<60.2719 158.201 368.427 471.908> 275.816 24<535.149 553.432> 363.76 51.368<127.53 216.129 336.376 415.501>
VStem: 21.9174 76.664<54.2125 143.307> 36.8016 90.0918<308.537 357.356>
LayerCount: 2
Fore
SplineSet
370.474875 363.76 m 3xe0
 324.836568916 363.76 311.93839601 282.033045029 309.12753125 236.872 c 1
 359.51633071 252.185538162 398.576295584 263.844711296 446.016 277.369127001 c 0
 447.843634101 277.89100895 449.684499441 278.415831989 451.54003125 278.944 c 1
 440.012127462 324.335448276 404.220282979 363.76 370.474875 363.76 c 3xe0
310.240289062 209.872 m 1
 305.143558962 119.412034217 352.423773971 49.8 426.99178125 49.8 c 1
 469.239978854 49.8 501.806873859 69.6645333333 524.924234375 90.432 c 1
 546.84846875 60.624 l 1
 506.448843714 28.1057647059 448.735093664 -8.312 382.363257812 -8.312 c 1
 321.631111511 -8.312 275.63376595 25.5052485698 253.439671875 71.842171875 c 1
 211.402559631 44.4698680495 142.279758383 -8.688 84.1654375 -8.688 c 3
 36.3784004997 -8.688 21.9174375 26.7504 21.9174375 70.064 c 3xf0
 21.9174375 95.6100788128 25.3312127721 121.440821249 30.1654375 132.184 c 0
 35.3497170244 145.536 41.2684679826 151.133407208 51.7254375 156.304 c 0
 114.685490538 187.454611728 162.414145278 195.131615937 233.213414062 214.951695312 c 1
 234.569839264 234.050836829 237.159258912 251.406306424 240.66784375 267.13221875 c 1
 242.229870806 285.314391618 230.676385054 304.708304868 225.052445313 315.782320313 c 0
 216.009752106 334.748222608 176.728795275 363.136 155.0934375 363.136 c 3
 134.106770833 363.136 126.8934375 355.018838902 126.8934375 341.688 c 3
 126.8934375 333.416 132.903883929 319.179555555 133.905625 314.064 c 1
 47.361625 278.76 l 1
 42.6682916667 289.618 36.801625 311.334 36.801625 322.192 c 1xe8
 36.801625 335.126634146 43.7900694445 348.361170732 62.553625 360.072 c 1
 123.492066848 399.451 191.249033087 418.256 206.94353125 418.256 c 1
 225.31510242 418.256 282.423262275 379.343458915 298.612664062 361.58934375 c 1
 334.972051091 399.716768619 374.736355671 415.128 389.5130625 415.128 c 1
 445.882716011 415.128 502.80875535 372.083460592 524.603375 323 c 0
 532.87418437 306.008 545.789427182 300.1712 554.056 299.816 c 1
 553.432 275.816 l 1
 476.111234298 256.0328 389.593265127 232.481371429 310.240289062 209.872 c 1
231.627476562 186.129453125 m 1
 195.997157252 175.933706503 156.217645345 168.627605901 140.5414375 156.688 c 0
 117.826325374 144.139270041 98.5814375 129.0850672 98.5814375 99.8 c 3
 98.5814375 74.1709347478 115.683181523 45.232 146.0854375 45.232 c 3
 168.644611239 45.232 219.296404499 77.6726578743 244.62371875 93.3726875 c 1
 235.34352367 120.276340938 231.140437901 151.549209886 231.627476562 186.129453125 c 1
EndSplineSet
Substitution2: "pcap-1" ae.pcap
Substitution2: "case-1" AE
Substitution2: "smcp-1" ae.smcp
EndChar

StartChar: germandbls
Encoding: 223 223 327
Width: 579
VWidth: 1159
Flags: W
HStem: -9 40<37 88.8477 173.148 208.525 365.019 460.981> 356 30<40 95.2842> 705 51<244.321 344.378>
VStem: 100 65<36.3341 356 396.595 588.58> 276 67<305.481 354.885> 301 22<88.2815 107.227> 396.559 58.286<487.211 649.856> 477 62<53.3627 166.162>
LayerCount: 2
Fore
SplineSet
312 756 m 0xfb
 411.877 756 454.845 679.623 454.845 588.779 c 0
 454.845 446.016 343 385.103 343 345 c 0xfb
 343 322 360.358 300 417 276 c 1
 495.85 246.667 539 186.985 539 128 c 0
 539 33.1543 458.812 -9 408 -9 c 0
 365.699560976 -9 332.401317073 2 300 16 c 1
 304 30 306 44 306 59 c 0
 306 68.3555 304.571 95.6445 301 105 c 1
 323 112 l 1xf7
 342.104493506 56.8506 380.314818182 31 426 31 c 0
 451.5 31 477 56.9092 477 106 c 0
 477 163.711 429.343 194.988 396 212 c 0
 347 237 276 253 276 324 c 0
 276 346 396.559 432.484 396.559 571.703 c 0
 396.559 648.474 347.395 705 278 705 c 0
 190.602 705 180.067 591.244 171 454 c 1
 167.34 417.394 165 295.325 165 249 c 0
 165 182.096 166.167 119.272 172 54 c 0
 172.739 39 177.174 34 189 33 c 0
 196.534 32 203.466 32 211 31 c 1
 208 -6 l 1
 182.625 -1 146.375 1 121 1 c 0
 97.2266 1 60.7734 -2 37 -6 c 1
 36 30 l 1
 47 31 61 31 72 33 c 1
 89.5947 40 91.8652 53 93 81 c 1
 97.375 120.633 100 172.459 100 222 c 0
 99.4055 259.124 99.1645 308.001 99.0667 356 c 1
 40 356 l 1
 40 386 l 1
 59.9402 389.935 79.0951 397.74 99.0097 401.801 c 1
 99 418.369 99 434.298 99 449 c 0
 99 579.533 140.062 647.199 205 704 c 0
 235.911 731 265.237 756 312 756 c 0xfb
EndSplineSet
MultipleSubs2: "case-2" S S
Substitution2: "pcap-1" uni1E9E.pcap
Substitution2: "case-1" uni1E9E
Substitution2: "smcp-1" uni1E9E.smcp
EndChar

StartChar: greater
Encoding: 62 62 333
Width: 463
VWidth: 0
Flags: W
HStem: -7 21G<66.6914 110.136> 392 20G<94.5159 138.017>
LayerCount: 2
Fore
SplineSet
69.224 357.3632 m 1
 109.12 412 l 1
 412 202.376 l 1
 78.256 -7 l 1
 62.32 20.56 l 1
 321.424 182.1712 l 1
 69.224 357.3632 l 1
EndSplineSet
Position2: "'case' vertical ajustments for all-caps-1" dx=0 dy=90 dh=0 dv=0
EndChar

StartChar: braceleft
Encoding: 123 123 336
Width: 266
VWidth: 1515
Flags: W
HStem: -227.204 33.184<194.166 239.5> 680.62 33.184<191.953 239.5>
VStem: 88.38 70.576<-149.482 45.9023 441.814 634.04> 107.136 79.104<-9.77957 160.358 326.519 496.335>
LayerCount: 2
Fore
SplineSet
239.5 713.804060937 m 1xe0
 239.5 713.804060937 239.5 696.482140937 239.5 680.620060937 c 1
 189.295150102 679.599350051 158.956 648.483330823 158.956 546.226460937 c 3xe0
 158.956 476.517761695 186.24 462.259104762 186.24 390 c 3
 186.24 334.827022918 122.173403429 263.4530514 89.172 243.300060938 c 1
 122.173403429 223.147050942 186.24 152.397021093 186.24 96.599597075 c 3xd0
 186.24 25.5877160327 158.956 8.52171893827 158.956 -59.6268638625 c 3
 158.956 -161.260238553 187.725973631 -192.999229122 239.5 -194.019939062 c 1
 239.5 -227.203939062 l 1
 164.140397393 -231.96624442 88.38 -187.397946097 88.38 -27.2202014625 c 3xe0
 88.38 27.7409172274 107.136 62.8649788145 107.136 100.535597075 c 3
 107.136 147.446896061 76.8512977678 208.767367141 11.5 230.300060938 c 1
 11.5 256.612060938 l 1
 77.4752977678 278.091970673 107.136 339.577184698 107.136 386.064 c 3xd0
 107.136 422.486186345 88.38 460.418357995 88.38 513.820060937 c 3
 88.38 673.998057401 166.039926804 718.566367222 239.5 713.804060937 c 1xe0
EndSplineSet
Position2: "cpsp-1" dx=0 dy=0 dh=50 dv=100
Position2: "'case' vertical ajustments for all-caps-1" dx=0 dy=90 dh=0 dv=0
EndChar

StartChar: asciitilde
Encoding: 126 126 339
Width: 394
VWidth: 0
Flags: W
HStem: 182.2 76.48<176.32 316.223> 214.32 76.48<84.4735 223.635>
LayerCount: 2
Fore
SplineSet
17.376 186.448 m 1x40
 47.5772903226 239.783466667 106.690322581 290.8 111 290.8 c 3x40
 154.304909091 290.8 245.950181818 258.68 288.248 258.68 c 3
 297.453818182 258.68 325.071272727 281.426086957 338.88 306.24 c 1
 376.624 293.552 l 1
 351.991058823 243.665814433 303.185129412 182.2 292.872 182.2 c 3x80
 250.973102703 182.2 145.543048649 214.32 103.816 214.32 c 3
 91.83 214.32 65.092 189.168 52.184 173.448 c 1
 17.376 186.448 l 1x40
EndSplineSet
Position2: "cpsp-1" dx=0 dy=0 dh=50 dv=100
Position2: "'case' vertical ajustments for all-caps-1" dx=0 dy=90 dh=0 dv=0
EndChar

StartChar: kgreenlandic
Encoding: 312 312 345
Width: 520
VWidth: 1159
Flags: W
HStem: -5 33<33.6364 85.0934 314.455 358.094 457 501.545> 344 29<39.7931 76.7086> 374 27<269 299.949 413.248 459.333> 395 20G<145.5 187>
VStem: 105 64<42.314 204 227 346.994>
LayerCount: 2
Fore
SplineSet
179 211 m 1xe8
 169 204 l 1
 169 140.25 171.723635175 78.5727361869 175 54 c 0
 177 39 185.619315018 37.1522739927 196 33 c 0
 206 29 216 28 230 27 c 1
 225 -7 l 1
 191 -1 172 4 130 4 c 3
 100 4 64 -3 34 -5 c 1
 32 28 l 1
 43 29 54.2438024311 30.030722479 64 33 c 0
 87 40 93.3132247115 48.0575369992 96 76 c 0
 101 128 105 170 105 235 c 3
 105 253.368013699 103.27297056 281.632471039 101 318 c 0
 100 334 94 348 77 348 c 3
 71 348 51 345 41 344 c 1
 36 373 l 1
 88 381.884615385 124 387.538461538 167 415 c 1xd8
 187 399 l 1
 181 385 174.184346429 357.982026431 173 347 c 0
 171 328.454705882 168 273.908529412 167 227 c 1
 201.5858 255.29682906 250.733796152 297.620653704 285 330 c 0
 291.596571429 336.233333333 301 348.518518519 301 355 c 3
 301 373 277 372 267 374 c 1
 269 401 l 1
 295 399 330 399 357 399 c 3
 388.166666667 399 428.777777778 399 459 403 c 1
 461 371 l 1
 400.820895522 364.000222222 364.689666047 341.369176033 333 319 c 2
 231 247 l 1
 297.824402928 186.179636497 367.532605558 122.858938129 446 52 c 1
 462 37 490 29 504 28 c 1
 501 -6 l 1
 467 0 449 4 407 4 c 3
 377 4 345 -3 315 -5 c 1
 312 28 l 1
 348 33 348 37 359 38 c 1
 296.777686305 99.8038948798 205.773756239 186.901875399 179 211 c 1xe8
EndSplineSet
MultipleSubs2: "case-2" K quoteleft
EndChar

StartChar: OE
Encoding: 338 338 346
Width: 1081
VWidth: 1159
Flags: W
HStem: -7 49<336.528 518.419> 3.06988 37.3024<639.125 901.73> 334 36<614 882.393> 650 44<298.396 500.529>
VStem: 37 93<266.365 448.041> 531 93<373.564 620.777> 534.995 79.0053<90.5 334 370 605.156> 906 36<248.75 306.348 394.846 442.094> 947 30<539 620.59> 1007 28<152.034 171.75>
LayerCount: 2
Fore
SplineSet
385 650 m 3xbdc0
 244 650 130 535.515933333 130 377 c 3
 130 202.722537538 273 42 443 42 c 3
 495.7 42 533 62.631 533 92 c 1
 534.422110588 116.770777747 534.994687396 175.604459673 534.994687396 244.572312164 c 0xbbc0
 534.994687396 369.591771373 533.113224845 527.911675418 531 577 c 0
 528.17 641.262 448.642 650 385 650 c 3xbdc0
424 -7 m 3
 210 -7 37 145.659140762 37 336 c 3
 37 527.127628169 212 694 422 694 c 3
 507.490017004 694 461.789007914 684.96875 696.956054688 684.96875 c 3
 838.863027557 684.96875 966.475003159 689.186881304 983 693 c 1
 994.145145837 683.247997393 998.133414459 677.741599913 998.133414459 669.087387512 c 0
 998.133414459 652.893580795 984.168856119 625.677987617 977 539 c 1
 947 536 l 1
 936 572 955 619 919 630 c 0
 856 648 737 653 656 643 c 0
 638 641 625 627 624 609 c 0xbdc0
 620 526.970338983 615 445.953389831 614 370 c 1
 678 372 838 372 852 373 c 0
 889 378 894 404 910 448 c 1
 944 441 l 1
 935.800908316 410.132831309 932.486685813 379.498275435 932.486685813 348.871954284 c 0
 932.486685813 315.997648821 936.305294619 283.132831309 942 250 c 1
 906 241 l 1
 886 312 893 325 852 329 c 0
 808 334 707 333 614 334 c 1
 613 236.227091633 617 147.525896414 629 81 c 0
 633 64 642 50 659 49 c 0
 704.831179232 44.5647245905 745.319436302 40.3723092792 783.696225476 40.3723092792 c 0
 823.193090286 40.3723092792 860.453436792 44.8130178498 899 58 c 0
 958 78 968 101 1007 177 c 1
 1035 170 l 1
 1019 104 1008 62 996 0 c 1
 886.301 -0.545565 771.508 3.06988 667.928 3.06988 c 3x7bc0
 487.932 3.06988 491.022 -7.00001 424 -7 c 3
EndSplineSet
Position2: "cpsp-1" dx=0 dy=0 dh=50 dv=100
Substitution2: "c2pc-1" oe.pcap
Substitution2: "c2sc-1" oe.smcp
EndChar

StartChar: uni2605
Encoding: 9733 9733 347
Width: 821
VWidth: 0
Flags: W
LayerCount: 2
Fore
SplineSet
806.147015625 441.510192187 m 1
 561.69403125 263.474854687 l 1
 654.862917187 -23.4115078125 l 1
 410.409932813 154.624134375 l 1
 165.956948437 -23.4115078125 l 1
 259.125834375 264.397279687 l 1
 14.6725876 441.510192187 l 1
 316.318621875 440.587767187 l 1
 410.409932813 728.396554687 l 1
 503.57881875 441.510192187 l 1
 806.147015625 441.510192187 l 1
EndSplineSet
EndChar

StartChar: uni2606
Encoding: 9734 9734 348
Width: 821
VWidth: 30
Flags: W
HStem: 393.272 48.2884<510.748 653.49>
LayerCount: 2
Fore
SplineSet
653.490377563 393.271782813 m 1
 461.0503605 383.83461525 l 1
 410.492314375 569.729891687 l 1
 360.129219187 382.982554875 l 1
 167.675067875 393.19652525 l 1
 329.39117425 286.817935437 l 1
 260.296741937 106.855045213 l 1
 410.408957813 229.242282937 l 1
 560.631175813 106.878958187 l 1
 491.426741375 285.965875063 l 1
 653.490377563 393.271782813 l 1
806.196984375 441.560160937 m 1
 561.744 263.524823437 l 1
 654.912885937 -23.3615390625 l 1
 410.459901563 154.674103125 l 1
 166.006917187 -23.3615390625 l 1
 259.175803125 264.447248437 l 1
 14.72255635 441.560160937 l 1
 316.368590625 440.637735937 l 1
 410.459901563 728.446523437 l 1
 503.6287875 441.560160937 l 1
 806.196984375 441.560160937 l 1
EndSplineSet
EndChar

StartChar: uni261C
Encoding: 9756 9756 349
Width: 2241
Flags: W
HStem: -39.8809 34.5928<702.366 803.644>
VStem: 65.4062 47.9918<389.495 407.811>
LayerCount: 2
Fore
SplineSet
65.4062 488.98 m 1
 133.471 493.169 171.866 495.579 238.634 514.306 c 1
 246.596 504.546 534.656 534.515 542.911 561.332 c 1
 564.898 551.482 577.512 547.037 605.929 570.229 c 1
 773.769 556.794 986.458 616.839 1106 648 c 1
 1329.25 569.701 1572.25 468.729 1696.18 430.638 c 1
 1739.57 483.052 1793.53 507.924 1848.05 516.793 c 1
 2110.43 547.303 l 1
 2163.02 255.056 2175.68 -29.6611 2148.35 -306.85 c 1
 1892.24 -297.519 l 1
 1875.45 -261.822 1858.65 -226.126 1841.85 -190.43 c 1
 1814.48 -179.761 1789.09 -165.358 1754.94 -149.172 c 1
 1614.8 -241.059 1469.34 -206.779 1327.96 -171.926 c 1
 1302.89 -235.181 1261.64 -288.312 1185.82 -267.69 c 1
 1164.81 -330.418 1107.45 -355.95 1072.25 -326.185 c 0
 999.4 -264.557 891.756 -230.288 835.198 -172.483 c 1
 682.232 -206.512 560.41 -112.538 687.913 48.1104 c 1
 660.334 112.992 745.543 185.467 777.889 271.683 c 1
 695.375 282.243 590.004 307.018 566.297 298.763 c 0
 515.511 281.073 363.284 309.172 334.218 317.119 c 1
 176.398 304.119 59.9014 331.849 65.4062 488.98 c 1
227.493 480.275 m 1
 178.401 472.663 150.689 468.371 101.594 460.757 c 1
 93.8691 413.082 244.447 408.912 227.493 480.275 c 1
1084.38 592.183 m 0
 825.397 554.269 996.286 546.32 636.788 522.399 c 0
 585.692 519 590.137 488.802 569.033 486.987 c 0
 550.55 485.4 544.591 511.314 526.415 507.695 c 0
 434.1 489.321 365.902 488.599 263.3 476.39 c 1
 250.997 394.928 192.292 410.334 113.398 407.811 c 1
 114.412 376.567 264.124 347.652 350.099 377.665 c 1
 407.623 368.682 461.089 357.379 523.575 380.384 c 1
 604.456 372.626 651.254 355.211 727.339 401.371 c 1
 807.605 356.047 974.055 358.16 1064.13 421.6 c 1
 1070.94 421.779 1071.33 413.38 1077.52 410.565 c 1
 1051.33 362.256 1084.46 312.087 1114.36 315.387 c 0
 1130.39 317.154 1149.22 354.088 1163.9 376.21 c 0
 1172.19 388.706 1208.8 379.251 1202.08 365.563 c 0
 1164.56 289.234 1183.03 221.194 1302.92 308.083 c 0
 1330.21 327.857 1391.28 329.565 1389.06 296.334 c 0
 1387.54 273.576 1345.13 302.372 1303.25 264.596 c 0
 1210.07 180.539 1123.04 118.563 1008.84 107.013 c 1
 996.464 98.4824 989.483 93.6709 977.105 85.1396 c 1
 876.257 142.62 705.042 54.8047 694.435 -5.28809 c 1
 757.921 -1.57617 796.29 11.3975 834.737 -28.0469 c 1
 861.688 11.0107 922.306 3.84277 985.483 11.0127 c 1
 998.435 5.33398 1005.74 2.13281 1018.69 -3.54395 c 1
 1031.07 4.98828 1038.05 9.79883 1050.42 18.3291 c 1
 1063.43 11.9795 1070.77 8.39844 1083.78 2.04883 c 1
 1093.29 11.6924 1098.66 17.1289 1108.17 26.7725 c 1
 1169 0.666992 1265.6 3.79102 1298.85 55.3369 c 0
 1307.77 69.1582 1331.21 74.7871 1353.92 73.9941 c 0
 1497.96 68.9609 1697.02 60.1641 1760.13 150.666 c 0
 1796.28 202.51 1766.13 361.801 1721.3 387.54 c 1
 1551.99 437.4 1391.01 515.096 1175.49 584.343 c 0
 1141.59 595.234 1119.66 597.348 1084.38 592.183 c 0
823.456 -100.385 m 1
 821.674 -60.501 792.91 -39.6387 757.787 -39.8809 c 0
 715.507 -40.1699 663.499 -75.8311 669.326 -101.442 c 0
 672.815 -116.764 791.04 -134.5 823.456 -100.385 c 1
1825.2 474.796 m 1
 1793.57 452.477 1775.72 439.887 1744.09 417.571 c 1
 1790.28 409.132 l 1
 1834.35 392.028 1910.85 90.5078 1840.19 -91.3711 c 1
 1844.61 -94.3838 1847.1 -96.085 1851.52 -99.1006 c 1
 1989.62 -17.6104 1923.24 389.222 1825.2 474.796 c 1
EndSplineSet
EndChar

StartChar: uni261E
Encoding: 9758 9758 350
Width: 2241
Flags: HMW
LayerCount: 2
Fore
SplineSet
2162.17 488.98 m 1
 2167.68 331.849 2051.18 304.119 1893.36 317.119 c 1
 1864.29 309.172 1712.07 281.073 1661.28 298.763 c 0
 1637.57 307.018 1532.2 282.243 1449.69 271.683 c 1
 1482.03 185.467 1567.24 112.992 1539.66 48.1104 c 1
 1667.17 -112.538 1545.34 -206.512 1392.38 -172.483 c 1
 1335.82 -230.288 1228.18 -264.557 1155.32 -326.185 c 0
 1120.13 -355.95 1062.77 -330.418 1041.76 -267.69 c 1
 965.937 -288.312 924.688 -235.181 899.613 -171.926 c 1
 758.235 -206.779 612.779 -241.059 472.641 -149.172 c 1
 438.485 -165.358 413.094 -179.761 385.725 -190.43 c 1
 368.927 -226.126 352.131 -261.822 335.333 -297.519 c 1
 79.2285 -306.85 l 1
 51.9014 -29.6611 64.5586 255.056 117.149 547.303 c 1
 379.524 516.793 l 1
 434.047 507.924 488.01 483.052 531.394 430.638 c 1
 655.332 468.729 898.328 569.701 1121.58 648 c 1
 1241.12 616.839 1453.81 556.794 1621.65 570.229 c 1
 1650.07 547.037 1662.68 551.482 1684.67 561.332 c 1
 1692.92 534.515 1980.98 504.546 1988.94 514.306 c 1
 2055.71 495.579 2094.11 493.169 2162.17 488.98 c 1
2000.08 480.275 m 1
 1983.13 408.912 2133.71 413.082 2125.98 460.757 c 1
 2076.89 468.371 2049.18 472.663 2000.08 480.275 c 1
1143.19 592.183 m 0
 1107.92 597.348 1085.99 595.234 1052.09 584.343 c 0
 836.569 515.096 675.586 437.4 506.281 387.54 c 1
 461.443 361.801 431.295 202.51 467.448 150.666 c 0
 530.558 60.1641 729.622 68.9609 873.661 73.9941 c 0
 896.366 74.7871 919.808 69.1582 928.726 55.3369 c 0
 961.981 3.79102 1058.58 0.666992 1119.41 26.7725 c 1
 1128.92 17.1289 1134.29 11.6924 1143.8 2.04883 c 1
 1156.8 8.39844 1164.14 11.9795 1177.15 18.3291 c 1
 1189.53 9.79883 1196.51 4.98828 1208.89 -3.54395 c 1
 1221.83 2.13281 1229.14 5.33398 1242.09 11.0127 c 1
 1305.27 3.84277 1365.89 11.0107 1392.84 -28.0469 c 1
 1431.29 11.3975 1469.66 -1.57617 1533.14 -5.28809 c 1
 1522.54 54.8047 1351.32 142.62 1250.47 85.1396 c 1
 1238.09 93.6709 1231.11 98.4824 1218.74 107.013 c 1
 1104.54 118.563 1017.5 180.539 924.325 264.596 c 0
 882.445 302.372 840.035 273.576 838.518 296.334 c 0
 836.301 329.565 897.366 327.857 924.653 308.083 c 0
 1044.55 221.194 1063.02 289.234 1025.5 365.563 c 0
 1018.77 379.251 1055.38 388.706 1063.68 376.21 c 0
 1078.36 354.088 1097.19 317.154 1113.21 315.387 c 0
 1143.12 312.087 1176.25 362.256 1150.06 410.565 c 1
 1156.25 413.38 1156.63 421.779 1163.45 421.6 c 1
 1253.52 358.16 1419.97 356.047 1500.24 401.371 c 1
 1576.32 355.211 1623.12 372.626 1704 380.384 c 1
 1766.49 357.379 1819.95 368.682 1877.48 377.665 c 1
 1963.45 347.652 2113.17 376.567 2114.18 407.811 c 1
 2035.29 410.334 1976.58 394.928 1964.28 476.39 c 1
 1861.67 488.599 1793.48 489.321 1701.16 507.695 c 0
 1682.99 511.314 1677.03 485.4 1658.54 486.987 c 0
 1637.44 488.802 1641.88 519 1590.79 522.399 c 0
 1231.29 546.32 1402.18 554.269 1143.19 592.183 c 0
1404.12 -100.385 m 1
 1436.54 -134.5 1554.76 -116.764 1558.25 -101.442 c 0
 1564.08 -75.8311 1512.07 -40.1699 1469.79 -39.8809 c 0
 1434.67 -39.6387 1405.9 -60.501 1404.12 -100.385 c 1
402.373 474.796 m 1
 304.342 389.222 237.955 -17.6104 376.058 -99.1006 c 1
 380.473 -96.085 382.967 -94.3838 387.383 -91.3711 c 1
 316.725 90.5078 393.227 392.028 437.294 409.132 c 1
 483.483 417.571 l 1
 451.853 439.887 434.009 452.477 402.373 474.796 c 1
EndSplineSet
EndChar

StartChar: uni211F
Encoding: 8479 8479 429
Width: 831
UnlinkRmOvrlpSave: 1
Flags: W
LayerCount: 2
Fore
SplineSet
485 -72 m 1
 591 95.0902527076 741 461.097472924 737 479 c 1
 626 519 l 1
 617.75 542.192771084 663.209090147 573.033501641 692 596 c 1
 739.19 579.23 765.81 569.77 813 553 c 1
 773 475 572.146067416 -19.3583460949 537 -97 c 1
 485 -72 l 1
EndSplineSet
Refer: 43 82 N 1 0 0 1 0 0 2
EndChar

StartChar: uni2123
Encoding: 8483 8483 430
Width: 841
UnlinkRmOvrlpSave: 1
Flags: W
HStem: 654.256 39.744<211.892 293.024 574.553 654.653> 678 20G<8.65698 36.6583 572.403 590.802 817.603 832.073>
VStem: 393.88 52.864<-27 47.4014>
LayerCount: 2
Fore
SplineSet
201 -72 m 1x20
 307 95.0902527076 457 461.097472924 453 479 c 1
 342 519 l 1
 333.75 542.192771084 379.209090147 573.033501641 408 596 c 1
 455.19 579.23 481.81 569.77 529 553 c 1
 489 475 288.146067416 -19.3583460949 253 -97 c 1
 201 -72 l 1x20
EndSplineSet
Refer: 54 86 N 1 0 0 1 0 0 2
EndChar

StartChar: estimated
Encoding: 8494 8494 431
Width: 752
VWidth: 0
Flags: W
HStem: -9 50.917<266.135 484.333> 310.923 51.15<191.384 562.454> 632.006 50.917<264.706 485.147>
VStem: 30.1973 161.187<217.349 310.923 362.073 455.702> 562.454 159.576<362.073 456.3>
LayerCount: 2
Fore
SplineSet
632.777 191.846 m 1
 676.861 166.441 l 1
 673.98 161.581 l 2
 613.377 59.3301 501.767 -9 376 -9 c 0
 189.553 -9 30.1973 142.604 30.1973 338.341 c 0
 30.1973 525.945 184.438 682.615 375.52 682.923 c 2
 376.044 682.923 l 2
 564.48 682.923 722.035 529.016 722.03 336.942 c 0
 722.03 329.967 721.813 323.039 721.4 316.168 c 2
 721.084 310.923 l 1
 191.384 310.923 l 1
 191.384 107.399 l 1
 242.467 66.2236 307.069 41.917 376 41.917 c 0
 483.087 41.917 578.216 100.053 629.964 187.113 c 2
 632.777 191.846 l 1
191.384 566.668 m 1
 191.384 362.073 l 1
 562.454 362.073 l 1
 562.454 565.158 l 1
 511.302 606.997 446.18 632.006 376.044 632.006 c 2
 375.598 632.006 l 2
 305.803 631.894 241.805 607.323 191.384 566.668 c 1
EndSplineSet
EndChar

StartChar: uni2023
Encoding: 8227 8227 436
Width: 614
Flags: W
HStem: -1.92035 21G<82.9278 125.731> 219.007 142.106<289.348 432.791>
LayerCount: 2
Back
Fore
SplineSet
558.744 307.577117 m 1
 558.744 275.064 l 1
 524.992 251.32 407.443303252 242.018603897 351.632 219.007344 c 0
 159.840721573 170.515893946 164.821676759 58.6722395125 86.6408957873 -1.9203539275 c 1
 79.2146766863 -1.9203539275 55.8442713371 14.0194061868 50.909581925 18.4602414 c 1
 69.1167330995 97.2261667817 89.3921180996 427.50503713 36.7930912 564.464 c 1
 37.0551107569 565.557337022 69.8839044078 578.461588625 75.7655034375 578.461588625 c 1
 118.602397232 521.550228625 183.227119495 377.031008843 320.13632 361.113008 c 0
 412.530788131 342.887740651 519.562004598 328.114918318 558.744 307.577117 c 1
EndSplineSet
EndChar

StartChar: dagger
Encoding: 8224 8224 437
Width: 442
Flags: W
HStem: 480.704 109.28<29.4394 106.396 336.054 412.937>
VStem: 166.704 110.592<641.486 727.977> 208.688 25.312<-18 162.21>
LayerCount: 2
Fore
SplineSet
287.792 370 m 1xa0
 251.056 262 249.744 250 234 -18 c 1
 208.688 -18 l 1
 190.32 266 189.585843751 282.899414062 154.896 370 c 1
 191.632 440.855215686 198.192 459.816470588 208.688 522.688 c 1
 132.128 509.568 l 2
 75.0397615726 496.448 79.6814545454 480.704 52.944 480.704 c 3
 43.0175122796 480.704 13.256 514.568 13.256 534.688 c 3
 13.256 555.023738662 45.00890625 589.984 54.256 589.984 c 3
 79.8717894737 589.984 80.6373379211 575.552 132.128 563.744 c 2
 208.688 550.624 l 1xa0
 194.256 620.936 l 2
 185.072 660.683613511 166.704 682.168097561 166.704 703.248 c 3
 166.704 714.239147436 201.801126446 742.872001547 222 742.872 c 1
 242.162969608 742.871998427 277.296 714.23868002 277.296 705.872 c 3xc0
 277.296 682.615714286 258.928 660.534672446 249.744 620.936 c 2
 235.312 550.624 l 1
 311.872 563.744 l 2
 368.507515152 576.864 363.103578947 591.296 389.744 591.296 c 3
 399.201547366 591.296 430.744 557.535661929 430.744 537.312 c 3
 430.744 517.300462297 398.447148565 482.016 388.432 482.016 c 3
 362.912 482.016 363.25869525 497.76 311.872 509.568 c 2
 234 522.688 l 1
 244.496 460.814431372 251.056 441.853176471 287.792 370 c 1xa0
EndSplineSet
EndChar

StartChar: daggerdbl
Encoding: 8225 8225 438
Width: 442
Flags: W
HStem: -7.872 21G<210.243 231.133> 143.704 109.28<30.7997 112.963 329.034 410.189> 480.704 109.28<31.6531 108.998 333.489 411.091>
VStem: 165.392 110.592<6.94479 95.0627 642.734 726.753>
LayerCount: 2
Fore
SplineSet
165.392 369 m 1
 194.96 439.856155844 200.24 459.815636364 208.688 522.688 c 1
 134 509.568 l 2
 79.0806940495 496.448 83 480.704 57 480.704 c 3
 47.7335492187 480.704 13.256 513.830545454 13.256 534.688 c 3
 13.256 555.5776 50.4743683308 589.984 58 589.984 c 3
 83 589.984 84.0352883214 575.552 134 563.744 c 2
 208.688 550.624 l 1
 194.256 620 l 2
 185.072 657.680033868 166.704 680.535804878 166.704 701.376 c 3
 166.704 713.72 201.1104 742.872 222 742.872 c 3
 242.8896 742.872 277.296 714.028324324 277.296 704 c 3
 277.296 681 258.928 656.961929184 249.744 620 c 2
 235.312 550.624 l 1
 310 563.744 l 2
 364.957111157 576.864 360 591.296 386 591.296 c 3
 393.659914824 591.296 430.744 558.169454546 430.744 537.312 c 3
 430.744 516.4224 393.58433817 482.016 385 482.016 c 3
 360 482.016 359.890950125 497.76 310 509.568 c 2
 234 522.688 l 1
 242.448 460.81361039 247.728 440.85412987 277.296 369 c 1
 247.728 298.141095541 242.448 275.186802548 234 212.312 c 1
 309 225.432 l 2
 363.924063704 238.552 360 254.296 386 254.296 c 3
 394.954450782 254.296 429.744 221.169454546 429.744 200.312 c 3
 429.744 179.4224 392.617268293 145.016 384.688 145.016 c 3
 359.790631579 145.016 358.764265284 159.448 309 171.256 c 2
 234 184.376 l 1
 248.432 115 l 2
 257.616 77.0913272933 275.984 54 275.984 33 c 3
 275.984 21.44 241.5776 -7.872 220.688 -7.872 c 3
 199.7984 -7.872 165.392 21.368 165.392 29.128 c 3
 165.392 52.6405714286 183.76 77.2245441855 192.944 115 c 2
 207.376 184.376 l 1
 133 171.256 l 2
 78.0498493942 158.136 83 143.704 57 143.704 c 3
 49.3400851753 143.704 12.256 176.830545454 12.256 197.688 c 3
 12.256 218.5776 49.4156618304 252.984 58 252.984 c 3
 83 252.984 83.0725775343 237.24 133 225.432 c 2
 208.688 212.312 l 1
 200.24 274.188789809 194.96 297.143082803 165.392 369 c 1
EndSplineSet
EndChar

StartChar: longs
Encoding: 383 383 445
Width: 357
VWidth: 1159
Flags: W
HStem: -6 36<34 97.3708 215.17 284.568> 1 32<191.619 282.018> 356 25<46 67.3182> 701 55<273.459 377.117>
VStem: 113 72<42.1466 356 403 602.768>
LayerCount: 2
Fore
SplineSet
359 756 m 3x78
 391 756 441 745 466 723 c 1
 465 696 466 696 417 659 c 1
 378 677 347 701 309 701 c 3
 206 701 201 609 191 498 c 0
 187.339 461.394 185 339.326 185 293 c 3
 185 211 186 134 191 54 c 0
 192 39 198 34 214 33 c 0x78
 239 32 262 32 287 31 c 1
 284 -6 l 1xb8
 242 -1 182 1 140 1 c 3x78
 110 1 64 -2 34 -6 c 1
 33 30 l 1xb8
 44 31 58 31 69 33 c 0
 100 40 104 53 106 81 c 0
 111 133 114 201 114 266 c 3
 114 285.149 113 320.574 113 356 c 1
 46 356 l 1
 46 381 l 1
 113 403 l 1
 113 439.562 113 481.75 113 493 c 3
 113 601 156 657 224 704 c 0
 263 731 300 756 359 756 c 3x78
EndSplineSet
Substitution2: "case-1" S
Substitution2: "pcap-1" s.pcap
Substitution2: "smcp-1" s.smcp
EndChar

StartChar: ohorn
Encoding: 417 417 448
Width: 505
VWidth: 0
UnlinkRmOvrlpSave: 1
Flags: W
HStem: -11 43.68<208.675 328.676> 365.36 24.3843<349.604 421.731> 369.32 48.744<172.438 294.599> 382.741 20G<338.441 342.053>
VStem: 32 92.224<136.183 288.789> 380.024 92.976<108.821 272.843> 442.501 86.0273<403.736 481.559>
LayerCount: 2
Fore
SplineSet
334.482421875 402.741210938 m 1x9a
 349.62424831 396.926343349 372.471667174 389.744140625 386.686523438 389.744140625 c 3
 411.796269819 389.744140625 442.501138157 408.271731058 442.501138157 441.560602678 c 3
 442.501138157 449.63955766 438.983530489 459.025418514 428.6640625 470.818359375 c 1
 444.576416165 489.781030223 464.379979468 500.219391987 482.796821553 500.219391987 c 3
 512.365850716 500.219391987 528.528388939 475.09191665 528.528388939 445.9790134 c 3
 528.528388939 396.089685559 450.426516037 365.359813167 388.72825766 365.359813167 c 3xca
 357.132622939 365.359813167 342.400200021 377.606700862 334.482421875 402.741210938 c 1x9a
EndSplineSet
Refer: 14 111 N 1 0 0 1 0 0 2
Substitution2: "smcp-1" ohorn.smcp
Substitution2: "case-1" Ohorn
Substitution2: "pcap-1" ohorn.pcap
EndChar

StartChar: uhorn
Encoding: 432 432 449
Width: 526
VWidth: 0
UnlinkRmOvrlpSave: 1
Flags: W
HStem: -11 55<175.733 263.795> 338 31<292 351.243> 402 20G<128 167>
VStem: 70 76<75.1633 330.249> 359 64<36.0058 52 76.9705 331.63> 493.501 86.0273<404.739 481.559>
LayerCount: 2
Fore
SplineSet
410 375 m 1
 418.121414362 381.745491074 430.375771951 388.077148438 438 390.077148438 c 1
 462.968647592 396.077148438 493.500976562 408.485648026 493.500976562 441.560546875 c 3
 493.500976562 449.639517266 489.983409974 459.025396022 479.6640625 470.818359375 c 1
 495.576431876 489.781246013 515.380014732 500.219726562 533.796875 500.219726562 c 3
 563.365825233 500.219726562 579.528320312 475.092318034 579.528320312 445.979492188 c 3
 579.528320312 396.08959691 501.426629866 370.359375 439.728515625 365.359375 c 1
 422.413060772 365.359375 414.339204806 368.517835056 410 375 c 1
285 369 m 1
 339.422818792 375.199161305 395.899328859 382.557301496 438 390.077148438 c 1
 445 378 l 1
 431 335.584 423 173.632 423 137 c 3
 423 107 426.284077022 81.1592297825 429 54 c 0
 430 44 433 36 443 36 c 3
 447 36 473 43 493 48 c 1
 499 17 l 1
 463 8 419.410107664 -9.647473084 386 -18 c 0
 382 -19 381 -22 376 -22 c 3
 359 -22 359 0 354 52 c 1
 313 34 236 -11 178 -11 c 3
 140 -11 102.934188969 5.51320688895 86 44 c 0
 75 69 70 95 70 143 c 3
 70 198 73 255 73 312 c 0
 73 322 69 331 59 331 c 3
 49 331 28 319 22 317 c 1
 12 348 l 1
 53 359 107 394 149 422 c 1
 167 406 l 1
 152 336 146 254 146 177 c 3
 146 106 161 44 232 44 c 3
 269 44 322 69 353 85 c 1
 354 154 359 291 359 298 c 3
 359 337 329 337 292 338 c 1
 285 369 l 1
EndSplineSet
Substitution2: "smcp-1" uhorn.smcp
Substitution2: "case-1" Uhorn
Substitution2: "pcap-1" uhorn.pcap
EndChar

StartChar: yen
Encoding: 165 165 451
Width: 463
VWidth: 1159
UnlinkRmOvrlpSave: 1
Flags: W
HStem: -195.143 27.832<290.394 317.58> -21.404 38.808<93 383> 78.596 38.808<93 383>
VStem: 207.261 75.8369<-163.561 112.389>
LayerCount: 2
Fore
SplineSet
274.890625 169.708984375 m 1
 274.314622807 115.248982948 272.283654214 50.1171047102 283.09765625 -128.499023438 c 0
 285.015173967 -160.170886375 292.119204273 -161.0586431 320.783203125 -167.310546875 c 1
 317.580078125 -195.142578125 l 1
 274.689595576 -186.83690152 222.038207283 -183.218788643 178.485351562 -198.678710938 c 1
 171.08984375 -171.665039062 l 1
 195.610467016 -162.26863286 206.390990071 -155.268664903 207.260742188 -117.220703125 c 0
 207.787638441 -104.621204106 205.843021338 150.767976016 205.118164062 143.750976562 c 1
 204.034116885 150.049303618 155.095264654 248.178623374 87.2695828038 343.999997223 c 0
 76.0701508093 359.82210075 59.2291043945 378.720580661 49 385 c 1
 139 433 l 1
 144.933661013 402.938576204 168.652866704 351.939024868 181.091541944 327.999991964 c 0
 221.31584563 250.585724695 252.239236655 211.848881796 255.486328125 207.837890625 c 1
 299.730787717 303.031969433 321.320964056 356.628741888 331 433 c 1
 345.5 424.066173481 396.25 400.848034565 418 391 c 1
 345.004852928 317.965777551 314.263107929 249.458544383 274.890625 169.708984375 c 1
EndSplineSet
Refer: 1970 58113 N 0.29 0 0 1.125 93 -2 2
Refer: 1970 58113 N 0.29 0 0 1.125 93 98 2
Position2: "'lnum-2' vertical adjustment" dx=0 dy=190 dh=0 dv=0
EndChar

StartChar: eth
Encoding: 240 240 453
Width: 471
VWidth: 1159
UnlinkRmOvrlpSave: 1
Flags: W
HStem: -5 58.36<187.75 302.095> 353.072 52.864<177.882 298.934> 698.44 29.0131<77.2373 85.7991>
VStem: 28 76.48<146.905 264.433> 351.96 83.04<129.35 339.474>
LayerCount: 2
Fore
SplineSet
342.456 291.216 m 1
 311.893090909 345.580845714 231.271359757 353.072 216.384 353.072 c 3
 196.6608 353.072 104.48 332.744666764 104.48 243.16 c 3
 104.48 142.959148996 166.890953875 53.36 261.984 53.36 c 3
 325.420255551 53.36 351.96 126.875485562 351.96 191.392 c 3
 351.96 354.176749818 217.696 604.896 64.376 698.44 c 1
 68.6815760246 705.396049463 77.2373046875 727.453125 77.2373046875 727.453125 c 1
 260.283740169 675.166289781 435 439.719447105 435 235 c 3
 435 113.962890625 360.284179688 -5 193 -5 c 3
 102.911132812 -5 28 65.923828125 28 171 c 3
 28 327.011207032 178.31620339 405.936 271.176 405.936 c 3
 286.527938823 405.936 313.649357161 402.286831834 328.064 398.24 c 1
 342.456 291.216 l 1
EndSplineSet
Refer: 1970 58113 N 0.284488 0.177084 -0.547233 0.872389 98.828 489.958 2
Substitution2: "pcap-1" eth.pcap
Substitution2: "case-1" Eth
Substitution2: "smcp-1" eth.smcp
EndChar

StartChar: quotereversed
Encoding: 8219 8219 462
Width: 200
VWidth: 1159
Flags: W
HStem: 440.08 270.408
VStem: 21.1391 155.976
LayerCount: 2
Fore
SplineSet
164.4270625 440.08 m 1
 20.8430625 514.128 21.1390625 628.248 21.1390625 633.312 c 1
 21.1390625 639.936 25.0750625 645.248 30.6990625 647.56 c 0
 53.0814296875 660.2686875 73.664875 677.992 84.7550625 699.616 c 0
 87.0076484375 705.517265625 94.0030625 710.488 100.6270625 710.488 c 3
 107.389695313 710.488 114.152328125 705.552 116.4990625 699.928 c 0
 129.22603125 678.130023437 145.9950625 659.496 168.5550625 647.56 c 0
 174.455414063 645.265976563 177.1150625 639.980484375 177.1150625 633.312 c 3
 177.1150625 626.740101563 174.4910625 618.855898437 168.8670625 616.752 c 0
 145.829617187 604.8281875 120.8750625 587.944 109.9390625 563.136 c 0
 93.22490625 525.53525 145.8030625 484.208 179.8030625 467.888 c 1
 164.4270625 440.08 l 1
EndSplineSet
Position2: "cpsp-1" dx=0 dy=0 dh=7 dv=14
EndChar

StartChar: uni20B9
Encoding: 8377 8377 466
Width: 426
VWidth: 1159
UnlinkRmOvrlpSave: 1
Flags: W
HStem: -42 23<381.506 409> 283 31<32 113.386> 460.095 28.999<33.25 411.25> 637.095 28.999<33.25 33.25 33.5 411.25>
VStem: 248 79<400.509 544.149>
LayerCount: 2
Fore
SplineSet
33.25 666.09375 m 1
 411.25 666.09375 l 1
 411.25 637.094726562 l 1
 33.25 637.094726562 l 1
 33.25 666.09375 l 1
33.25 489.09375 m 1
 411.25 489.09375 l 1
 411.25 460.094726562 l 1
 33.25 460.094726562 l 1
 33.25 489.09375 l 1
32.5 666 m 1
 57.25390625 666 67.658203125 666 96 666 c 0
 222.431640625 666 327 583 327 480 c 0
 327 393 262.599609375 334 189 304 c 1
 265.474609375 110.581054688 332.772460938 -13.0947265625 412 -19 c 1
 409 -42 l 1
 258 -39 178 134 114 284 c 1
 100.875 283 89.2080078125 283 79 283 c 0
 60.6474609375 283 50.3525390625 285.400390625 32 286 c 1
 32 316 l 1
 49.912109375 315.5 59.087890625 314 77 314 c 3
 219.663085938 314 248 410.737304688 248 469 c 3
 248 534.418945312 188.37890625 638 75 638 c 3
 61.8720703125 638 35.193359375 638 33.5 638 c 1
 32.5 666 l 1
EndSplineSet
EndChar

StartChar: eng
Encoding: 331 331 467
Width: 499
VWidth: 1159
Flags: W
HStem: -319 60<162.258 279.828> -7 34<20.4 68.4075 170.315 228.824> 335 29<32 53.5363> 358 57<245.574 353.177>
VStem: 95 66<47.5359 302.396> 379 69<-89.8607 331.73>
LayerCount: 2
Fore
SplineSet
329 -267 m 0xdc
 284.360294118 -296 253 -319 194 -319 c 3
 162 -319 112 -308 87 -286 c 1
 88 -259 87 -259 136 -222 c 1
 165.972222222 -237.857142857 189.796296296 -259 219 -259 c 3
 247.822033898 -259 296.27809609 -258.437912348 316 -237 c 0
 342.595265849 -208.090672547 360.595200234 -175.050461911 367 -146 c 0
 373.749647059 -115.385402827 379 -41.9109823322 379 143 c 3
 379 192.5 376.549026451 266.820841347 374 287 c 0
 369 328.328358209 348 358 293 358 c 3xdc
 245 358 203 344.4 170 324 c 1
 168 234.329113924 161 109.430379747 161 71 c 3
 161 27.80589946 195.795590225 30.6204409775 232 27 c 1
 228 -7 l 1
 189 -1 159 4 117 4 c 3
 87 4 51 -1 21 -5 c 1
 18 28 l 1
 55.449092135 34.8089258427 78.318284601 37.5524032329 87 76 c 0
 94 107 95 167 95 199 c 3
 95 219 92.9313485794 287.976104104 86 308 c 0
 77 334 72 336 54 336 c 3
 44 336 41 335 32 335 c 1
 30 364 l 1xec
 67 371 104 375 154 416 c 1
 175 401 l 1
 170 387.056338028 167 366.915492958 167 346 c 1
 215 377 267 415 330 415 c 3
 403 415 448 375 448 304 c 3
 448 213.433607383 445 119.425469455 445 -84 c 3
 445 -134 432.819094368 -164.880515375 419 -186 c 0
 396.752808989 -220 368.44138087 -241.377070309 329 -267 c 0xdc
EndSplineSet
Substitution2: "smcp-1" eng.smcp
Substitution2: "case-1" Eng
Substitution2: "pcap-1" eng.pcap
EndChar

StartChar: Eng
Encoding: 330 330 468
Width: 836
VWidth: 1159
Flags: W
HStem: -241 62<483.653 578.44> -10 44<23.3182 86.8179 186.794 270.067> 655 39<771.217 833> 663 38<601.079 678.507>
VStem: 97 55<66.5393 314.07> 105 56<351.62 550> 676.266 70.7344<-86.2532 70.0219>
LayerCount: 2
Fore
SplineSet
628 -189 m 0xe6
 589 -216 552 -241 493 -241 c 3
 461 -241 411 -230 386 -208 c 1
 387.224489796 -178.046875 386 -178.046875 446 -137 c 1
 485 -155 508.349151158 -179 554 -179 c 3
 640.616503398 -179 676.265625 -76.9678502479 676.265625 -13.4755859375 c 3
 676.265625 48.2626834417 640.03404243 103.097021502 604 139.090820312 c 0
 459.896 279.614068929 313.026 416.065410818 161 550 c 1xe6
 152 154 l 2
 149.672574689 52.4216563039 186 44.674796748 277 35 c 1
 269 -11 l 1
 229.225006617 -2.55029543162 191.72886241 0.193359375 156.584960938 0.193359375 c 0
 107.789937357 0.193359375 63.5294692282 -6.59829339283 24 -10 c 1
 19 34 l 1
 77 34 94.2505340003 45.0370931165 97 93 c 0xea
 106 246.782786885 108.836453881 409.412965035 105 571 c 0
 104 614 69 649 12 648 c 1
 14 692 l 1
 53 688 104.987806691 684 146 684 c 0
 161 684 162.224003945 680.217054625 169 673 c 0
 318.792 516.927864326 473.300161891 367.004316767 636 223.227539062 c 0
 659.155 202.310678333 682.86 176.9488472 699 154 c 1
 708 281.98180798 710.135155394 409.964631854 709 545 c 0
 708 667 656 656 597 663 c 1
 602 701 l 1xd6
 658.737273127 693.806776525 706.285370634 691.3984375 751.0625 691.3984375 c 0
 778.931628397 691.3984375 805.747514379 692.483615703 833 694 c 1
 837 655 l 1
 788 649 766.708243919 651.026764413 763 609 c 0
 748 442.189493433 745 264.596148366 745 86 c 0
 745 63 747 43 747 0 c 3
 747 -86.94 692.388915009 -144.42305884 628 -189 c 0xe6
EndSplineSet
Position2: "cpsp-1" dx=0 dy=0 dh=50 dv=100
Substitution2: "c2pc-1" eng.pcap
Substitution2: "c2sc-1" eng.smcp
EndChar

StartChar: circumcombhigh
Encoding: 58081 58081 471
Width: 0
VWidth: 1159
Flags: W
HStem: 450.631 135.546
VStem: -323.78 252.56
LayerCount: 2
Fore
SplineSet
-71.2197082875 468.055865937 m 1
 -90.8995024375 450.630800125 l 1
 -197.656 509.929081625 l 1
 -303.788153563 450.630800125 l 1
 -323.780085313 468.055865937 l 1
 -215.364080437 586.176895187 l 1
 -179.635919563 586.176895187 l 1
 -71.2197082875 468.055865937 l 1
EndSplineSet
EndChar

StartChar: a.pcap
Encoding: 57347 57347 643
Width: 472
VWidth: 1159
Flags: W
HStem: -7.624 28.12<29.944 57.2448 274.408 296.244 410.786 444.808> 125.832 31.872<170.944 268.528> 395 20G<231.135 268.794>
VStem: 232.128 35.056<350.251 415>
LayerCount: 2
Fore
SplineSet
170.944 157.704 m 1
 198.189543144 152.314 244.082771222 153.392 269.512 153.392 c 1
 252.000257254 199.979085938 237.087869978 221.879675781 215.824 264.28 c 1
 196.77552 216.045140411 188.2608 199.048322774 170.944 157.704 c 1
274.408 -7.624 m 1
 274.408 -7.624 271.032 12.6224 269.344 20.496 c 1
 292.228596774 24.3848 306.603887119 41.3653659446 304.464 48.992 c 0
 296.78368 79.296 290.441846875 91.3441015625 281.512 118.896 c 1
 261.571769361 127.285679687 186.755429687 132.08 157.32 125.832 c 1
 146.231898437 98.0503671875 139.450613243 85.8470755317 130.368 58.488 c 0
 125.328322059 41.8249551741 147.560872727 17.8499310345 185.992 23.56 c 1
 187.488 -7 l 1
 167.217904043 -2.9169921875 128.47301804 -0.875 92.8076171875 -0.875 c 3
 67.7296073286 -0.875 44.1965941225 -1.9169921875 29.944 -4 c 1
 29.944 -1.952 26.71 13.408 25.632 22.624 c 1
 54.59488 28.4976 78.2656334173 46.3692639945 80.752 51.992 c 0
 137.237333333 169.16416 188.289791433 281.871443821 226 377.616 c 0
 233.128 395.248 230.142 393.12 232.128 415 c 1
 267.184 415 l 1
 270.404 395 267.406941665 395.908566672 273.624 378.616 c 0
 316.581454546 251.176 346.318909091 162.56 408.872 37 c 0
 414.792923012 25.8052605072 434.540571429 21 444.808 21 c 1
 444.808 19 446.056 5 446.304 -3 c 1
 425.900848591 -0.380859375 397.734152937 1.0947265625 369.079382812 1.0947265625 c 3
 333.256706323 1.0947265625 296.645148871 -1.5548659349 274.408 -7.624 c 1
EndSplineSet
EndChar

StartChar: b.pcap
Encoding: 57348 57348 644
Width: 444
VWidth: 1159
Flags: W
HStem: -3 31.368<63 96.5703 198.2 275.471> 206.312 19.936<186.864 241.743> 373.696 33.304<193.136 215.617> 374.384 32.616<64 97.2864 202.567 241.809>
VStem: 107.008 79.168<35.1419 206.312 226.248 373.544> 264.512 89.232<256.736 357.755> 295.152 94.848<46.1533 170.859>
LayerCount: 2
Fore
SplineSet
61 22 m 1xda
 73.1191806037 22.5934545455 97.888 27.496 101.76 62.176 c 0
 103.358729767 64.1168549404 107.008 113.057274336 107.008 168 c 3
 107.008 242.360962927 101.543138178 320.173824822 101.072 324.888 c 0
 99.1085360772 352.905799461 97.2905478315 371.629177505 86.512 376.688 c 0
 82.5689274719 377.629659241 63.8988235294 380.4384 60 381.376 c 1
 64 407 l 1
 72 407 104 401 136 401 c 3
 167.1232 401 209.65824 407 239.744 407 c 3
 318.744 407 353.744 342 353.744 305 c 3xdc
 353.744 264.849638554 304.888228571 228.714313253 282.496 221.688 c 1
 341.134545454 209.394887583 390 166.36850719 390 109 c 1
 390 41.5927734375 330 -3 239 -3 c 3
 209 -3 171 1 138 1 c 3
 103 1 69 -2 63 -2 c 1
 61 22 l 1xda
223.504 227.872 m 0
 248.412 233.405781513 264.512 252.475673469 264.512 286.88 c 3
 264.512 312.158933333 249.081304348 374.384 215.688 374.384 c 3xdc
 214.312 374.384 203.872 373.696 202.496 373.696 c 0xec
 192.687577947 370.635684854 193.435682605 356.356344261 191.928 346.632 c 0
 187.708 286.44 187.708 228.158857143 186.864 226.248 c 1
 219.521391305 227.184 220.128305396 226.042885965 223.504 227.872 c 0
215 205 m 3
 208.998042138 205 192.368 206.312 186.176 206.312 c 1
 186.176 158.593377349 188.359145029 112.927213365 190.048 83.608 c 0
 191.337593998 49.8599720428 197.296595346 38.8291348845 210.544 34.184 c 0
 213.544 32.496 232.661894737 28.368 238.56 28.368 c 3
 275.53344 28.368 295.152 57.5964386867 295.152 101.44 c 3xca
 295.152 153.743511029 272.841649485 205 215 205 c 3
EndSplineSet
EndChar

StartChar: c.pcap
Encoding: 57349 57349 645
Width: 500
VWidth: 1159
Flags: W
HStem: -6 35.864<254.242 367.875> 386.064 27.936<234.263 337.283>
VStem: 56 105.344<123.457 290.587> 422 21<93.8145 107>
LayerCount: 2
Fore
SplineSet
56 200 m 3
 56 304.921875 136 414 307 414 c 3
 333 414 353.125109574 414.426839954 387 405 c 0
 415.139525977 397.494824674 425.238588235 403.56 437.064 402.624 c 1
 457 391 l 1
 430 357 418.116473239 337.992721129 417 319 c 0
 415.883 300 411.415 301 390.192 301 c 1
 386.32 314.504 382.914204671 337.484294429 363.576 354.32 c 0
 337.710110308 374.284150566 318.7756 386.064 287.32 386.064 c 3
 216.77344 386.064 161.344 325.083550307 161.344 218.368 c 3
 161.344 101.910031414 243.980195502 29.864 313.984 29.864 c 3
 351.294339022 29.864 393.26224 54.7445783132 422 111 c 1
 443 105 l 1
 438 73 435 60 429 27 c 1
 392 9 339 -6 286 -6 c 3
 174 -6 56 73 56 200 c 3
EndSplineSet
EndChar

StartChar: d.pcap
Encoding: 57350 57350 646
Width: 560
VWidth: 1159
Flags: W
HStem: -5 34.616<176.71 326.326> 380.88 28.12<60 93.2192 208.674 306.295>
VStem: 106.984 86.9918<40.4587 371.478> 402.592 101.408<109.054 291.603>
LayerCount: 2
Fore
SplineSet
246.992 29.616 m 3
 351.304849162 29.616 402.592 90.9105026606 402.592 202.688 c 3
 402.592 309.602815435 327.187910137 380.88 248.992 380.88 c 3
 240.736 380.88 229.379254475 378.795740181 211.6 371.752 c 0
 198.243873201 365.954655414 196.635956477 356.955608292 196.6 349.752 c 0
 194.308413435 293.705520304 190.980003694 223.860622566 190.980003694 163.376204095 c 3
 190.980003694 132.841871248 192.483310941 95.1284272172 193.976 67.056 c 0
 194.117235764 58.6224065979 198.461142668 48.6241750746 210.976 40.056 c 0
 220.371478261 34.6176 232.108347162 29.616 246.992 29.616 c 3
60 404 m 1
 85 403 111 401 136 401 c 3
 186 401 213 409 263 409 c 3
 426 409 504 303.909179688 504 205 c 3
 504 42.3525390625 365 -5 249 -5 c 3
 207 -5 183 -1 140 -1 c 3
 96 -1 81 -4 62 -7 c 1
 61 18 l 1
 89.1382857143 18.7173333333 97.2868902236 18.8502002048 101.752 58.992 c 0
 105.4049075 95.2186372812 106.984157786 138.72217495 106.984157786 181.330678414 c 3
 106.984157786 248.584835938 103.124786776 314.024577053 97.504 347 c 0
 92.3405614062 377.253941506 95.6288 375.416258064 60 377.376 c 1
 60 404 l 1
EndSplineSet
EndChar

StartChar: e.pcap
Encoding: 57351 57351 647
Width: 468
VWidth: 1159
Flags: W
HStem: -6 23<67.1739 90.9025> -0.384672 33.3267<208.47 323.07> 192 24<190.104 308.676> 374.649 26.7318<218.936 319.953> 385 19<63 90.9411>
VStem: 110.134 79.9704<44.8248 192 216 364.291> 339 23<135.174 165.579> 356.44 21.56<303 337.631> 397 19<105.592 116.842>
LayerCount: 2
Fore
SplineSet
63 404 m 1xae80
 103.716719432 402.132260577 156.294170747 401.38082533 207.075831097 401.38082533 c 3
 292.238349339 401.38082533 372.35031404 403.494191539 383 406 c 1
 390.208111566 399.821618658 392.821397686 394.350133538 392.821397686 386.87609291 c 3
 392.821397686 372.575379949 383.254052737 350.943231223 378 303 c 1
 356.44 300.688 l 1x3580
 350.889411765 311.524571429 353.025390871 338.096773357 334.944 353.072 c 0
 320.356550566 365.821932762 293.056878036 374.649012982 264.269844573 374.649012982 c 3
 248.180829059 374.649012982 232.084545485 372.399591424 218.288 367.816 c 0
 210.493923863 365.953840967 201.693644047 354.551882765 201.04 345.072 c 0
 195.465263158 299.473003663 191.005473684 257.381655902 190.104 216 c 1
 219.726508475 216 274.070755665 217.441026459 287.2 220.312 c 0
 321.975996512 227.013818182 330.624 240.496 341 267 c 1
 362 263 l 1
 357.43132713 246.552777669 355.576114593 226.348456416 355.576114593 205.820027424 c 3
 355.576114593 181.41543193 358.198071009 156.552777669 362 137 c 1
 339 131 l 1
 328.56 181.76 318.760366218 177.552626949 285.888 185.376 c 0
 263.066257191 191.985013728 232.674666667 192 190.104 192 c 1
 190.416 137.296852394 191.939028666 92.5332453102 206.16 54.744 c 0
 208.76107861 46.8207158043 213.00567635 41.5197333108 222.16 39.744 c 0
 239.811720749 36.0340745866 254.056582106 32.9420024161 267.860218158 32.9420024161 c 3
 288.151112434 32.9420024161 307.297076421 39.6194675223 332.128 54.864 c 0
 374.37541895 81.117245007 379.698891566 93.1403636364 397 120 c 1
 416 115 l 1
 407 75 398 33 391 -4 c 1
 327.763113226 -2.83969015085 258.690885532 -0.384671863407 194.928927487 -0.384671863407 c 3x7680
 147.722224945 -0.384671863407 103.918409428 -1.74165738677 69 -6 c 1
 63 17 l 1
 88.7165714285 23.064 98.2100833652 29.0474367972 103.44 53 c 1
 108.226774322 71.335770077 110.133582353 141.57388693 110.133582353 207.545044419 c 3
 110.133582353 267.721717716 107.831891794 326.738580518 105.752 347 c 0
 103.287817659 374.97525646 95.256 376.312 60 385 c 1
 63 404 l 1xae80
EndSplineSet
EndChar

